<svg version="1.1" viewBox="0.0 0.0 576.2782152230972 330.81102362204723" fill="none" stroke="none" stroke-linecap="square" stroke-miterlimit="10" xmlns:xlink="http://www.w3.org/1999/xlink" xmlns="http://www.w3.org/2000/svg"><clipPath id="p.0"><path d="m0 0l576.2782 0l0 330.81104l-576.2782 0l0 -330.81104z" clip-rule="nonzero"/></clipPath><g clip-path="url(#p.0)"><path fill="#000000" fill-opacity="0.0" d="m0 0l576.2782 0l0 330.81104l-576.2782 0z" fill-rule="evenodd"/><path fill="#d9d2e9" d="m110.884514 59.56168l59.46456 0l0 52.031498l-59.46456 0z" fill-rule="evenodd"/><path stroke="#000000" stroke-width="1.0" stroke-linejoin="round" stroke-linecap="butt" d="m110.884514 59.56168l59.46456 0l0 52.031498l-59.46456 0z" fill-rule="evenodd"/><path fill="#000000" d="m140.22757 88.8293l1.484375 -5.921875l1.3281403 0l-2.2500153 7.75l-1.078125 0l-1.890625 -5.875l-1.828125 5.875l-1.0625 0l-2.25 -7.75l1.3125 0l1.53125 5.796875l1.796875 -5.796875l1.0625 0l1.84375 5.921875z" fill-rule="nonzero"/><path fill="#000000" d="m146.85062 96.157425l-0.875 0l0 -5.875l-1.78125 0.65625l0 -0.8125l2.53125 -0.9375l0.125 0l0 6.96875z" fill-rule="nonzero"/><path fill="#d9d2e9" d="m170.34908 59.56168l59.46457 0l0 52.031498l-59.46457 0z" fill-rule="evenodd"/><path stroke="#000000" stroke-width="1.0" stroke-linejoin="round" stroke-linecap="butt" d="m170.34908 59.56168l59.46457 0l0 52.031498l-59.46457 0z" fill-rule="evenodd"/><path fill="#000000" d="m195.3518 88.8293l1.484375 -5.921875l1.328125 0l-2.25 7.75l-1.078125 0l-1.890625 -5.875l-1.828125 5.875l-1.0625 0l-2.25 -7.75l1.3125 0l1.53125 5.796875l1.796875 -5.796875l1.0625 0l1.84375 5.921875z" fill-rule="nonzero"/><path fill="#000000" d="m201.97484 96.157425l-0.875 0l0 -5.875l-1.78125 0.65625l0 -0.8125l2.53125 -0.9375l0.125 0l0 6.96875z" fill-rule="nonzero"/><path fill="#000000" d="m208.31775 80.094925q1.375 0 2.21875 0.78125q0.84375 0.78125 0.84375 2.03125q0 0.65625 -0.359375 1.203125q-0.34375 0.53125 -0.96875 0.859375q0.875 0.328125 1.34375 1.03125q0.46875 0.6875 0.46875 1.625q0 1.46875 -0.890625 2.328125q-0.890625 0.84375 -2.359375 0.84375q-1.296875 0 -2.15625 -0.671875l0 3.28125l-1.328125 0l0 -10.421875q0 -0.78125 0.4375 -1.453125q0.4375 -0.671875 1.171875 -1.046875q0.75 -0.390625 1.578125 -0.390625zm1.734375 2.78125q0 -0.734375 -0.484375 -1.203125q-0.484375 -0.484375 -1.25 -0.484375q-0.765625 0 -1.3125 0.515625q-0.53125 0.5 -0.546875 1.265625l0 5.921875q0.328125 0.375 0.84375 0.609375q0.515625 0.21875 1.1875 0.21875q0.953125 0 1.5 -0.5625q0.5625 -0.578125 0.5625 -1.5q0 -0.84375 -0.515625 -1.4375q-0.5 -0.59375 -1.28125 -0.609375l-1.0625 0l0 -1.09375l0.609375 0q0.859375 0 1.296875 -0.421875q0.453125 -0.421875 0.453125 -1.21875z" fill-rule="nonzero"/><path fill="#d9d2e9" d="m229.81364 59.56168l59.464584 0l0 52.031498l-59.464584 0z" fill-rule="evenodd"/><path stroke="#000000" stroke-width="1.0" stroke-linejoin="round" stroke-linecap="butt" d="m229.81364 59.56168l59.464584 0l0 52.031498l-59.464584 0z" fill-rule="evenodd"/><path fill="#000000" d="m252.0746 88.8293l1.484375 -5.921875l1.328125 0l-2.25 7.75l-1.078125 0l-1.890625 -5.875l-1.828125 5.875l-1.0625 0l-2.25 -7.75l1.3125 0l1.53125 5.796875l1.796875 -5.796875l1.0625 0l1.84375 5.921875z" fill-rule="nonzero"/><path fill="#000000" d="m258.69763 96.157425l-0.875 0l0 -5.875l-1.78125 0.65625l0 -0.8125l2.53125 -0.9375l0.125 0l0 6.96875z" fill-rule="nonzero"/><path fill="#000000" d="m265.04056 80.094925q1.375 0 2.21875 0.78125q0.84375 0.78125 0.84375 2.03125q0 0.65625 -0.359375 1.203125q-0.34375 0.53125 -0.96875 0.859375q0.875 0.328125 1.34375 1.03125q0.46875 0.6875 0.46875 1.625q0 1.46875 -0.890625 2.328125q-0.890625 0.84375 -2.359375 0.84375q-1.296875 0 -2.15625 -0.671875l0 3.28125l-1.328125 0l0 -10.421875q0 -0.78125 0.4375 -1.453125q0.4375 -0.671875 1.171875 -1.046875q0.75 -0.390625 1.578125 -0.390625zm1.734375 2.78125q0 -0.734375 -0.484375 -1.203125q-0.484375 -0.484375 -1.25 -0.484375q-0.765625 0 -1.3125 0.515625q-0.53125 0.5 -0.546875 1.265625l0 5.921875q0.328125 0.375 0.84375 0.609375q0.515625 0.21875 1.1875 0.21875q0.953125 0 1.5 -0.5625q0.5625 -0.578125 0.5625 -1.5q0 -0.84375 -0.515625 -1.4375q-0.5 -0.59375 -1.28125 -0.609375l-1.0625 0l0 -1.09375l0.609375 0q0.859375 0 1.296875 -0.421875q0.453125 -0.421875 0.453125 -1.21875z" fill-rule="nonzero"/><path fill="#000000" d="m274.5181 85.157425l-4.546875 0l0 -0.640625l2.40625 -2.65625q0.53125 -0.609375 0.734375 -0.984375q0.203125 -0.390625 0.203125 -0.796875q0 -0.53125 -0.328125 -0.875q-0.328125 -0.359375 -0.875 -0.359375q-0.65625 0 -1.03125 0.375q-0.359375 0.375 -0.359375 1.046875l-0.890625 0q0 -0.96875 0.609375 -1.546875q0.625 -0.59375 1.671875 -0.59375q0.96875 0 1.53125 0.515625q0.5625 0.5 0.5625 1.34375q0 1.015625 -1.3125 2.4375l-1.859375 2.015625l3.484375 0l0 0.71875z" fill-rule="nonzero"/><path fill="#d9d2e9" d="m110.884514 136.88452l59.46456 0l0 52.031494l-59.46456 0z" fill-rule="evenodd"/><path stroke="#000000" stroke-width="1.0" stroke-linejoin="round" stroke-linecap="butt" d="m110.884514 136.88452l59.46456 0l0 52.031494l-59.46456 0z" fill-rule="evenodd"/><path fill="#000000" d="m141.78442 166.15215l1.484375 -5.921875l1.328125 0l-2.25 7.75l-1.078125 0l-1.890625 -5.875l-1.828125 5.875l-1.0625 0l-2.25 -7.75l1.3125 0l1.53125 5.796875l1.796875 -5.796875l1.0625 0l1.84375 5.921875z" fill-rule="nonzero"/><path fill="#000000" d="m146.5637 173.48027l-0.875 0l0 -5.15625l0.875 0l0 5.15625zm-0.953125 -6.53125q0 -0.21875 0.125 -0.359375q0.140625 -0.140625 0.390625 -0.140625q0.265625 0 0.390625 0.140625q0.140625 0.140625 0.140625 0.359375q0 0.21875 -0.140625 0.359375q-0.125 0.140625 -0.390625 0.140625q-0.25 0 -0.390625 -0.140625q-0.125 -0.140625 -0.125 -0.359375z" fill-rule="nonzero"/><path fill="#d9d2e9" d="m170.34908 136.88452l59.46457 0l0 52.031494l-59.46457 0z" fill-rule="evenodd"/><path stroke="#000000" stroke-width="1.0" stroke-linejoin="round" stroke-linecap="butt" d="m170.34908 136.88452l59.46457 0l0 52.031494l-59.46457 0z" fill-rule="evenodd"/><path fill="#000000" d="m196.90865 166.15215l1.484375 -5.921875l1.328125 0l-2.25 7.75l-1.078125 0l-1.890625 -5.875l-1.828125 5.875l-1.0625 0l-2.25 -7.75l1.3125 0l1.53125 5.796875l1.796875 -5.796875l1.0625 0l1.84375 5.921875z" fill-rule="nonzero"/><path fill="#000000" d="m201.68793 173.48027l-0.875 0l0 -5.15625l0.875 0l0 5.15625zm-0.953125 -6.53125q0 -0.21875 0.125 -0.359375q0.140625 -0.140625 0.390625 -0.140625q0.265625 0 0.390625 0.140625q0.140625 0.140625 0.140625 0.359375q0 0.21875 -0.140625 0.359375q-0.125 0.140625 -0.390625 0.140625q-0.25 0 -0.390625 -0.140625q-0.125 -0.140625 -0.125 -0.359375z" fill-rule="nonzero"/><path fill="#000000" d="m206.7609 157.41777q1.375 0 2.21875 0.78125q0.84375 0.78125 0.84375 2.03125q0 0.65625 -0.359375 1.203125q-0.34375 0.53125 -0.96875 0.859375q0.875 0.328125 1.34375 1.03125q0.46875 0.6875 0.46875 1.625q0 1.46875 -0.890625 2.328125q-0.890625 0.84375 -2.359375 0.84375q-1.296875 0 -2.15625 -0.671875l0 3.28125l-1.328125 0l0 -10.421875q0 -0.78125 0.4375 -1.453125q0.4375 -0.671875 1.171875 -1.046875q0.75 -0.390625 1.578125 -0.390625zm1.734375 2.78125q0 -0.734375 -0.484375 -1.203125q-0.484375 -0.484375 -1.25 -0.484375q-0.765625 0 -1.3125 0.515625q-0.53125 0.5 -0.546875 1.265625l0 5.921875q0.328125 0.375 0.84375 0.609375q0.515625 0.21875 1.1875 0.21875q0.953125 0 1.5 -0.5625q0.5625 -0.578125 0.5625 -1.5q0 -0.84375 -0.515625 -1.4375q-0.5 -0.59375 -1.28125 -0.609375l-1.0625 0l0 -1.09375l0.609375 0q0.859375 0 1.296875 -0.421875q0.453125 -0.421875 0.453125 -1.21875z" fill-rule="nonzero"/><path fill="#d9d2e9" d="m110.884514 111.59318l59.46456 0l0 25.291344l-59.46456 0z" fill-rule="evenodd"/><path stroke="#000000" stroke-width="1.0" stroke-linejoin="round" stroke-linecap="butt" d="m110.884514 111.59318l59.46456 0l0 25.291344l-59.46456 0z" fill-rule="evenodd"/><path fill="#000000" d="m135.86212 128.63135q0 -0.34375 0.203125 -0.578125q0.203125 -0.234375 0.609375 -0.234375q0.40625 0 0.609375 0.234375q0.21875 0.234375 0.21875 0.578125q0 0.328125 -0.21875 0.546875q-0.203125 0.21875 -0.609375 0.21875q-0.40625 0 -0.609375 -0.21875q-0.203125 -0.21875 -0.203125 -0.546875zm3.8572845 0q0 -0.34375 0.203125 -0.578125q0.203125 -0.234375 0.609375 -0.234375q0.40625 0 0.609375 0.234375q0.21875 0.234375 0.21875 0.578125q0 0.328125 -0.21875 0.546875q-0.203125 0.21875 -0.609375 0.21875q-0.40625 0 -0.609375 -0.21875q-0.203125 -0.21875 -0.203125 -0.546875zm3.8572845 0q0 -0.34375 0.203125 -0.578125q0.203125 -0.234375 0.609375 -0.234375q0.40625 0 0.609375 0.234375q0.21875 0.234375 0.21875 0.578125q0 0.328125 -0.21875 0.546875q-0.203125 0.21875 -0.609375 0.21875q-0.40625 0 -0.609375 -0.21875q-0.203125 -0.21875 -0.203125 -0.546875z" fill-rule="nonzero"/><path fill="#d9d2e9" d="m170.34908 111.59318l59.46457 0l0 25.291344l-59.46457 0z" fill-rule="evenodd"/><path stroke="#000000" stroke-width="1.0" stroke-linejoin="round" stroke-linecap="butt" d="m170.34908 111.59318l59.46457 0l0 25.291344l-59.46457 0z" fill-rule="evenodd"/><path fill="#000000" d="m195.32669 128.63135q0 -0.34375 0.203125 -0.578125q0.203125 -0.234375 0.609375 -0.234375q0.40625 0 0.609375 0.234375q0.21875 0.234375 0.21875 0.578125q0 0.328125 -0.21875 0.546875q-0.203125 0.21875 -0.609375 0.21875q-0.40625 0 -0.609375 -0.21875q-0.203125 -0.21875 -0.203125 -0.546875zm3.8572845 0q0 -0.34375 0.203125 -0.578125q0.203125 -0.234375 0.609375 -0.234375q0.40625 0 0.609375 0.234375q0.21875 0.234375 0.21875 0.578125q0 0.328125 -0.21875 0.546875q-0.203125 0.21875 -0.609375 0.21875q-0.40625 0 -0.609375 -0.21875q-0.203125 -0.21875 -0.203125 -0.546875zm3.8572845 0q0 -0.34375 0.203125 -0.578125q0.203125 -0.234375 0.609375 -0.234375q0.40625 0 0.609375 0.234375q0.21875 0.234375 0.21875 0.578125q0 0.328125 -0.21875 0.546875q-0.203125 0.21875 -0.609375 0.21875q-0.40625 0 -0.609375 -0.21875q-0.203125 -0.21875 -0.203125 -0.546875z" fill-rule="nonzero"/><path fill="#d9d2e9" d="m229.81102 111.59318l59.464584 0l0 25.291344l-59.464584 0z" fill-rule="evenodd"/><path stroke="#000000" stroke-width="1.0" stroke-linejoin="round" stroke-linecap="butt" d="m229.81102 111.59318l59.464584 0l0 25.291344l-59.464584 0z" fill-rule="evenodd"/><path fill="#000000" d="m254.78864 128.63135q0 -0.34375 0.203125 -0.578125q0.203125 -0.234375 0.609375 -0.234375q0.40625 0 0.609375 0.234375q0.21875 0.234375 0.21875 0.578125q0 0.328125 -0.21875 0.546875q-0.203125 0.21875 -0.609375 0.21875q-0.40625 0 -0.609375 -0.21875q-0.203125 -0.21875 -0.203125 -0.546875zm3.8572693 0q0 -0.34375 0.203125 -0.578125q0.203125 -0.234375 0.609375 -0.234375q0.40625 0 0.609375 0.234375q0.21875 0.234375 0.21875 0.578125q0 0.328125 -0.21875 0.546875q-0.203125 0.21875 -0.609375 0.21875q-0.40625 0 -0.609375 -0.21875q-0.203125 -0.21875 -0.203125 -0.546875zm3.8572998 0q0 -0.34375 0.203125 -0.578125q0.203125 -0.234375 0.609375 -0.234375q0.40625 0 0.609375 0.234375q0.21875 0.234375 0.21875 0.578125q0 0.328125 -0.21875 0.546875q-0.203125 0.21875 -0.609375 0.21875q-0.40625 0 -0.609375 -0.21875q-0.203125 -0.21875 -0.203125 -0.546875z" fill-rule="nonzero"/><path fill="#d9d2e9" d="m229.81102 136.88452l59.464584 0l0 52.031494l-59.464584 0z" fill-rule="evenodd"/><path stroke="#000000" stroke-width="1.0" stroke-linejoin="round" stroke-linecap="butt" d="m229.81102 136.88452l59.464584 0l0 52.031494l-59.464584 0z" fill-rule="evenodd"/><path fill="#000000" d="m253.62883 166.15215l1.484375 -5.921875l1.3281097 0l-2.2499847 7.75l-1.078125 0l-1.890625 -5.875l-1.828125 5.875l-1.0625 0l-2.25 -7.75l1.3125 0l1.53125 5.796875l1.796875 -5.796875l1.0625 0l1.84375 5.921875z" fill-rule="nonzero"/><path fill="#000000" d="m258.4081 173.48027l-0.875 0l0 -5.15625l0.875 0l0 5.15625zm-0.953125 -6.53125q0 -0.21875 0.125 -0.359375q0.140625 -0.140625 0.390625 -0.140625q0.265625 0 0.390625 0.140625q0.140625 0.140625 0.140625 0.359375q0 0.21875 -0.140625 0.359375q-0.125 0.140625 -0.390625 0.140625q-0.25 0 -0.390625 -0.140625q-0.125 -0.140625 -0.125 -0.359375z" fill-rule="nonzero"/><path fill="#000000" d="m263.48108 157.41777q1.375 0 2.21875 0.78125q0.84375 0.78125 0.84375 2.03125q0 0.65625 -0.359375 1.203125q-0.34375 0.53125 -0.96875 0.859375q0.875 0.328125 1.34375 1.03125q0.46875 0.6875 0.46875 1.625q0 1.46875 -0.890625 2.328125q-0.890625 0.84375 -2.359375 0.84375q-1.296875 0 -2.15625 -0.671875l0 3.28125l-1.328125 0l0 -10.421875q0 -0.78125 0.4375 -1.453125q0.4375 -0.671875 1.171875 -1.046875q0.75 -0.390625 1.578125 -0.390625zm1.734375 2.78125q0 -0.734375 -0.484375 -1.203125q-0.484375 -0.484375 -1.25 -0.484375q-0.765625 0 -1.3125 0.515625q-0.53125 0.5 -0.546875 1.265625l0 5.921875q0.328125 0.375 0.84375 0.609375q0.515625 0.21875 1.1875 0.21875q0.953125 0 1.5 -0.5625q0.5625 -0.578125 0.5625 -1.5q0 -0.84375 -0.515625 -1.4375q-0.5 -0.59375 -1.28125 -0.609375l-1.0625 0l0 -1.09375l0.609375 0q0.859375 0 1.296875 -0.421875q0.453125 -0.421875 0.453125 -1.21875z" fill-rule="nonzero"/><path fill="#000000" d="m272.95862 162.48027l-4.546875 0l0 -0.640625l2.40625 -2.65625q0.53125 -0.609375 0.734375 -0.984375q0.203125 -0.390625 0.203125 -0.796875q0 -0.53125 -0.328125 -0.875q-0.328125 -0.359375 -0.875 -0.359375q-0.65625 0 -1.03125 0.375q-0.359375 0.375 -0.359375 1.046875l-0.890625 0q0 -0.96875 0.609375 -1.546875q0.625 -0.59375 1.671875 -0.59375q0.96875 0 1.53125 0.515625q0.5625 0.5 0.5625 1.34375q0 1.015625 -1.3125 2.4375l-1.859375 2.015625l3.484375 0l0 0.71875z" fill-rule="nonzero"/><path fill="#fff2cc" d="m110.88189 188.91602l59.46456 0l0 129.35434l-59.46456 0z" fill-rule="evenodd"/><path stroke="#000000" stroke-width="1.0" stroke-linejoin="round" stroke-linecap="butt" d="m110.88189 188.91602l59.46456 0l0 129.35434l-59.46456 0z" fill-rule="evenodd"/><path fill="#000000" d="m140.88773 257.7357q0.703125 0 1.234375 -0.421875q0.53125 -0.4375 0.59375 -1.078125l1.2500153 0q-0.03125 0.65625 -0.453125 1.265625q-0.421875 0.59375 -1.1406403 0.953125q-0.703125 0.359375 -1.484375 0.359375q-1.578125 0 -2.515625 -1.046875q-0.9375 -1.0625 -0.9375 -2.8906403l0 -0.21875q0 -1.140625 0.40625 -2.015625q0.421875 -0.875 1.203125 -1.359375q0.78125 -0.5 1.828125 -0.5q1.3125 0 2.1718903 0.78125q0.859375 0.78125 0.921875 2.03125l-1.2500153 0q-0.0625 -0.75 -0.578125 -1.234375q-0.5 -0.484375 -1.265625 -0.484375q-1.0 0 -1.5625 0.734375q-0.546875 0.71875 -0.546875 2.09375l0 0.25q0 1.3281403 0.546875 2.0625153q0.546875 0.71875 1.578125 0.71875z" fill-rule="nonzero"/><path fill="#d9d2e9" d="m170.34645 188.90814l59.46457 0l0 26.015747l-59.46457 0z" fill-rule="evenodd"/><path stroke="#000000" stroke-width="1.0" stroke-linejoin="round" stroke-linecap="butt" d="m170.34645 188.90814l59.46457 0l0 26.015747l-59.46457 0z" fill-rule="evenodd"/><path fill="#000000" d="m191.83167 197.77975q1.125 0 1.8125 0.65625q0.6875 0.640625 0.6875 1.65625q0 0.53125 -0.28125 0.984375q-0.28125 0.4375 -0.796875 0.703125q0.71875 0.265625 1.09375 0.84375q0.390625 0.5625 0.390625 1.328125q0 1.203125 -0.734375 1.90625q-0.71875 0.703125 -1.921875 0.703125q-1.0625 0 -1.765625 -0.5625l0 2.6875l-1.09375 0l0 -8.53125q0 -0.640625 0.359375 -1.1875q0.359375 -0.546875 0.953125 -0.859375q0.609375 -0.328125 1.296875 -0.328125zm1.421875 2.28125q0 -0.59375 -0.40625 -0.984375q-0.390625 -0.40625 -1.015625 -0.40625q-0.640625 0 -1.078125 0.421875q-0.4375 0.421875 -0.4375 1.046875l0 4.859375q0.25 0.296875 0.671875 0.484375q0.421875 0.1875 0.984375 0.1875q0.78125 0 1.234375 -0.46875q0.453125 -0.46875 0.453125 -1.234375q0 -0.6875 -0.421875 -1.171875q-0.40625 -0.484375 -1.046875 -0.5l-0.875 0l0 -0.890625l0.5 0q0.703125 0 1.0625 -0.34375q0.375 -0.34375 0.375 -1.0zm11.546875 4.875l1.21875 -4.84375l1.078125 0l-1.84375 6.34375l-0.875 0l-1.546875 -4.8125l-1.5 4.8125l-0.875 0l-1.84375 -6.34375l1.078125 0l1.25 4.75l1.484375 -4.75l0.859375 0l1.515625 4.84375z" fill-rule="nonzero"/><path fill="#000000" d="m210.22424 210.936l-0.71875 0l0 -4.8125l-1.453125 0.53125l0 -0.65625l2.0625 -0.78125l0.109375 0l0 5.71875z" fill-rule="nonzero"/><path fill="#d9d2e9" d="m229.79489 188.90814l59.46457 0l0 26.015747l-59.46457 0z" fill-rule="evenodd"/><path stroke="#000000" stroke-width="1.0" stroke-linejoin="round" stroke-linecap="butt" d="m229.79489 188.90814l59.46457 0l0 26.015747l-59.46457 0z" fill-rule="evenodd"/><path fill="#000000" d="m247.7264 197.77975q1.125 0 1.8125 0.65625q0.6875 0.640625 0.6875 1.65625q0 0.53125 -0.28125 0.984375q-0.28125 0.4375 -0.796875 0.703125q0.71875 0.265625 1.09375 0.84375q0.390625 0.5625 0.390625 1.328125q0 1.203125 -0.734375 1.90625q-0.71875 0.703125 -1.921875 0.703125q-1.0625 0 -1.765625 -0.5625l0 2.6875l-1.09375 0l0 -8.53125q0 -0.640625 0.359375 -1.1875q0.359375 -0.546875 0.953125 -0.859375q0.609375 -0.328125 1.296875 -0.328125zm1.421875 2.28125q0 -0.59375 -0.40625 -0.984375q-0.390625 -0.40625 -1.015625 -0.40625q-0.640625 0 -1.078125 0.421875q-0.4375 0.421875 -0.4375 1.046875l0 4.859375q0.25 0.296875 0.671875 0.484375q0.421875 0.1875 0.984375 0.1875q0.78125 0 1.234375 -0.46875q0.453125 -0.46875 0.453125 -1.234375q0 -0.6875 -0.421875 -1.171875q-0.40625 -0.484375 -1.046875 -0.5l-0.875 0l0 -0.890625l0.5 0q0.703125 0 1.0625 -0.34375q0.375 -0.34375 0.375 -1.0zm11.54689 4.875l1.21875 -4.84375l1.078125 0l-1.84375 6.34375l-0.875 0l-1.546875 -4.8125l-1.5 4.8125l-0.875 0l-1.8437653 -6.34375l1.078125 0l1.2500153 4.75l1.484375 -4.75l0.859375 0l1.515625 4.84375z" fill-rule="nonzero"/><path fill="#000000" d="m266.119 210.936l-0.71875 0l0 -4.8125l-1.453125 0.53125l0 -0.65625l2.0625 -0.78125l0.109375 0l0 5.71875z" fill-rule="nonzero"/><path fill="#000000" d="m271.3143 197.77975q1.125 0 1.8125 0.65625q0.6875 0.640625 0.6875 1.65625q0 0.53125 -0.28125 0.984375q-0.28125 0.4375 -0.796875 0.703125q0.71875 0.265625 1.09375 0.84375q0.390625 0.5625 0.390625 1.328125q0 1.203125 -0.734375 1.90625q-0.71875 0.703125 -1.921875 0.703125q-1.0625 0 -1.765625 -0.5625l0 2.6875l-1.09375 0l0 -8.53125q0 -0.640625 0.359375 -1.1875q0.359375 -0.546875 0.953125 -0.859375q0.609375 -0.328125 1.296875 -0.328125zm1.421875 2.28125q0 -0.59375 -0.40625 -0.984375q-0.390625 -0.40625 -1.015625 -0.40625q-0.640625 0 -1.078125 0.421875q-0.4375 0.421875 -0.4375 1.046875l0 4.859375q0.25 0.296875 0.671875 0.484375q0.421875 0.1875 0.984375 0.1875q0.78125 0 1.234375 -0.46875q0.453125 -0.46875 0.453125 -1.234375q0 -0.6875 -0.421875 -1.171875q-0.40625 -0.484375 -1.046875 -0.5l-0.875 0l0 -0.890625l0.5 0q0.703125 0 1.0625 -0.34375q0.375 -0.34375 0.375 -1.0z" fill-rule="nonzero"/><path fill="#d9d2e9" d="m289.24335 188.90814l59.46457 0l0 26.015747l-59.46457 0z" fill-rule="evenodd"/><path stroke="#000000" stroke-width="1.0" stroke-linejoin="round" stroke-linecap="butt" d="m289.24335 188.90814l59.46457 0l0 26.015747l-59.46457 0z" fill-rule="evenodd"/><path fill="#000000" d="m306.4141 197.77975q1.125 0 1.8125 0.65625q0.6875 0.640625 0.6875 1.65625q0 0.53125 -0.28125 0.984375q-0.28125 0.4375 -0.796875 0.703125q0.71875 0.265625 1.09375 0.84375q0.390625 0.5625 0.390625 1.328125q0 1.203125 -0.734375 1.90625q-0.71875 0.703125 -1.921875 0.703125q-1.0625 0 -1.765625 -0.5625l0 2.6875l-1.09375 0l0 -8.53125q0 -0.640625 0.359375 -1.1875q0.359375 -0.546875 0.953125 -0.859375q0.609375 -0.328125 1.296875 -0.328125zm1.421875 2.28125q0 -0.59375 -0.40625 -0.984375q-0.390625 -0.40625 -1.015625 -0.40625q-0.640625 0 -1.078125 0.421875q-0.4375 0.421875 -0.4375 1.046875l0 4.859375q0.25 0.296875 0.671875 0.484375q0.421875 0.1875 0.984375 0.1875q0.78125 0 1.234375 -0.46875q0.453125 -0.46875 0.453125 -1.234375q0 -0.6875 -0.421875 -1.171875q-0.40625 -0.484375 -1.046875 -0.5l-0.875 0l0 -0.890625l0.5 0q0.703125 0 1.0625 -0.34375q0.375 -0.34375 0.375 -1.0zm11.546875 4.875l1.21875 -4.84375l1.078125 0l-1.84375 6.34375l-0.875 0l-1.546875 -4.8125l-1.5 4.8125l-0.875 0l-1.84375 -6.34375l1.078125 0l1.25 4.75l1.484375 -4.75l0.859375 0l1.515625 4.84375z" fill-rule="nonzero"/><path fill="#000000" d="m324.80667 210.936l-0.71875 0l0 -4.8125l-1.453125 0.53125l0 -0.65625l2.0625 -0.78125l0.109375 0l0 5.71875z" fill-rule="nonzero"/><path fill="#000000" d="m330.00198 197.77975q1.125 0 1.8125 0.65625q0.6875 0.640625 0.6875 1.65625q0 0.53125 -0.28125 0.984375q-0.28125 0.4375 -0.796875 0.703125q0.71875 0.265625 1.09375 0.84375q0.390625 0.5625 0.390625 1.328125q0 1.203125 -0.734375 1.90625q-0.71875 0.703125 -1.921875 0.703125q-1.0625 0 -1.765625 -0.5625l0 2.6875l-1.09375 0l0 -8.53125q0 -0.640625 0.359375 -1.1875q0.359375 -0.546875 0.953125 -0.859375q0.609375 -0.328125 1.296875 -0.328125zm1.421875 2.28125q0 -0.59375 -0.40625 -0.984375q-0.390625 -0.40625 -1.015625 -0.40625q-0.640625 0 -1.078125 0.421875q-0.4375 0.421875 -0.4375 1.046875l0 4.859375q0.25 0.296875 0.671875 0.484375q0.421875 0.1875 0.984375 0.1875q0.78125 0 1.234375 -0.46875q0.453125 -0.46875 0.453125 -1.234375q0 -0.6875 -0.421875 -1.171875q-0.40625 -0.484375 -1.046875 -0.5l-0.875 0l0 -0.890625l0.5 0q0.703125 0 1.0625 -0.34375q0.375 -0.34375 0.375 -1.0z" fill-rule="nonzero"/><path fill="#000000" d="m337.76566 201.936l-3.734375 0l0 -0.515625l1.96875 -2.1875q0.4375 -0.5 0.609375 -0.8125q0.171875 -0.3125 0.171875 -0.640625q0 -0.453125 -0.28125 -0.734375q-0.265625 -0.28125 -0.71875 -0.28125q-0.53125 0 -0.828125 0.3125q-0.296875 0.296875 -0.296875 0.84375l-0.734375 0q0 -0.78125 0.5 -1.265625q0.515625 -0.484375 1.359375 -0.484375q0.796875 0 1.25 0.421875q0.46875 0.40625 0.46875 1.09375q0 0.84375 -1.0625 2.0l-1.53125 1.65625l2.859375 0l0 0.59375z" fill-rule="nonzero"/><path fill="#d9d2e9" d="m170.34908 227.56955l59.46457 0l0 26.015747l-59.46457 0z" fill-rule="evenodd"/><path stroke="#000000" stroke-width="1.0" stroke-linejoin="round" stroke-linecap="butt" d="m170.34908 227.56955l59.46457 0l0 26.015747l-59.46457 0z" fill-rule="evenodd"/><path fill="#000000" d="m193.10968 236.44118q1.125 0 1.8125 0.65625q0.6875 0.640625 0.6875 1.65625q0 0.53125 -0.28125 0.984375q-0.28125 0.4375 -0.796875 0.703125q0.71875 0.265625 1.09375 0.84375q0.390625 0.5625 0.390625 1.328125q0 1.203125 -0.734375 1.90625q-0.71875 0.703125 -1.921875 0.703125q-1.0625 0 -1.765625 -0.5625l0 2.6875l-1.09375 0l0 -8.53125q0 -0.640625 0.359375 -1.1875q0.359375 -0.546875 0.953125 -0.859375q0.609375 -0.328125 1.296875 -0.328125zm1.421875 2.28125q0 -0.59375 -0.40625 -0.984375q-0.390625 -0.40625 -1.015625 -0.40625q-0.640625 0 -1.078125 0.421875q-0.4375 0.421875 -0.4375 1.046875l0 4.859375q0.25 0.296875 0.671875 0.484375q0.421875 0.1875 0.984375 0.1875q0.78125 0 1.234375 -0.46875q0.453125 -0.46875 0.453125 -1.234375q0 -0.6875 -0.421875 -1.171875q-0.40625 -0.484375 -1.046875 -0.5l-0.875 0l0 -0.890625l0.5 0q0.703125 0 1.0625 -0.34375q0.375 -0.34375 0.375 -1.0zm11.546875 4.875l1.21875 -4.84375l1.078125 0l-1.84375 6.34375l-0.875 0l-1.546875 -4.8125l-1.5 4.8125l-0.875 0l-1.84375 -6.34375l1.078125 0l1.25 4.75l1.484375 -4.75l0.859375 0l1.515625 4.84375z" fill-rule="nonzero"/><path fill="#000000" d="m209.98663 249.59743l-0.71875 0l0 -4.234375l0.71875 0l0 4.234375zm-0.78125 -5.34375q0 -0.1875 0.109375 -0.296875q0.109375 -0.125 0.3125 -0.125q0.21875 0 0.328125 0.125q0.109375 0.109375 0.109375 0.296875q0 0.171875 -0.109375 0.296875q-0.109375 0.109375 -0.328125 0.109375q-0.203125 0 -0.3125 -0.109375q-0.109375 -0.125 -0.109375 -0.296875z" fill-rule="nonzero"/><path fill="#d9d2e9" d="m229.79752 227.56955l59.46457 0l0 26.015747l-59.46457 0z" fill-rule="evenodd"/><path stroke="#000000" stroke-width="1.0" stroke-linejoin="round" stroke-linecap="butt" d="m229.79752 227.56955l59.46457 0l0 26.015747l-59.46457 0z" fill-rule="evenodd"/><path fill="#000000" d="m249.00441 236.44118q1.125 0 1.8125 0.65625q0.6875 0.640625 0.6875 1.65625q0 0.53125 -0.28125 0.984375q-0.28125 0.4375 -0.796875 0.703125q0.71875 0.265625 1.09375 0.84375q0.390625 0.5625 0.390625 1.328125q0 1.203125 -0.734375 1.90625q-0.71875 0.703125 -1.921875 0.703125q-1.0625 0 -1.765625 -0.5625l0 2.6875l-1.09375 0l0 -8.53125q0 -0.640625 0.359375 -1.1875q0.359375 -0.546875 0.953125 -0.859375q0.609375 -0.328125 1.296875 -0.328125zm1.421875 2.28125q0 -0.59375 -0.40625 -0.984375q-0.390625 -0.40625 -1.015625 -0.40625q-0.640625 0 -1.078125 0.421875q-0.4375 0.421875 -0.4375 1.046875l0 4.859375q0.25 0.296875 0.671875 0.484375q0.421875 0.1875 0.984375 0.1875q0.78125 0 1.234375 -0.46875q0.453125 -0.46875 0.453125 -1.234375q0 -0.6875 -0.421875 -1.171875q-0.40625 -0.484375 -1.046875 -0.5l-0.875 0l0 -0.890625l0.5 0q0.703125 0 1.0625 -0.34375q0.375 -0.34375 0.375 -1.0zm11.54689 4.875l1.21875 -4.84375l1.078125 0l-1.84375 6.34375l-0.875 0l-1.546875 -4.8125l-1.5 4.8125l-0.875 0l-1.8437653 -6.34375l1.0781403 0l1.25 4.75l1.484375 -4.75l0.859375 0l1.515625 4.84375z" fill-rule="nonzero"/><path fill="#000000" d="m265.88138 249.59743l-0.71875 0l0 -4.234375l0.71875 0l0 4.234375zm-0.78125 -5.34375q0 -0.1875 0.109375 -0.296875q0.109375 -0.125 0.3125 -0.125q0.21875 0 0.328125 0.125q0.109375 0.109375 0.109375 0.296875q0 0.171875 -0.109375 0.296875q-0.109375 0.109375 -0.328125 0.109375q-0.203125 0 -0.3125 -0.109375q-0.109375 -0.125 -0.109375 -0.296875z" fill-rule="nonzero"/><path fill="#000000" d="m270.04153 236.44118q1.125 0 1.8125 0.65625q0.6875 0.640625 0.6875 1.65625q0 0.53125 -0.28125 0.984375q-0.28125 0.4375 -0.796875 0.703125q0.71875 0.265625 1.09375 0.84375q0.390625 0.5625 0.390625 1.328125q0 1.203125 -0.734375 1.90625q-0.71875 0.703125 -1.921875 0.703125q-1.0625 0 -1.765625 -0.5625l0 2.6875l-1.09375 0l0 -8.53125q0 -0.640625 0.359375 -1.1875q0.359375 -0.546875 0.953125 -0.859375q0.609375 -0.328125 1.296875 -0.328125zm1.421875 2.28125q0 -0.59375 -0.40625 -0.984375q-0.390625 -0.40625 -1.015625 -0.40625q-0.640625 0 -1.078125 0.421875q-0.4375 0.421875 -0.4375 1.046875l0 4.859375q0.25 0.296875 0.671875 0.484375q0.421875 0.1875 0.984375 0.1875q0.78125 0 1.234375 -0.46875q0.453125 -0.46875 0.453125 -1.234375q0 -0.6875 -0.421875 -1.171875q-0.40625 -0.484375 -1.046875 -0.5l-0.875 0l0 -0.890625l0.5 0q0.703125 0 1.0625 -0.34375q0.375 -0.34375 0.375 -1.0z" fill-rule="nonzero"/><path fill="#d9d2e9" d="m170.34908 214.92389l59.46457 0l0 12.629913l-59.46457 0z" fill-rule="evenodd"/><path stroke="#000000" stroke-width="1.0" stroke-linejoin="round" stroke-linecap="butt" d="m170.34908 214.92389l59.46457 0l0 12.629913l-59.46457 0z" fill-rule="evenodd"/><path fill="#000000" d="m196.1878 225.19635q0 -0.28125 0.15625 -0.46875q0.171875 -0.1875 0.5 -0.1875q0.34375 0 0.515625 0.1875q0.171875 0.1875 0.171875 0.46875q0 0.265625 -0.171875 0.453125q-0.171875 0.171875 -0.515625 0.171875q-0.328125 0 -0.5 -0.171875q-0.15625 -0.1875 -0.15625 -0.453125zm3.1582031 0q0 -0.28125 0.15625 -0.46875q0.171875 -0.1875 0.5 -0.1875q0.34375 0 0.515625 0.1875q0.171875 0.1875 0.171875 0.46875q0 0.265625 -0.171875 0.453125q-0.171875 0.171875 -0.515625 0.171875q-0.328125 0 -0.5 -0.171875q-0.15625 -0.1875 -0.15625 -0.453125zm3.1582031 0q0 -0.28125 0.15625 -0.46875q0.171875 -0.1875 0.5 -0.1875q0.34375 0 0.515625 0.1875q0.171875 0.1875 0.171875 0.46875q0 0.265625 -0.171875 0.453125q-0.171875 0.171875 -0.515625 0.171875q-0.328125 0 -0.5 -0.171875q-0.15625 -0.1875 -0.15625 -0.453125z" fill-rule="nonzero"/><path fill="#d9d2e9" d="m229.79752 214.92389l59.46457 0l0 12.629913l-59.46457 0z" fill-rule="evenodd"/><path stroke="#000000" stroke-width="1.0" stroke-linejoin="round" stroke-linecap="butt" d="m229.79752 214.92389l59.46457 0l0 12.629913l-59.46457 0z" fill-rule="evenodd"/><path fill="#000000" d="m255.63625 225.19635q0 -0.28125 0.15625 -0.46875q0.171875 -0.1875 0.50001526 -0.1875q0.34375 0 0.515625 0.1875q0.171875 0.1875 0.171875 0.46875q0 0.265625 -0.171875 0.453125q-0.171875 0.171875 -0.515625 0.171875q-0.32814026 0 -0.50001526 -0.171875q-0.15625 -0.1875 -0.15625 -0.453125zm3.1582184 0q0 -0.28125 0.15625 -0.46875q0.171875 -0.1875 0.5 -0.1875q0.34375 0 0.515625 0.1875q0.171875 0.1875 0.171875 0.46875q0 0.265625 -0.171875 0.453125q-0.171875 0.171875 -0.515625 0.171875q-0.328125 0 -0.5 -0.171875q-0.15625 -0.1875 -0.15625 -0.453125zm3.1582031 0q0 -0.28125 0.15625 -0.46875q0.171875 -0.1875 0.5 -0.1875q0.34375 0 0.515625 0.1875q0.171875 0.1875 0.171875 0.46875q0 0.265625 -0.171875 0.453125q-0.171875 0.171875 -0.515625 0.171875q-0.328125 0 -0.5 -0.171875q-0.15625 -0.1875 -0.15625 -0.453125z" fill-rule="nonzero"/><path fill="#d9d2e9" d="m289.24335 214.92389l59.46457 0l0 12.629913l-59.46457 0z" fill-rule="evenodd"/><path stroke="#000000" stroke-width="1.0" stroke-linejoin="round" stroke-linecap="butt" d="m289.24335 214.92389l59.46457 0l0 12.629913l-59.46457 0z" fill-rule="evenodd"/><path fill="#000000" d="m315.08206 225.19635q0 -0.28125 0.15625 -0.46875q0.171875 -0.1875 0.5 -0.1875q0.34375 0 0.515625 0.1875q0.171875 0.1875 0.171875 0.46875q0 0.265625 -0.171875 0.453125q-0.171875 0.171875 -0.515625 0.171875q-0.328125 0 -0.5 -0.171875q-0.15625 -0.1875 -0.15625 -0.453125zm3.1582031 0q0 -0.28125 0.15625 -0.46875q0.171875 -0.1875 0.5 -0.1875q0.34375 0 0.515625 0.1875q0.171875 0.1875 0.171875 0.46875q0 0.265625 -0.171875 0.453125q-0.171875 0.171875 -0.515625 0.171875q-0.328125 0 -0.5 -0.171875q-0.15625 -0.1875 -0.15625 -0.453125zm3.1582031 0q0 -0.28125 0.15625 -0.46875q0.171875 -0.1875 0.5 -0.1875q0.34375 0 0.515625 0.1875q0.171875 0.1875 0.171875 0.46875q0 0.265625 -0.171875 0.453125q-0.171875 0.171875 -0.515625 0.171875q-0.328125 0 -0.5 -0.171875q-0.15625 -0.1875 -0.15625 -0.453125z" fill-rule="nonzero"/><path fill="#d9d2e9" d="m289.24335 227.56955l59.46457 0l0 26.015747l-59.46457 0z" fill-rule="evenodd"/><path stroke="#000000" stroke-width="1.0" stroke-linejoin="round" stroke-linecap="butt" d="m289.24335 227.56955l59.46457 0l0 26.015747l-59.46457 0z" fill-rule="evenodd"/><path fill="#000000" d="m306.20413 236.44118q1.125 0 1.8125 0.65625q0.6875 0.640625 0.6875 1.65625q0 0.53125 -0.28125 0.984375q-0.28125 0.4375 -0.796875 0.703125q0.71875 0.265625 1.09375 0.84375q0.390625 0.5625 0.390625 1.328125q0 1.203125 -0.734375 1.90625q-0.71875 0.703125 -1.921875 0.703125q-1.0625 0 -1.765625 -0.5625l0 2.6875l-1.09375 0l0 -8.53125q0 -0.640625 0.359375 -1.1875q0.359375 -0.546875 0.953125 -0.859375q0.609375 -0.328125 1.296875 -0.328125zm1.421875 2.28125q0 -0.59375 -0.40625 -0.984375q-0.390625 -0.40625 -1.015625 -0.40625q-0.640625 0 -1.078125 0.421875q-0.4375 0.421875 -0.4375 1.046875l0 4.859375q0.25 0.296875 0.671875 0.484375q0.421875 0.1875 0.984375 0.1875q0.78125 0 1.234375 -0.46875q0.453125 -0.46875 0.453125 -1.234375q0 -0.6875 -0.421875 -1.171875q-0.40625 -0.484375 -1.046875 -0.5l-0.875 0l0 -0.890625l0.5 0q0.703125 0 1.0625 -0.34375q0.375 -0.34375 0.375 -1.0zm11.546875 4.875l1.21875 -4.84375l1.078125 0l-1.84375 6.34375l-0.875 0l-1.546875 -4.8125l-1.5 4.8125l-0.875 0l-1.84375 -6.34375l1.078125 0l1.25 4.75l1.484375 -4.75l0.859375 0l1.515625 4.84375z" fill-rule="nonzero"/><path fill="#000000" d="m323.0811 249.59743l-0.71875 0l0 -4.234375l0.71875 0l0 4.234375zm-0.78125 -5.34375q0 -0.1875 0.109375 -0.296875q0.109375 -0.125 0.3125 -0.125q0.21875 0 0.328125 0.125q0.109375 0.109375 0.109375 0.296875q0 0.171875 -0.109375 0.296875q-0.109375 0.109375 -0.328125 0.109375q-0.203125 0 -0.3125 -0.109375q-0.109375 -0.125 -0.109375 -0.296875z" fill-rule="nonzero"/><path fill="#000000" d="m327.24124 236.44118q1.125 0 1.8125 0.65625q0.6875 0.640625 0.6875 1.65625q0 0.53125 -0.28125 0.984375q-0.28125 0.4375 -0.796875 0.703125q0.71875 0.265625 1.09375 0.84375q0.390625 0.5625 0.390625 1.328125q0 1.203125 -0.734375 1.90625q-0.71875 0.703125 -1.921875 0.703125q-1.0625 0 -1.765625 -0.5625l0 2.6875l-1.09375 0l0 -8.53125q0 -0.640625 0.359375 -1.1875q0.359375 -0.546875 0.953125 -0.859375q0.609375 -0.328125 1.296875 -0.328125zm1.421875 2.28125q0 -0.59375 -0.40625 -0.984375q-0.390625 -0.40625 -1.015625 -0.40625q-0.640625 0 -1.078125 0.421875q-0.4375 0.421875 -0.4375 1.046875l0 4.859375q0.25 0.296875 0.671875 0.484375q0.421875 0.1875 0.984375 0.1875q0.78125 0 1.234375 -0.46875q0.453125 -0.46875 0.453125 -1.234375q0 -0.6875 -0.421875 -1.171875q-0.40625 -0.484375 -1.046875 -0.5l-0.875 0l0 -0.890625l0.5 0q0.703125 0 1.0625 -0.34375q0.375 -0.34375 0.375 -1.0z" fill-rule="nonzero"/><path fill="#000000" d="m335.0049 240.59743l-3.734375 0l0 -0.515625l1.96875 -2.1875q0.4375 -0.5 0.609375 -0.8125q0.171875 -0.3125 0.171875 -0.640625q0 -0.453125 -0.28125 -0.734375q-0.265625 -0.28125 -0.71875 -0.28125q-0.53125 0 -0.828125 0.3125q-0.296875 0.296875 -0.296875 0.84375l-0.734375 0q0 -0.78125 0.5 -1.265625q0.515625 -0.484375 1.359375 -0.484375q0.796875 0 1.25 0.421875q0.46875 0.40625 0.46875 1.09375q0 0.84375 -1.0625 2.0l-1.53125 1.65625l2.859375 0l0 0.59375z" fill-rule="nonzero"/><path fill="#fff2cc" d="m170.34645 253.5853l59.46457 0l0 64.69293l-59.46457 0z" fill-rule="evenodd"/><path stroke="#000000" stroke-width="1.0" stroke-linejoin="round" stroke-linecap="butt" d="m170.34645 253.5853l59.46457 0l0 64.69293l-59.46457 0z" fill-rule="evenodd"/><path fill="#000000" d="m195.44592 281.7955q1.125 0 1.8125 0.65625q0.6875 0.640625 0.6875 1.65625q0 0.53125 -0.28125 0.984375q-0.28125 0.4375 -0.796875 0.703125q0.71875 0.265625 1.09375 0.84375q0.390625 0.5625 0.390625 1.328125q0 1.203125 -0.734375 1.90625q-0.71875 0.703125 -1.921875 0.703125q-1.0625 0 -1.765625 -0.5625l0 2.6875l-1.09375 0l0 -8.53125q0 -0.640625 0.359375 -1.1875q0.359375 -0.546875 0.953125 -0.859375q0.609375 -0.328125 1.296875 -0.328125zm1.421875 2.28125q0 -0.59375 -0.40625 -0.984375q-0.390625 -0.40625 -1.015625 -0.40625q-0.640625 0 -1.078125 0.421875q-0.4375 0.421875 -0.4375 1.046875l0 4.859375q0.25 0.296875 0.671875 0.484375q0.421875 0.1875 0.984375 0.1875q0.78125 0 1.234375 -0.46875q0.453125 -0.46875 0.453125 -1.234375q0 -0.6875 -0.421875 -1.171875q-0.40625 -0.484375 -1.046875 -0.5l-0.875 0l0 -0.890625l0.5 0q0.703125 0 1.0625 -0.34375q0.375 -0.34375 0.375 -1.0zm8.46875 5.609375q0.578125 0 1.015625 -0.34375q0.4375 -0.359375 0.484375 -0.890625l1.03125 0q-0.03125 0.546875 -0.390625 1.046875q-0.34375 0.484375 -0.921875 0.78125q-0.5625 0.296875 -1.21875 0.296875q-1.296875 0 -2.0625 -0.859375q-0.75 -0.875 -0.75 -2.375l0 -0.1875q0 -0.921875 0.328125 -1.640625q0.34375 -0.71875 0.96875 -1.109375q0.640625 -0.40625 1.515625 -0.40625q1.0625 0 1.765625 0.640625q0.71875 0.625 0.765625 1.65625l-1.03125 0q-0.046875 -0.625 -0.46875 -1.015625q-0.421875 -0.390625 -1.03125 -0.390625q-0.828125 0 -1.28125 0.59375q-0.453125 0.59375 -0.453125 1.71875l0 0.203125q0 1.09375 0.453125 1.6875q0.453125 0.59375 1.28125 0.59375z" fill-rule="nonzero"/><path fill="#d9d2e9" d="m289.24408 59.56168l59.46457 0l0 52.031498l-59.46457 0z" fill-rule="evenodd"/><path stroke="#000000" stroke-width="1.0" stroke-linejoin="round" stroke-linecap="butt" d="m289.24408 59.56168l59.46457 0l0 52.031498l-59.46457 0z" fill-rule="evenodd"/><path fill="#000000" d="m311.50504 88.8293l1.484375 -5.921875l1.328125 0l-2.25 7.75l-1.078125 0l-1.890625 -5.875l-1.828125 5.875l-1.0625 0l-2.25 -7.75l1.3125 0l1.53125 5.796875l1.796875 -5.796875l1.0625 0l1.84375 5.921875z" fill-rule="nonzero"/><path fill="#000000" d="m318.12808 96.157425l-0.875 0l0 -5.875l-1.78125 0.65625l0 -0.8125l2.53125 -0.9375l0.125 0l0 6.96875z" fill-rule="nonzero"/><path fill="#000000" d="m324.47098 80.094925q1.375 0 2.21875 0.78125q0.84375 0.78125 0.84375 2.03125q0 0.65625 -0.359375 1.203125q-0.34375 0.53125 -0.96875 0.859375q0.875 0.328125 1.34375 1.03125q0.46875 0.6875 0.46875 1.625q0 1.46875 -0.890625 2.328125q-0.890625 0.84375 -2.359375 0.84375q-1.296875 0 -2.15625 -0.671875l0 3.28125l-1.328125 0l0 -10.421875q0 -0.78125 0.4375 -1.453125q0.4375 -0.671875 1.171875 -1.046875q0.75 -0.390625 1.578125 -0.390625zm1.734375 2.78125q0 -0.734375 -0.484375 -1.203125q-0.484375 -0.484375 -1.25 -0.484375q-0.765625 0 -1.3125 0.515625q-0.53125 0.5 -0.546875 1.265625l0 5.921875q0.328125 0.375 0.84375 0.609375q0.515625 0.21875 1.1875 0.21875q0.953125 0 1.5 -0.5625q0.5625 -0.578125 0.5625 -1.5q0 -0.84375 -0.515625 -1.4375q-0.5 -0.59375 -1.28125 -0.609375l-1.0625 0l0 -1.09375l0.609375 0q0.859375 0 1.296875 -0.421875q0.453125 -0.421875 0.453125 -1.21875z" fill-rule="nonzero"/><path fill="#000000" d="m330.68292 81.251175l0.65625 0q0.625 0 0.984375 -0.3125q0.359375 -0.328125 0.359375 -0.875q0 -1.21875 -1.21875 -1.21875q-0.5625 0 -0.90625 0.328125q-0.34375 0.328125 -0.34375 0.859375l-0.875 0q0 -0.828125 0.59375 -1.359375q0.609375 -0.546875 1.53125 -0.546875q0.984375 0 1.546875 0.515625q0.5625 0.515625 0.5625 1.4375q0 0.453125 -0.296875 0.890625q-0.296875 0.421875 -0.796875 0.625q0.5625 0.1875 0.875 0.609375q0.3125 0.40625 0.3125 1.015625q0 0.9375 -0.609375 1.484375q-0.609375 0.546875 -1.59375 0.546875q-0.96875 0 -1.578125 -0.53125q-0.609375 -0.53125 -0.609375 -1.390625l0.875 0q0 0.546875 0.359375 0.875q0.359375 0.328125 0.96875 0.328125q0.640625 0 0.96875 -0.328125q0.34375 -0.34375 0.34375 -0.96875q0 -0.59375 -0.375 -0.921875q-0.375 -0.328125 -1.078125 -0.34375l-0.65625 0l0 -0.71875z" fill-rule="nonzero"/><path fill="#d9d2e9" d="m289.24408 111.59318l59.46457 0l0 25.291344l-59.46457 0z" fill-rule="evenodd"/><path stroke="#000000" stroke-width="1.0" stroke-linejoin="round" stroke-linecap="butt" d="m289.24408 111.59318l59.46457 0l0 25.291344l-59.46457 0z" fill-rule="evenodd"/><path fill="#000000" d="m314.2217 128.63135q0 -0.34375 0.203125 -0.578125q0.203125 -0.234375 0.609375 -0.234375q0.40625 0 0.609375 0.234375q0.21875 0.234375 0.21875 0.578125q0 0.328125 -0.21875 0.546875q-0.203125 0.21875 -0.609375 0.21875q-0.40625 0 -0.609375 -0.21875q-0.203125 -0.21875 -0.203125 -0.546875zm3.8572693 0q0 -0.34375 0.203125 -0.578125q0.203125 -0.234375 0.609375 -0.234375q0.40625 0 0.609375 0.234375q0.21875 0.234375 0.21875 0.578125q0 0.328125 -0.21875 0.546875q-0.203125 0.21875 -0.609375 0.21875q-0.40625 0 -0.609375 -0.21875q-0.203125 -0.21875 -0.203125 -0.546875zm3.8572998 0q0 -0.34375 0.203125 -0.578125q0.203125 -0.234375 0.609375 -0.234375q0.40625 0 0.609375 0.234375q0.21875 0.234375 0.21875 0.578125q0 0.328125 -0.21875 0.546875q-0.203125 0.21875 -0.609375 0.21875q-0.40625 0 -0.609375 -0.21875q-0.203125 -0.21875 -0.203125 -0.546875z" fill-rule="nonzero"/><path fill="#d9d2e9" d="m289.24408 136.88452l59.46457 0l0 52.031494l-59.46457 0z" fill-rule="evenodd"/><path stroke="#000000" stroke-width="1.0" stroke-linejoin="round" stroke-linecap="butt" d="m289.24408 136.88452l59.46457 0l0 52.031494l-59.46457 0z" fill-rule="evenodd"/><path fill="#000000" d="m313.0619 166.15215l1.484375 -5.921875l1.328125 0l-2.25 7.75l-1.078125 0l-1.890625 -5.875l-1.828125 5.875l-1.0625 0l-2.25 -7.75l1.3125 0l1.53125 5.796875l1.796875 -5.796875l1.0625 0l1.84375 5.921875z" fill-rule="nonzero"/><path fill="#000000" d="m317.8412 173.48027l-0.875 0l0 -5.15625l0.875 0l0 5.15625zm-0.953125 -6.53125q0 -0.21875 0.125 -0.359375q0.140625 -0.140625 0.390625 -0.140625q0.265625 0 0.390625 0.140625q0.140625 0.140625 0.140625 0.359375q0 0.21875 -0.140625 0.359375q-0.125 0.140625 -0.390625 0.140625q-0.25 0 -0.390625 -0.140625q-0.125 -0.140625 -0.125 -0.359375z" fill-rule="nonzero"/><path fill="#000000" d="m322.91415 157.41777q1.375 0 2.21875 0.78125q0.84375 0.78125 0.84375 2.03125q0 0.65625 -0.359375 1.203125q-0.34375 0.53125 -0.96875 0.859375q0.875 0.328125 1.34375 1.03125q0.46875 0.6875 0.46875 1.625q0 1.46875 -0.890625 2.328125q-0.890625 0.84375 -2.359375 0.84375q-1.296875 0 -2.15625 -0.671875l0 3.28125l-1.328125 0l0 -10.421875q0 -0.78125 0.4375 -1.453125q0.4375 -0.671875 1.171875 -1.046875q0.75 -0.390625 1.578125 -0.390625zm1.734375 2.78125q0 -0.734375 -0.484375 -1.203125q-0.484375 -0.484375 -1.25 -0.484375q-0.765625 0 -1.3125 0.515625q-0.53125 0.5 -0.546875 1.265625l0 5.921875q0.328125 0.375 0.84375 0.609375q0.515625 0.21875 1.1875 0.21875q0.953125 0 1.5 -0.5625q0.5625 -0.578125 0.5625 -1.5q0 -0.84375 -0.515625 -1.4375q-0.5 -0.59375 -1.28125 -0.609375l-1.0625 0l0 -1.09375l0.609375 0q0.859375 0 1.296875 -0.421875q0.453125 -0.421875 0.453125 -1.21875z" fill-rule="nonzero"/><path fill="#000000" d="m329.12607 158.57402l0.65625 0q0.625 0 0.984375 -0.3125q0.359375 -0.328125 0.359375 -0.875q0 -1.21875 -1.21875 -1.21875q-0.5625 0 -0.90625 0.328125q-0.34375 0.328125 -0.34375 0.859375l-0.875 0q0 -0.828125 0.59375 -1.359375q0.609375 -0.546875 1.53125 -0.546875q0.984375 0 1.546875 0.515625q0.5625 0.515625 0.5625 1.4375q0 0.453125 -0.296875 0.890625q-0.296875 0.421875 -0.796875 0.625q0.5625 0.1875 0.875 0.609375q0.3125 0.40625 0.3125 1.015625q0 0.9375 -0.609375 1.484375q-0.609375 0.546875 -1.59375 0.546875q-0.96875 0 -1.578125 -0.53125q-0.609375 -0.53125 -0.609375 -1.390625l0.875 0q0 0.546875 0.359375 0.875q0.359375 0.328125 0.96875 0.328125q0.640625 0 0.96875 -0.328125q0.34375 -0.34375 0.34375 -0.96875q0 -0.59375 -0.375 -0.921875q-0.375 -0.328125 -1.078125 -0.34375l-0.65625 0l0 -0.71875z" fill-rule="nonzero"/><path fill="#d9d2e9" d="m348.73752 59.56168l182.07877 0l0 52.031498l-182.07877 0z" fill-rule="evenodd"/><path stroke="#000000" stroke-width="1.0" stroke-linejoin="round" stroke-linecap="butt" d="m348.73752 59.56168l182.07877 0l0 52.031498l-182.07877 0z" fill-rule="evenodd"/><path fill="#000000" d="m435.02222 89.969925q0 -0.34375 0.203125 -0.578125q0.203125 -0.234375 0.609375 -0.234375q0.40625 0 0.609375 0.234375q0.21875 0.234375 0.21875 0.578125q0 0.328125 -0.21875 0.546875q-0.203125 0.21875 -0.609375 0.21875q-0.40625 0 -0.609375 -0.21875q-0.203125 -0.21875 -0.203125 -0.546875zm3.8572998 0q0 -0.34375 0.203125 -0.578125q0.203125 -0.234375 0.609375 -0.234375q0.40625 0 0.609375 0.234375q0.21875 0.234375 0.21875 0.578125q0 0.328125 -0.21875 0.546875q-0.203125 0.21875 -0.609375 0.21875q-0.40625 0 -0.609375 -0.21875q-0.203125 -0.21875 -0.203125 -0.546875zm3.8572693 0q0 -0.34375 0.203125 -0.578125q0.203125 -0.234375 0.609375 -0.234375q0.40625 0 0.609375 0.234375q0.21875 0.234375 0.21875 0.578125q0 0.328125 -0.21875 0.546875q-0.203125 0.21875 -0.609375 0.21875q-0.40625 0 -0.609375 -0.21875q-0.203125 -0.21875 -0.203125 -0.546875z" fill-rule="nonzero"/><path fill="#d9d2e9" d="m348.73752 111.59318l182.07877 0l0 25.291344l-182.07877 0z" fill-rule="evenodd"/><path stroke="#000000" stroke-width="1.0" stroke-linejoin="round" stroke-linecap="butt" d="m348.73752 111.59318l182.07877 0l0 25.291344l-182.07877 0z" fill-rule="evenodd"/><path fill="#000000" d="m435.02222 128.63135q0 -0.34375 0.203125 -0.578125q0.203125 -0.234375 0.609375 -0.234375q0.40625 0 0.609375 0.234375q0.21875 0.234375 0.21875 0.578125q0 0.328125 -0.21875 0.546875q-0.203125 0.21875 -0.609375 0.21875q-0.40625 0 -0.609375 -0.21875q-0.203125 -0.21875 -0.203125 -0.546875zm3.8572998 0q0 -0.34375 0.203125 -0.578125q0.203125 -0.234375 0.609375 -0.234375q0.40625 0 0.609375 0.234375q0.21875 0.234375 0.21875 0.578125q0 0.328125 -0.21875 0.546875q-0.203125 0.21875 -0.609375 0.21875q-0.40625 0 -0.609375 -0.21875q-0.203125 -0.21875 -0.203125 -0.546875zm3.8572693 0q0 -0.34375 0.203125 -0.578125q0.203125 -0.234375 0.609375 -0.234375q0.40625 0 0.609375 0.234375q0.21875 0.234375 0.21875 0.578125q0 0.328125 -0.21875 0.546875q-0.203125 0.21875 -0.609375 0.21875q-0.40625 0 -0.609375 -0.21875q-0.203125 -0.21875 -0.203125 -0.546875z" fill-rule="nonzero"/><path fill="#d9d2e9" d="m348.73752 136.88452l182.07877 0l0 52.031494l-182.07877 0z" fill-rule="evenodd"/><path stroke="#000000" stroke-width="1.0" stroke-linejoin="round" stroke-linecap="butt" d="m348.73752 136.88452l182.07877 0l0 52.031494l-182.07877 0z" fill-rule="evenodd"/><path fill="#000000" d="m435.02222 167.29277q0 -0.34375 0.203125 -0.578125q0.203125 -0.234375 0.609375 -0.234375q0.40625 0 0.609375 0.234375q0.21875 0.234375 0.21875 0.578125q0 0.328125 -0.21875 0.546875q-0.203125 0.21875 -0.609375 0.21875q-0.40625 0 -0.609375 -0.21875q-0.203125 -0.21875 -0.203125 -0.546875zm3.8572998 0q0 -0.34375 0.203125 -0.578125q0.203125 -0.234375 0.609375 -0.234375q0.40625 0 0.609375 0.234375q0.21875 0.234375 0.21875 0.578125q0 0.328125 -0.21875 0.546875q-0.203125 0.21875 -0.609375 0.21875q-0.40625 0 -0.609375 -0.21875q-0.203125 -0.21875 -0.203125 -0.546875zm3.8572693 0q0 -0.34375 0.203125 -0.578125q0.203125 -0.234375 0.609375 -0.234375q0.40625 0 0.609375 0.234375q0.21875 0.234375 0.21875 0.578125q0 0.328125 -0.21875 0.546875q-0.203125 0.21875 -0.609375 0.21875q-0.40625 0 -0.609375 -0.21875q-0.203125 -0.21875 -0.203125 -0.546875z" fill-rule="nonzero"/><path fill="#d9d2e9" d="m348.7368 188.90027l59.46457 0l0 26.015747l-59.46457 0z" fill-rule="evenodd"/><path stroke="#000000" stroke-width="1.0" stroke-linejoin="round" stroke-linecap="butt" d="m348.7368 188.90027l59.46457 0l0 26.015747l-59.46457 0z" fill-rule="evenodd"/><path fill="#000000" d="m364.42218 197.77188q1.125 0 1.8125 0.65625q0.6875 0.640625 0.6875 1.65625q0 0.53125 -0.28125 0.984375q-0.28125 0.4375 -0.796875 0.703125q0.71875 0.265625 1.09375 0.84375q0.390625 0.5625 0.390625 1.328125q0 1.203125 -0.734375 1.90625q-0.71875 0.703125 -1.921875 0.703125q-1.0625 0 -1.765625 -0.5625l0 2.6875l-1.09375 0l0 -8.53125q0 -0.640625 0.359375 -1.1875q0.359375 -0.546875 0.953125 -0.859375q0.609375 -0.328125 1.296875 -0.328125zm1.421875 2.28125q0 -0.59375 -0.40625 -0.984375q-0.390625 -0.40625 -1.015625 -0.40625q-0.640625 0 -1.078125 0.421875q-0.4375 0.421875 -0.4375 1.046875l0 4.859375q0.25 0.296875 0.671875 0.484375q0.421875 0.1875 0.984375 0.1875q0.78125 0 1.234375 -0.46875q0.453125 -0.46875 0.453125 -1.234375q0 -0.6875 -0.421875 -1.171875q-0.40625 -0.484375 -1.046875 -0.5l-0.875 0l0 -0.890625l0.5 0q0.703125 0 1.0625 -0.34375q0.375 -0.34375 0.375 -1.0zm11.546875 4.875l1.21875 -4.84375l1.078125 0l-1.84375 6.34375l-0.875 0l-1.546875 -4.8125l-1.5 4.8125l-0.875 0l-1.84375 -6.34375l1.078125 0l1.25 4.75l1.484375 -4.75l0.859375 0l1.515625 4.84375z" fill-rule="nonzero"/><path fill="#000000" d="m382.81476 210.92813l-0.71875 0l0 -4.8125l-1.453125 0.53125l0 -0.65625l2.0625 -0.78125l0.109375 0l0 5.71875z" fill-rule="nonzero"/><path fill="#000000" d="m388.01007 197.77188q1.125 0 1.8125 0.65625q0.6875 0.640625 0.6875 1.65625q0 0.53125 -0.28125 0.984375q-0.28125 0.4375 -0.796875 0.703125q0.71875 0.265625 1.09375 0.84375q0.390625 0.5625 0.390625 1.328125q0 1.203125 -0.734375 1.90625q-0.71875 0.703125 -1.921875 0.703125q-1.0625 0 -1.765625 -0.5625l0 2.6875l-1.09375 0l0 -8.53125q0 -0.640625 0.359375 -1.1875q0.359375 -0.546875 0.953125 -0.859375q0.609375 -0.328125 1.296875 -0.328125zm1.421875 2.28125q0 -0.59375 -0.40625 -0.984375q-0.390625 -0.40625 -1.015625 -0.40625q-0.640625 0 -1.078125 0.421875q-0.4375 0.421875 -0.4375 1.046875l0 4.859375q0.25 0.296875 0.671875 0.484375q0.421875 0.1875 0.984375 0.1875q0.78125 0 1.234375 -0.46875q0.453125 -0.46875 0.453125 -1.234375q0 -0.6875 -0.421875 -1.171875q-0.40625 -0.484375 -1.046875 -0.5l-0.875 0l0 -0.890625l0.5 0q0.703125 0 1.0625 -0.34375q0.375 -0.34375 0.375 -1.0z" fill-rule="nonzero"/><path fill="#000000" d="m393.10187 198.725l0.53125 0q0.515625 0 0.8125 -0.265625q0.296875 -0.265625 0.296875 -0.703125q0 -1.0 -1.0 -1.0q-0.46875 0 -0.75 0.265625q-0.28125 0.265625 -0.28125 0.703125l-0.71875 0q0 -0.671875 0.484375 -1.109375q0.5 -0.453125 1.265625 -0.453125q0.796875 0 1.25 0.421875q0.46875 0.421875 0.46875 1.1875q0 0.375 -0.25 0.71875q-0.234375 0.34375 -0.640625 0.515625q0.46875 0.15625 0.71875 0.5q0.25 0.34375 0.25 0.828125q0 0.765625 -0.5 1.21875q-0.5 0.453125 -1.296875 0.453125q-0.796875 0 -1.296875 -0.4375q-0.5 -0.4375 -0.5 -1.140625l0.71875 0q0 0.453125 0.296875 0.71875q0.296875 0.265625 0.78125 0.265625q0.53125 0 0.796875 -0.265625q0.28125 -0.28125 0.28125 -0.796875q0 -0.484375 -0.3125 -0.75q-0.296875 -0.265625 -0.875 -0.28125l-0.53125 0l0 -0.59375z" fill-rule="nonzero"/><path fill="#d9d2e9" d="m348.7368 214.91602l59.46457 0l0 12.629913l-59.46457 0z" fill-rule="evenodd"/><path stroke="#000000" stroke-width="1.0" stroke-linejoin="round" stroke-linecap="butt" d="m348.7368 214.91602l59.46457 0l0 12.629913l-59.46457 0z" fill-rule="evenodd"/><path fill="#000000" d="m374.5755 225.18848q0 -0.28125 0.15625 -0.46875q0.171875 -0.1875 0.5 -0.1875q0.34375 0 0.515625 0.1875q0.171875 0.1875 0.171875 0.46875q0 0.265625 -0.171875 0.453125q-0.171875 0.171875 -0.515625 0.171875q-0.328125 0 -0.5 -0.171875q-0.15625 -0.1875 -0.15625 -0.453125zm3.1582031 0q0 -0.28125 0.15625 -0.46875q0.171875 -0.1875 0.5 -0.1875q0.34375 0 0.515625 0.1875q0.171875 0.1875 0.171875 0.46875q0 0.265625 -0.171875 0.453125q-0.171875 0.171875 -0.515625 0.171875q-0.328125 0 -0.5 -0.171875q-0.15625 -0.1875 -0.15625 -0.453125zm3.1582031 0q0 -0.28125 0.15625 -0.46875q0.171875 -0.1875 0.5 -0.1875q0.34375 0 0.515625 0.1875q0.171875 0.1875 0.171875 0.46875q0 0.265625 -0.171875 0.453125q-0.171875 0.171875 -0.515625 0.171875q-0.328125 0 -0.5 -0.171875q-0.15625 -0.1875 -0.15625 -0.453125z" fill-rule="nonzero"/><path fill="#d9d2e9" d="m348.7368 227.56168l59.46457 0l0 26.015747l-59.46457 0z" fill-rule="evenodd"/><path stroke="#000000" stroke-width="1.0" stroke-linejoin="round" stroke-linecap="butt" d="m348.7368 227.56168l59.46457 0l0 26.015747l-59.46457 0z" fill-rule="evenodd"/><path fill="#000000" d="m365.69757 236.4333q1.125 0 1.8125 0.65625q0.6875 0.640625 0.6875 1.65625q0 0.53125 -0.28125 0.984375q-0.28125 0.4375 -0.796875 0.703125q0.71875 0.265625 1.09375 0.84375q0.390625 0.5625 0.390625 1.328125q0 1.203125 -0.734375 1.90625q-0.71875 0.703125 -1.921875 0.703125q-1.0625 0 -1.765625 -0.5625l0 2.6875l-1.09375 0l0 -8.53125q0 -0.640625 0.359375 -1.1875q0.359375 -0.546875 0.953125 -0.859375q0.609375 -0.328125 1.296875 -0.328125zm1.421875 2.28125q0 -0.59375 -0.40625 -0.984375q-0.390625 -0.40625 -1.015625 -0.40625q-0.640625 0 -1.078125 0.421875q-0.4375 0.421875 -0.4375 1.046875l0 4.859375q0.25 0.296875 0.671875 0.484375q0.421875 0.1875 0.984375 0.1875q0.78125 0 1.234375 -0.46875q0.453125 -0.46875 0.453125 -1.234375q0 -0.6875 -0.421875 -1.171875q-0.40625 -0.484375 -1.046875 -0.5l-0.875 0l0 -0.890625l0.5 0q0.703125 0 1.0625 -0.34375q0.375 -0.34375 0.375 -1.0zm11.546875 4.875l1.21875 -4.84375l1.078125 0l-1.84375 6.34375l-0.875 0l-1.546875 -4.8125l-1.5 4.8125l-0.875 0l-1.84375 -6.34375l1.078125 0l1.25 4.75l1.484375 -4.75l0.859375 0l1.515625 4.84375z" fill-rule="nonzero"/><path fill="#000000" d="m382.57452 249.58955l-0.71875 0l0 -4.234375l0.71875 0l0 4.234375zm-0.78125 -5.34375q0 -0.1875 0.109375 -0.296875q0.109375 -0.125 0.3125 -0.125q0.21875 0 0.328125 0.125q0.109375 0.109375 0.109375 0.296875q0 0.171875 -0.109375 0.296875q-0.109375 0.109375 -0.328125 0.109375q-0.203125 0 -0.3125 -0.109375q-0.109375 -0.125 -0.109375 -0.296875z" fill-rule="nonzero"/><path fill="#000000" d="m386.73468 236.4333q1.125 0 1.8125 0.65625q0.6875 0.640625 0.6875 1.65625q0 0.53125 -0.28125 0.984375q-0.28125 0.4375 -0.796875 0.703125q0.71875 0.265625 1.09375 0.84375q0.390625 0.5625 0.390625 1.328125q0 1.203125 -0.734375 1.90625q-0.71875 0.703125 -1.921875 0.703125q-1.0625 0 -1.765625 -0.5625l0 2.6875l-1.09375 0l0 -8.53125q0 -0.640625 0.359375 -1.1875q0.359375 -0.546875 0.953125 -0.859375q0.609375 -0.328125 1.296875 -0.328125zm1.421875 2.28125q0 -0.59375 -0.40625 -0.984375q-0.390625 -0.40625 -1.015625 -0.40625q-0.640625 0 -1.078125 0.421875q-0.4375 0.421875 -0.4375 1.046875l0 4.859375q0.25 0.296875 0.671875 0.484375q0.421875 0.1875 0.984375 0.1875q0.78125 0 1.234375 -0.46875q0.453125 -0.46875 0.453125 -1.234375q0 -0.6875 -0.421875 -1.171875q-0.40625 -0.484375 -1.046875 -0.5l-0.875 0l0 -0.890625l0.5 0q0.703125 0 1.0625 -0.34375q0.375 -0.34375 0.375 -1.0z" fill-rule="nonzero"/><path fill="#000000" d="m391.82648 237.38643l0.53125 0q0.515625 0 0.8125 -0.265625q0.296875 -0.265625 0.296875 -0.703125q0 -1.0 -1.0 -1.0q-0.46875 0 -0.75 0.265625q-0.28125 0.265625 -0.28125 0.703125l-0.71875 0q0 -0.671875 0.484375 -1.109375q0.5 -0.453125 1.265625 -0.453125q0.796875 0 1.25 0.421875q0.46875 0.421875 0.46875 1.1875q0 0.375 -0.25 0.71875q-0.234375 0.34375 -0.640625 0.515625q0.46875 0.15625 0.71875 0.5q0.25 0.34375 0.25 0.828125q0 0.765625 -0.5 1.21875q-0.5 0.453125 -1.296875 0.453125q-0.796875 0 -1.296875 -0.4375q-0.5 -0.4375 -0.5 -1.140625l0.71875 0q0 0.453125 0.296875 0.71875q0.296875 0.265625 0.78125 0.265625q0.53125 0 0.796875 -0.265625q0.28125 -0.28125 0.28125 -0.796875q0 -0.484375 -0.3125 -0.75q-0.296875 -0.265625 -0.875 -0.28125l-0.53125 0l0 -0.59375z" fill-rule="nonzero"/><path fill="#f3f3f3" d="m229.81639 253.5853l301.00787 0l0 64.69293l-301.00787 0z" fill-rule="evenodd"/><path stroke="#000000" stroke-width="1.0" stroke-linejoin="round" stroke-linecap="butt" d="m229.81639 253.5853l301.00787 0l0 64.69293l-301.00787 0z" fill-rule="evenodd"/><path fill="#000000" d="m332.62796 285.70175q-0.34375 -0.0625 -0.5625 -0.0625q-0.875 -0.015625 -1.390625 0.65625l-0.734375 4.15625l-1.65625 0l1.109375 -6.34375l1.546875 0l-0.15625 0.765625q0.609375 -0.890625 1.484375 -0.890625q0.25 0 0.578125 0.078125l-0.21875 1.640625zm2.8671875 4.875q-0.828125 -0.015625 -1.46875 -0.40625q-0.640625 -0.40625 -0.96875 -1.109375q-0.3125 -0.703125 -0.234375 -1.546875l0.015625 -0.234375q0.078125 -0.921875 0.53125 -1.6875q0.453125 -0.78125 1.15625 -1.203125q0.71875 -0.421875 1.578125 -0.390625q1.21875 0.015625 1.84375 0.890625q0.640625 0.875 0.484375 2.21875l-0.09375 0.71875l-3.875 0q-0.03125 0.625 0.28125 1.0q0.328125 0.359375 0.890625 0.375q0.90625 0.015625 1.578125 -0.703125l0.765625 0.9375q-0.359375 0.546875 -1.046875 0.84375q-0.671875 0.296875 -1.4375 0.296875zm0.53125 -5.21875q-0.46875 -0.015625 -0.828125 0.296875q-0.34375 0.296875 -0.625 1.03125l2.28125 0l0.03125 -0.15625q0.03125 -0.234375 0 -0.4375q-0.0625 -0.34375 -0.296875 -0.53125q-0.21875 -0.203125 -0.5625 -0.203125zm8.8984375 1.9375q-0.125 1.0 -0.53125 1.78125q-0.390625 0.765625 -0.984375 1.140625q-0.59375 0.375 -1.3125 0.359375q-0.921875 -0.03125 -1.453125 -0.6875l-0.578125 3.0l-1.65625 0l1.515625 -8.78125l1.53125 0l-0.109375 0.640625q0.6875 -0.78125 1.609375 -0.75q0.9375 0.015625 1.453125 0.671875q0.515625 0.65625 0.546875 1.765625q0.015625 0.375 -0.03125 0.859375zm-1.640625 -0.125l0.03125 -0.5625q0.015625 -0.5625 -0.203125 -0.890625q-0.21875 -0.34375 -0.640625 -0.359375q-0.71875 -0.015625 -1.1875 0.609375l-0.484375 2.625q0.21875 0.59375 0.9375 0.609375q0.59375 0.015625 0.984375 -0.453125q0.40625 -0.484375 0.5625 -1.578125zm5.171875 3.40625q-0.828125 -0.015625 -1.46875 -0.40625q-0.640625 -0.40625 -0.96875 -1.109375q-0.3125 -0.703125 -0.234375 -1.546875l0.015625 -0.234375q0.078125 -0.921875 0.53125 -1.6875q0.453125 -0.78125 1.15625 -1.203125q0.71875 -0.421875 1.578125 -0.390625q1.21875 0.015625 1.84375 0.890625q0.640625 0.875 0.484375 2.21875l-0.09375 0.71875l-3.875 0q-0.03125 0.625 0.28125 1.0q0.328125 0.359375 0.890625 0.375q0.90625 0.015625 1.578125 -0.703125l0.765625 0.9375q-0.359375 0.546875 -1.046875 0.84375q-0.671875 0.296875 -1.4375 0.296875zm0.53125 -5.21875q-0.46875 -0.015625 -0.828125 0.296875q-0.34375 0.296875 -0.625 1.03125l2.28125 0l0.03125 -0.15625q0.03125 -0.234375 0 -0.4375q-0.0625 -0.34375 -0.296875 -0.53125q-0.21875 -0.203125 -0.5625 -0.203125zm6.4765625 5.09375q-0.078125 -0.234375 -0.0625 -0.578125q-0.71875 0.71875 -1.625 0.703125q-0.828125 -0.015625 -1.375 -0.546875q-0.546875 -0.53125 -0.515625 -1.3125q0.046875 -1.03125 0.875 -1.578125q0.828125 -0.5625 2.21875 -0.5625l0.78125 0l0.078125 -0.375q0.03125 -0.1875 0.015625 -0.375q-0.03125 -0.265625 -0.21875 -0.421875q-0.171875 -0.15625 -0.453125 -0.15625q-0.390625 -0.015625 -0.671875 0.1875q-0.265625 0.203125 -0.34375 0.578125l-1.65625 0q0.046875 -0.90625 0.84375 -1.46875q0.796875 -0.5625 1.953125 -0.546875q1.078125 0.015625 1.6875 0.640625q0.609375 0.609375 0.515625 1.59375l-0.484375 3.03125l-0.03125 0.375q-0.015625 0.40625 0.09375 0.703125l0 0.109375l-1.625 0zm-1.265625 -1.171875q0.703125 0.03125 1.234375 -0.609375l0.21875 -1.109375l-0.578125 0q-0.921875 0.03125 -1.328125 0.5625q-0.140625 0.1875 -0.171875 0.46875q-0.046875 0.3125 0.125 0.5q0.1875 0.1875 0.5 0.1875zm7.251953 -6.734375l-0.28125 1.5625l1.0625 0l-0.21875 1.25l-1.0625 0l-0.53125 3.171875q-0.046875 0.296875 0.03125 0.453125q0.09375 0.15625 0.40625 0.171875q0.09375 0 0.5 -0.03125l-0.109375 1.296875q-0.4375 0.15625 -0.953125 0.140625q-0.8125 -0.015625 -1.21875 -0.515625q-0.390625 -0.5 -0.3125 -1.34375l0.53125 -3.34375l-0.890625 0l0.21875 -1.25l0.890625 0l0.28125 -1.5625l1.65625 0zm7.9335938 3.15625q-0.34375 -0.0625 -0.5625 -0.0625q-0.875 -0.015625 -1.390625 0.65625l-0.734375 4.15625l-1.65625 0l1.109375 -6.34375l1.546875 0l-0.15625 0.765625q0.609375 -0.890625 1.484375 -0.890625q0.25 0 0.578125 0.078125l-0.21875 1.640625zm2.8671875 4.875q-0.828125 -0.015625 -1.46875 -0.40625q-0.640625 -0.40625 -0.96875 -1.109375q-0.3125 -0.703125 -0.234375 -1.546875l0.015625 -0.234375q0.078125 -0.921875 0.53125 -1.6875q0.453125 -0.78125 1.15625 -1.203125q0.71875 -0.421875 1.578125 -0.390625q1.21875 0.015625 1.84375 0.890625q0.640625 0.875 0.484375 2.21875l-0.09375 0.71875l-3.875 0q-0.03125 0.625 0.28125 1.0q0.328125 0.359375 0.890625 0.375q0.90625 0.015625 1.578125 -0.703125l0.765625 0.9375q-0.359375 0.546875 -1.046875 0.84375q-0.671875 0.296875 -1.4375 0.296875zm0.53125 -5.21875q-0.46875 -0.015625 -0.828125 0.296875q-0.34375 0.296875 -0.625 1.03125l2.28125 0l0.03125 -0.15625q0.03125 -0.234375 0 -0.4375q-0.0625 -0.34375 -0.296875 -0.53125q-0.21875 -0.203125 -0.5625 -0.203125zm5.5859375 3.84375q0.453125 0.015625 0.75 -0.234375q0.3125 -0.265625 0.40625 -0.703125l1.5625 0q-0.046875 0.65625 -0.421875 1.203125q-0.375 0.53125 -1.015625 0.828125q-0.625 0.296875 -1.328125 0.28125q-1.15625 -0.015625 -1.828125 -0.796875q-0.671875 -0.78125 -0.640625 -2.078125l0.015625 -0.328125l0 -0.0625q0.15625 -1.546875 1.046875 -2.453125q0.890625 -0.90625 2.1875 -0.859375q1.0625 0.015625 1.6875 0.703125q0.640625 0.671875 0.625 1.78125l-1.53125 0q0 -0.515625 -0.234375 -0.796875q-0.21875 -0.296875 -0.65625 -0.328125q-1.1875 -0.03125 -1.4375 1.734375q-0.09375 0.640625 -0.0625 1.078125q0.046875 1.015625 0.875 1.03125zm7.2695312 0.59375q-0.703125 0.796875 -1.734375 0.78125q-0.921875 -0.015625 -1.390625 -0.65625q-0.46875 -0.65625 -0.359375 -1.703125l0.6875 -4.109375l1.65625 0l-0.703125 4.125q-0.03125 0.1875 0 0.359375q0.046875 0.59375 0.640625 0.609375q0.765625 0.015625 1.28125 -0.59375l0.78125 -4.5l1.671875 0l-1.109375 6.34375l-1.53125 0l0.109375 -0.65625zm6.9960938 -4.09375q-0.34375 -0.0625 -0.5625 -0.0625q-0.875 -0.015625 -1.390625 0.65625l-0.734375 4.15625l-1.65625 0l1.109375 -6.34375l1.546875 0l-0.15625 0.765625q0.609375 -0.890625 1.484375 -0.890625q0.25 0 0.578125 0.078125l-0.21875 1.640625zm3.6347656 2.96875q0.09375 -0.46875 -0.640625 -0.6875l-0.53125 -0.140625q-1.90625 -0.515625 -1.84375 -1.828125q0.03125 -0.90625 0.796875 -1.46875q0.765625 -0.5625 1.84375 -0.546875q1.0625 0 1.71875 0.5625q0.671875 0.5625 0.6875 1.484375l-1.640625 0q0 -0.828125 -0.8125 -0.828125q-0.390625 0 -0.671875 0.1875q-0.28125 0.1875 -0.34375 0.515625q-0.09375 0.46875 0.703125 0.671875l0.234375 0.046875q0.8125 0.203125 1.234375 0.453125q0.4375 0.234375 0.65625 0.609375q0.234375 0.375 0.21875 0.890625q-0.015625 0.59375 -0.390625 1.046875q-0.375 0.453125 -1.03125 0.703125q-0.640625 0.25 -1.34375 0.234375q-1.0625 -0.015625 -1.765625 -0.609375q-0.703125 -0.59375 -0.71875 -1.546875l1.5625 0.015625q0.03125 0.90625 0.96875 0.921875q0.46875 0 0.765625 -0.1875q0.296875 -0.1875 0.34375 -0.5zm4.1191406 1.78125l-1.671875 0l1.109375 -6.34375l1.65625 0l-1.09375 6.34375zm-0.375 -7.953125q0 -0.390625 0.265625 -0.640625q0.265625 -0.265625 0.640625 -0.265625q0.375 -0.015625 0.65625 0.234375q0.28125 0.234375 0.28125 0.609375q0.015625 0.375 -0.234375 0.640625q-0.25 0.265625 -0.671875 0.28125q-0.359375 0.015625 -0.640625 -0.21875q-0.28125 -0.234375 -0.296875 -0.640625zm4.4433594 5.859375l1.796875 -4.25l1.78125 0l-3.0625 6.34375l-1.578125 0l-1.078125 -6.34375l1.671875 0l0.46875 4.25zm6.2089844 2.21875q-0.828125 -0.015625 -1.46875 -0.40625q-0.640625 -0.40625 -0.96875 -1.109375q-0.3125 -0.703125 -0.234375 -1.546875l0.015625 -0.234375q0.078125 -0.921875 0.53125 -1.6875q0.453125 -0.78125 1.15625 -1.203125q0.71875 -0.421875 1.578125 -0.390625q1.21875 0.015625 1.84375 0.890625q0.640625 0.875 0.484375 2.21875l-0.09375 0.71875l-3.875 0q-0.03125 0.625 0.28125 1.0q0.328125 0.359375 0.890625 0.375q0.90625 0.015625 1.578125 -0.703125l0.765625 0.9375q-0.359375 0.546875 -1.046875 0.84375q-0.671875 0.296875 -1.4375 0.296875zm0.53125 -5.21875q-0.46875 -0.015625 -0.828125 0.296875q-0.34375 0.296875 -0.625 1.03125l2.28125 0l0.03125 -0.15625q0.03125 -0.234375 0 -0.4375q-0.0625 -0.34375 -0.296875 -0.53125q-0.21875 -0.203125 -0.5625 -0.203125zm4.5546875 5.09375l-1.671875 0l1.578125 -9.0l1.65625 0l-1.5625 9.0zm4.0839844 -2.421875l1.8125 -3.921875l1.84375 0l-3.703125 7.296875q-0.40625 0.84375 -0.953125 1.234375q-0.53125 0.390625 -1.234375 0.390625q-0.265625 0 -0.796875 -0.125l0.125 -1.28125l0.234375 0q0.8125 0.03125 1.1875 -0.578125l0.359375 -0.6875l-1.03125 -6.25l1.703125 0l0.453125 3.921875zm3.390625 0.671875q0.390625 -0.015625 0.671875 0.25q0.28125 0.25 0.28125 0.640625q0.015625 0.390625 -0.265625 0.671875q-0.265625 0.265625 -0.65625 0.265625q-0.390625 0 -0.671875 -0.234375q-0.265625 -0.25 -0.28125 -0.640625q0 -0.40625 0.265625 -0.671875q0.265625 -0.265625 0.65625 -0.28125zm3.4394531 0q0.390625 -0.015625 0.671875 0.25q0.28125 0.25 0.28125 0.640625q0.015625 0.390625 -0.265625 0.671875q-0.265625 0.265625 -0.65625 0.265625q-0.390625 0 -0.671875 -0.234375q-0.265625 -0.25 -0.28125 -0.640625q0 -0.40625 0.265625 -0.671875q0.265625 -0.265625 0.65625 -0.28125zm3.4394531 0q0.390625 -0.015625 0.671875 0.25q0.28125 0.25 0.28125 0.640625q0.015625 0.390625 -0.265625 0.671875q-0.265625 0.265625 -0.65625 0.265625q-0.390625 0 -0.671875 -0.234375q-0.265625 -0.25 -0.28125 -0.640625q0 -0.40625 0.265625 -0.671875q0.265625 -0.265625 0.65625 -0.28125z" fill-rule="nonzero"/><path fill="#d9d2e9" d="m408.13992 188.90027l122.677155 0l0 26.015747l-122.677155 0z" fill-rule="evenodd"/><path stroke="#000000" stroke-width="1.0" stroke-linejoin="round" stroke-linecap="butt" d="m408.13992 188.90027l122.677155 0l0 26.015747l-122.677155 0z" fill-rule="evenodd"/><path fill="#000000" d="m465.58496 205.86563q0 -0.28125 0.15625 -0.46875q0.171875 -0.1875 0.5 -0.1875q0.34375 0 0.515625 0.1875q0.171875 0.1875 0.171875 0.46875q0 0.265625 -0.171875 0.453125q-0.171875 0.171875 -0.515625 0.171875q-0.328125 0 -0.5 -0.171875q-0.15625 -0.1875 -0.15625 -0.453125zm3.1582031 0q0 -0.28125 0.15625 -0.46875q0.171875 -0.1875 0.5 -0.1875q0.34375 0 0.515625 0.1875q0.171875 0.1875 0.171875 0.46875q0 0.265625 -0.171875 0.453125q-0.171875 0.171875 -0.515625 0.171875q-0.328125 0 -0.5 -0.171875q-0.15625 -0.1875 -0.15625 -0.453125zm3.1582031 0q0 -0.28125 0.15625 -0.46875q0.171875 -0.1875 0.5 -0.1875q0.34375 0 0.515625 0.1875q0.171875 0.1875 0.171875 0.46875q0 0.265625 -0.171875 0.453125q-0.171875 0.171875 -0.515625 0.171875q-0.328125 0 -0.5 -0.171875q-0.15625 -0.1875 -0.15625 -0.453125z" fill-rule="nonzero"/><path fill="#d9d2e9" d="m408.13992 214.91602l122.677155 0l0 12.629913l-122.677155 0z" fill-rule="evenodd"/><path stroke="#000000" stroke-width="1.0" stroke-linejoin="round" stroke-linecap="butt" d="m408.13992 214.91602l122.677155 0l0 12.629913l-122.677155 0z" fill-rule="evenodd"/><path fill="#000000" d="m465.58496 225.18848q0 -0.28125 0.15625 -0.46875q0.171875 -0.1875 0.5 -0.1875q0.34375 0 0.515625 0.1875q0.171875 0.1875 0.171875 0.46875q0 0.265625 -0.171875 0.453125q-0.171875 0.171875 -0.515625 0.171875q-0.328125 0 -0.5 -0.171875q-0.15625 -0.1875 -0.15625 -0.453125zm3.1582031 0q0 -0.28125 0.15625 -0.46875q0.171875 -0.1875 0.5 -0.1875q0.34375 0 0.515625 0.1875q0.171875 0.1875 0.171875 0.46875q0 0.265625 -0.171875 0.453125q-0.171875 0.171875 -0.515625 0.171875q-0.328125 0 -0.5 -0.171875q-0.15625 -0.1875 -0.15625 -0.453125zm3.1582031 0q0 -0.28125 0.15625 -0.46875q0.171875 -0.1875 0.5 -0.1875q0.34375 0 0.515625 0.1875q0.171875 0.1875 0.171875 0.46875q0 0.265625 -0.171875 0.453125q-0.171875 0.171875 -0.515625 0.171875q-0.328125 0 -0.5 -0.171875q-0.15625 -0.1875 -0.15625 -0.453125z" fill-rule="nonzero"/><path fill="#d9d2e9" d="m408.13992 227.56168l122.677155 0l0 26.015747l-122.677155 0z" fill-rule="evenodd"/><path stroke="#000000" stroke-width="1.0" stroke-linejoin="round" stroke-linecap="butt" d="m408.13992 227.56168l122.677155 0l0 26.015747l-122.677155 0z" fill-rule="evenodd"/><path fill="#000000" d="m465.58496 244.52705q0 -0.28125 0.15625 -0.46875q0.171875 -0.1875 0.5 -0.1875q0.34375 0 0.515625 0.1875q0.171875 0.1875 0.171875 0.46875q0 0.265625 -0.171875 0.453125q-0.171875 0.171875 -0.515625 0.171875q-0.328125 0 -0.5 -0.171875q-0.15625 -0.1875 -0.15625 -0.453125zm3.1582031 0q0 -0.28125 0.15625 -0.46875q0.171875 -0.1875 0.5 -0.1875q0.34375 0 0.515625 0.1875q0.171875 0.1875 0.171875 0.46875q0 0.265625 -0.171875 0.453125q-0.171875 0.171875 -0.515625 0.171875q-0.328125 0 -0.5 -0.171875q-0.15625 -0.1875 -0.15625 -0.453125zm3.1582031 0q0 -0.28125 0.15625 -0.46875q0.171875 -0.1875 0.5 -0.1875q0.34375 0 0.515625 0.1875q0.171875 0.1875 0.171875 0.46875q0 0.265625 -0.171875 0.453125q-0.171875 0.171875 -0.515625 0.171875q-0.328125 0 -0.5 -0.171875q-0.15625 -0.1875 -0.15625 -0.453125z" fill-rule="nonzero"/><path fill="#000000" fill-opacity="0.0" d="m170.66142 188.91602l360.4724 0l0 129.35434l-360.4724 0z" fill-rule="evenodd"/><path stroke="#ff0000" stroke-width="4.0" stroke-linejoin="round" stroke-linecap="butt" d="m170.66142 188.91602l360.4724 0l0 129.35434l-360.4724 0z" fill-rule="evenodd"/><path fill="#000000" fill-opacity="0.0" d="m229.81627 253.60104l301.00787 0l0 64.69293l-301.00787 0z" fill-rule="evenodd"/><path stroke="#ff0000" stroke-width="4.0" stroke-linejoin="round" stroke-linecap="butt" d="m229.81627 253.60104l301.00787 0l0 64.69293l-301.00787 0z" fill-rule="evenodd"/><path fill="#000000" fill-opacity="0.0" d="m109.00787 60.7979l419.937 0l0 260.34644l-419.937 0z" fill-rule="evenodd"/><path stroke="#ff0000" stroke-width="4.0" stroke-linejoin="round" stroke-linecap="butt" d="m109.00787 60.7979l419.937 0l0 260.34644l-419.937 0z" fill-rule="evenodd"/><path fill="#000000" fill-opacity="0.0" d="m81.979004 60.181103l0.40944672 51.33858" fill-rule="evenodd"/><path stroke="#000000" stroke-width="1.0" stroke-linejoin="round" stroke-linecap="butt" d="m82.00633 63.608078l0.3547821 44.484627" fill-rule="evenodd"/><path fill="#000000" stroke="#000000" stroke-width="1.0" stroke-linecap="butt" d="m82.00633 63.60808l1.133522 1.1155739l-1.1491928 -3.080696l-1.0999069 3.0986404z" fill-rule="evenodd"/><path fill="#000000" stroke="#000000" stroke-width="1.0" stroke-linecap="butt" d="m82.36112 108.092705l-1.133522 -1.1155777l1.1491928 3.0807037l1.0999069 -3.0986404z" fill-rule="evenodd"/><path fill="#000000" fill-opacity="0.0" d="m94.396324 61.83727l0.40944672 258.2677" fill-rule="evenodd"/><path stroke="#000000" stroke-width="1.0" stroke-linejoin="round" stroke-linecap="butt" d="m94.396324 61.83727l0.40944672 258.2677" fill-rule="evenodd"/><path fill="#000000" fill-opacity="0.0" d="m81.979004 137.23097l0.40944672 51.338577" fill-rule="evenodd"/><path stroke="#000000" stroke-width="1.0" stroke-linejoin="round" stroke-linecap="butt" d="m82.00633 140.65796l0.3547821 44.48462" fill-rule="evenodd"/><path fill="#000000" stroke="#000000" stroke-width="1.0" stroke-linecap="butt" d="m82.00633 140.65794l1.133522 1.1155853l-1.1491928 -3.0807037l-1.0999069 3.0986328z" fill-rule="evenodd"/><path fill="#000000" stroke="#000000" stroke-width="1.0" stroke-linecap="butt" d="m82.36112 185.14258l-1.133522 -1.1155853l1.1491928 3.0807037l1.0999069 -3.0986328z" fill-rule="evenodd"/><path fill="#000000" fill-opacity="0.0" d="m81.979004 186.82152l0.40944672 51.338593" fill-rule="evenodd"/><path stroke="#000000" stroke-width="1.0" stroke-linejoin="round" stroke-linecap="butt" d="m82.00633 190.2485l0.3547821 44.48462" fill-rule="evenodd"/><path fill="#000000" stroke="#000000" stroke-width="1.0" stroke-linecap="butt" d="m82.00633 190.2485l1.133522 1.1155701l-1.1491928 -3.0807037l-1.0999069 3.098648z" fill-rule="evenodd"/><path fill="#000000" stroke="#000000" stroke-width="1.0" stroke-linecap="butt" d="m82.36112 234.73312l-1.133522 -1.1155701l1.1491928 3.0806885l1.0999069 -3.0986328z" fill-rule="evenodd"/><path fill="#000000" fill-opacity="0.0" d="m81.979004 109.77165l0.37795258 28.881897" fill-rule="evenodd"/><path stroke="#000000" stroke-width="1.0" stroke-linejoin="round" stroke-linecap="butt" d="m82.02385 113.19845l0.2882614 22.028297" fill-rule="evenodd"/><path fill="#000000" stroke="#000000" stroke-width="1.0" stroke-linecap="butt" d="m82.02385 113.19845l1.1391983 1.1097717l-1.164917 -3.074791l-1.084053 3.1042175z" fill-rule="evenodd"/><path fill="#000000" stroke="#000000" stroke-width="1.0" stroke-linecap="butt" d="m82.31211 135.22675l-1.1391983 -1.1097717l1.164917 3.0747986l1.084053 -3.1042175z" fill-rule="evenodd"/><path fill="#000000" fill-opacity="0.0" d="m35.711285 73.16535l39.937008 0l0 35.149612l-39.937008 0z" fill-rule="evenodd"/><path fill="#000000" d="m56.23936 90.591606q0 1.4375 -0.65625 2.328125q-0.65625 0.890625 -1.796875 0.890625q-1.15625 0 -1.8125 -0.734375l0 3.046875l-1.078125 0l0 -8.78125l0.984375 0l0.046875 0.703125q0.671875 -0.8125 1.84375 -0.8125q1.140625 0 1.796875 0.859375q0.671875 0.859375 0.671875 2.390625l0 0.109375zm-1.078125 -0.125q0 -1.078125 -0.46875 -1.6875q-0.453125 -0.625 -1.25 -0.625q-0.984375 0 -1.46875 0.859375l0 3.03125q0.484375 0.875 1.484375 0.875q0.78125 0 1.234375 -0.609375q0.46875 -0.625 0.46875 -1.84375z" fill-rule="nonzero"/><path fill="#000000" d="m59.643658 98.185356l-0.71875 0l0 -4.8125l-1.453125 0.53125l0 -0.65625l2.0625 -0.78125l0.109375 0l0 5.71875z" fill-rule="nonzero"/><path fill="#000000" fill-opacity="0.0" d="m82.38845 266.5853l0.40944672 51.338593" fill-rule="evenodd"/><path stroke="#000000" stroke-width="1.0" stroke-linejoin="round" stroke-linecap="butt" d="m82.41579 270.01227l0.3547821 44.48465" fill-rule="evenodd"/><path fill="#000000" stroke="#000000" stroke-width="1.0" stroke-linecap="butt" d="m82.41579 270.01227l1.1335144 1.1156006l-1.1491928 -3.080719l-1.0999069 3.0986328z" fill-rule="evenodd"/><path fill="#000000" stroke="#000000" stroke-width="1.0" stroke-linecap="butt" d="m82.77057 314.49692l-1.1335144 -1.1156006l1.1491852 3.080719l1.0999069 -3.0986328z" fill-rule="evenodd"/><path fill="#000000" fill-opacity="0.0" d="m82.4042 239.15224l0.37795258 28.881882" fill-rule="evenodd"/><path stroke="#000000" stroke-width="1.0" stroke-linejoin="round" stroke-linecap="butt" d="m82.44904 242.57903l0.2882614 22.028305" fill-rule="evenodd"/><path fill="#000000" stroke="#000000" stroke-width="1.0" stroke-linecap="butt" d="m82.44904 242.57903l1.1392059 1.1097717l-1.164917 -3.0747833l-1.0840607 3.1042175z" fill-rule="evenodd"/><path fill="#000000" stroke="#000000" stroke-width="1.0" stroke-linecap="butt" d="m82.73731 264.60733l-1.1392059 -1.1097717l1.164917 3.0747986l1.0840607 -3.1042175z" fill-rule="evenodd"/><path fill="#000000" fill-opacity="0.0" d="m35.711285 145.32545l39.937008 0l0 35.149612l-39.937008 0z" fill-rule="evenodd"/><path fill="#000000" d="m57.51475 162.75171q0 1.4375 -0.65625 2.328125q-0.65625 0.890625 -1.796875 0.890625q-1.15625 0 -1.8125 -0.734375l0 3.046875l-1.078125 0l0 -8.78125l0.984375 0l0.046875 0.703125q0.671875 -0.8125 1.84375 -0.8125q1.140625 0 1.796875 0.859375q0.671875 0.859375 0.671875 2.390625l0 0.109375zm-1.078125 -0.125q0 -1.078125 -0.46875 -1.6875q-0.453125 -0.625 -1.25 -0.625q-0.984375 0 -1.46875 0.859375l0 3.03125q0.484375 0.875 1.484375 0.875q0.78125 0 1.234375 -0.609375q0.46875 -0.625 0.46875 -1.84375z" fill-rule="nonzero"/><path fill="#000000" d="m59.403423 170.34546l-0.71875 0l0 -4.234375l0.71875 0l0 4.234375zm-0.78125 -5.34375q0 -0.1875 0.109375 -0.296875q0.109375 -0.125 0.3125 -0.125q0.21875 0 0.328125 0.125q0.109375 0.109375 0.109375 0.296875q0 0.171875 -0.109375 0.296875q-0.109375 0.109375 -0.328125 0.109375q-0.203125 0 -0.3125 -0.109375q-0.109375 -0.125 -0.109375 -0.296875z" fill-rule="nonzero"/><path fill="#000000" fill-opacity="0.0" d="m35.70341 191.41733l39.937008 0l0 35.149597l-39.937008 0z" fill-rule="evenodd"/><path fill="#000000" d="m52.993206 208.84357q0 1.4375 -0.65625 2.328125q-0.65625 0.890625 -1.796875 0.890625q-1.15625 0 -1.8125 -0.734375l0 3.046875l-1.078125 0l0 -8.78125l0.984375 0l0.046875 0.703125q0.671875 -0.8125 1.84375 -0.8125q1.140625 0 1.796875 0.859375q0.671875 0.859375 0.671875 2.390625l0 0.109375zm-1.078125 -0.125q0 -1.078125 -0.46875 -1.6875q-0.453125 -0.625 -1.25 -0.625q-0.984375 0 -1.46875 0.859375l0 3.03125q0.484375 0.875 1.484375 0.875q0.78125 0 1.234375 -0.609375q0.46875 -0.625 0.46875 -1.84375z" fill-rule="nonzero"/><path fill="#000000" d="m54.881878 216.43732l-0.71875 0l0 -4.234375l0.71875 0l0 4.234375zm-0.78125 -5.34375q0 -0.1875 0.109375 -0.296875q0.109375 -0.125 0.3125 -0.125q0.21875 0 0.328125 0.125q0.109375 0.109375 0.109375 0.296875q0 0.171875 -0.109375 0.296875q-0.109375 0.109375 -0.328125 0.109375q-0.203125 0 -0.3125 -0.109375q-0.109375 -0.125 -0.109375 -0.296875zm4.0195312 2.296875l1.578125 0l0 0.671875l-1.578125 0l0 1.796875l-0.734375 0l0 -1.796875l-1.578125 0l0 -0.671875l1.578125 0l0 -1.671875l0.734375 0l0 1.671875zm4.7539062 3.046875l-0.71875 0l0 -4.8125l-1.453125 0.53125l0 -0.65625l2.0625 -0.78125l0.109375 0l0 5.71875z" fill-rule="nonzero"/><path fill="#000000" fill-opacity="0.0" d="m37.144356 106.66404l37.07087 0l0 30.58268l-37.07087 0z" fill-rule="evenodd"/><path fill="#000000" d="m51.786236 126.621544q0 -0.28125 0.15625 -0.46875q0.171875 -0.1875 0.5 -0.1875q0.34375 0 0.515625 0.1875q0.171875 0.1875 0.171875 0.46875q0 0.265625 -0.171875 0.453125q-0.171875 0.171875 -0.515625 0.171875q-0.328125 0 -0.5 -0.171875q-0.15625 -0.1875 -0.15625 -0.453125zm3.1582031 0q0 -0.28125 0.15625 -0.46875q0.171875 -0.1875 0.5 -0.1875q0.34375 0 0.515625 0.1875q0.171875 0.1875 0.171875 0.46875q0 0.265625 -0.171875 0.453125q-0.171875 0.171875 -0.515625 0.171875q-0.328125 0 -0.5 -0.171875q-0.15625 -0.1875 -0.15625 -0.453125zm3.1582031 0q0 -0.28125 0.15625 -0.46875q0.171875 -0.1875 0.5 -0.1875q0.34375 0 0.515625 0.1875q0.171875 0.1875 0.171875 0.46875q0 0.265625 -0.171875 0.453125q-0.171875 0.171875 -0.515625 0.171875q-0.328125 0 -0.5 -0.171875q-0.15625 -0.1875 -0.15625 -0.453125z" fill-rule="nonzero"/><path fill="#000000" fill-opacity="0.0" d="m37.136482 230.65355l37.07087 0l0 30.582657l-37.07087 0z" fill-rule="evenodd"/><path fill="#000000" d="m51.778362 250.61104q0 -0.28125 0.15625 -0.46875q0.171875 -0.1875 0.5 -0.1875q0.34375 0 0.515625 0.1875q0.171875 0.1875 0.171875 0.46875q0 0.265625 -0.171875 0.453125q-0.171875 0.171875 -0.515625 0.171875q-0.328125 0 -0.5 -0.171875q-0.15625 -0.1875 -0.15625 -0.453125zm3.1582031 0q0 -0.28125 0.15625 -0.46875q0.171875 -0.1875 0.5 -0.1875q0.34375 0 0.515625 0.1875q0.171875 0.1875 0.171875 0.46875q0 0.265625 -0.171875 0.453125q-0.171875 0.171875 -0.515625 0.171875q-0.328125 0 -0.5 -0.171875q-0.15625 -0.1875 -0.15625 -0.453125zm3.1582031 0q0 -0.28125 0.15625 -0.46875q0.171875 -0.1875 0.5 -0.1875q0.34375 0 0.515625 0.1875q0.171875 0.1875 0.171875 0.46875q0 0.265625 -0.171875 0.453125q-0.171875 0.171875 -0.515625 0.171875q-0.328125 0 -0.5 -0.171875q-0.15625 -0.1875 -0.15625 -0.453125z" fill-rule="nonzero"/><path fill="#000000" fill-opacity="0.0" d="m37.144356 275.40945l37.07087 0l0 30.582672l-37.07087 0z" fill-rule="evenodd"/><path fill="#000000" d="m56.278423 292.8357q0 1.4375 -0.65625 2.328125q-0.65625 0.890625 -1.796875 0.890625q-1.15625 0 -1.8125 -0.734375l0 3.046875l-1.078125 0l0 -8.78125l0.984375 0l0.046875 0.703125q0.671875 -0.8125 1.84375 -0.8125q1.140625 0 1.796875 0.859375q0.671875 0.859375 0.671875 2.390625l0 0.109375zm-1.078125 -0.125q0 -1.078125 -0.46875 -1.6875q-0.453125 -0.625 -1.25 -0.625q-0.984375 0 -1.46875 0.859375l0 3.03125q0.484375 0.875 1.484375 0.875q0.78125 0 1.234375 -0.609375q0.46875 -0.625 0.46875 -1.84375z" fill-rule="nonzero"/><path fill="#000000" d="m58.073345 296.19507l0.015625 0.53125q0.484375 -0.609375 1.265625 -0.609375q1.34375 0 1.359375 1.515625l0 2.796875l-0.71875 0l0 -2.796875q-0.015625 -0.453125 -0.21875 -0.671875q-0.203125 -0.21875 -0.640625 -0.21875q-0.34375 0 -0.609375 0.1875q-0.265625 0.1875 -0.421875 0.484375l0 3.015625l-0.71875 0l0 -4.234375l0.6875 0z" fill-rule="nonzero"/><path fill="#000000" fill-opacity="0.0" d="m14.223097 235.25719l0 -100.566925l21.480314 0l0 100.566925z" fill-rule="evenodd"/><path fill="#000000" d="m37.133724 225.46031l-8.609377 0l0 -0.953125l0.796875 0q-0.46875 -0.34375 -0.703125 -0.765625q-0.234375 -0.4375 -0.234375 -1.046875q0 -0.796875 0.40625 -1.40625q0.40625 -0.609375 1.15625 -0.90625q0.75 -0.3125 1.640625 -0.3125q0.9531269 0 1.7187519 0.34375q0.765625 0.328125 1.171875 0.984375q0.40625 0.65625 0.40625 1.375q0 0.53125 -0.21875 0.953125q-0.234375 0.421875 -0.5625 0.6875l3.03125 0l0 1.046875zm-5.468752 -0.953125q1.2031269 0 1.7812519 -0.484375q0.5625 -0.484375 0.5625 -1.171875q0 -0.703125 -0.59375 -1.203125q-0.59375 -0.5 -1.8437519 -0.5q-1.1875 0 -1.765625 0.484375q-0.59375 0.484375 -0.59375 1.171875q0 0.671875 0.625 1.1875q0.625 0.515625 1.828125 0.515625zm3.078127 -5.705078l-6.218752 0l0 -0.953125l0.9375 0q-0.65625 -0.359375 -0.859375 -0.65625q-0.21875 -0.3125 -0.21875 -0.6875q0 -0.53125 0.328125 -1.078125l0.984375 0.359375q-0.234375 0.390625 -0.234375 0.765625q0 0.359375 0.21875 0.640625q0.203125 0.265625 0.578125 0.375q0.5625 0.1875 1.21875 0.1875l3.265627 0l0 1.046875zm-3.109377 -3.6210938q-1.734375 0 -2.5625 -0.953125q-0.6875 -0.796875 -0.6875 -1.953125q0 -1.28125 0.84375 -2.09375q0.828125 -0.828125 2.3125 -0.828125q1.2031269 0 1.8906269 0.359375q0.6875 0.359375 1.078125 1.0625q0.375 0.6875 0.375 1.5q0 1.296875 -0.828125 2.109375q-0.84375 0.796875 -2.421877 0.796875zm0 -1.078125q1.1875019 0 1.7812519 -0.515625q0.59375 -0.53125 0.59375 -1.3125q0 -0.796875 -0.59375 -1.3125q-0.59375 -0.515625 -1.8125019 -0.515625q-1.15625 0 -1.75 0.53125q-0.59375 0.515625 -0.59375 1.296875q0 0.78125 0.59375 1.3125q0.578125 0.515625 1.78125 0.515625zm3.109377 -6.955078l0 0.984375l-8.593752 0l0 -1.0625l3.0625 0q-0.828125 -0.671875 -0.828125 -1.703125q0 -0.578125 0.234375 -1.078125q0.21875 -0.515625 0.640625 -0.84375q0.421875 -0.34375 1.015625 -0.53125q0.59375 -0.1875 1.265625 -0.1875q1.5937519 0 2.468752 0.796875q0.875 0.796875 0.875 1.890625q0 1.109375 -0.921875 1.734375l0.78125 0zm-3.156252 0.015625q1.1093769 0 1.6093769 -0.3125q0.8125 -0.5 0.8125 -1.34375q0 -0.6875 -0.59375 -1.1875q-0.59375 -0.515625 -1.7968769 -0.515625q-1.21875 0 -1.796875 0.484375q-0.578125 0.484375 -0.578125 1.171875q0 0.6875 0.609375 1.203125q0.59375 0.5 1.734375 0.5zm2.390627 -9.783203q0.5 0.59375 0.703125 1.140625q0.203125 0.53125 0.203125 1.15625q0 1.03125 -0.5 1.578125q-0.5 0.546875 -1.28125 0.546875q-0.453125 0 -0.828125 -0.203125q-0.3906269 -0.203125 -0.6093769 -0.546875q-0.234375 -0.34375 -0.34375 -0.765625q-0.09375 -0.296875 -0.171875 -0.9375q-0.140625 -1.265625 -0.359375 -1.875q-0.21875 0 -0.265625 0q-0.65625 0 -0.921875 0.296875q-0.34375 0.40625 -0.34375 1.203125q0 0.734375 0.265625 1.09375q0.25 0.359375 0.90625 0.53125l-0.140625 1.03125q-0.65625 -0.140625 -1.0625 -0.46875q-0.40625 -0.328125 -0.625 -0.9375q-0.21875 -0.609375 -0.21875 -1.40625q0 -0.796875 0.1875 -1.296875q0.1875 -0.5 0.46875 -0.734375q0.28125 -0.234375 0.71875 -0.328125q0.265625 -0.046875 0.96875 -0.046875l1.4062519 0q1.46875 0 1.859375 -0.0625q0.390625 -0.078125 0.75 -0.28125l0 1.109375q-0.328125 0.15625 -0.765625 0.203125zm-2.359377 0.09375q0.234375 0.578125 0.4062519 1.71875q0.09375 0.65625 0.21875 0.921875q0.109375 0.265625 0.328125 0.421875q0.21875 0.140625 0.5 0.140625q0.421875 0 0.703125 -0.3125q0.28125 -0.328125 0.28125 -0.9375q0 -0.609375 -0.265625 -1.078125q-0.265625 -0.484375 -0.734375 -0.703125q-0.359375 -0.171875 -1.046875 -0.171875l-0.3906269 0zm3.125002 -3.6738281l0 0.984375l-8.593752 0l0 -1.0625l3.0625 0q-0.828125 -0.671875 -0.828125 -1.703125q0 -0.578125 0.234375 -1.078125q0.21875 -0.515625 0.640625 -0.84375q0.421875 -0.34375 1.015625 -0.53125q0.59375 -0.1875 1.265625 -0.1875q1.5937519 0 2.468752 0.796875q0.875 0.796875 0.875 1.890625q0 1.109375 -0.921875 1.734375l0.78125 0zm-3.156252 0.015625q1.1093769 0 1.6093769 -0.3125q0.8125 -0.5 0.8125 -1.34375q0 -0.6875 -0.59375 -1.1875q-0.59375 -0.515625 -1.7968769 -0.515625q-1.21875 0 -1.796875 0.484375q-0.578125 0.484375 -0.578125 1.171875q0 0.6875 0.609375 1.203125q0.59375 0.5 1.734375 0.5zm-4.21875 -5.720703l-1.21875 0l0 -1.0625l1.21875 0l0 1.0625zm7.375002 0l-6.218752 0l0 -1.0625l6.218752 0l0 1.0625zm0 -2.6347656l-8.593752 0l0 -1.0625l8.593752 0l0 1.0625zm-7.375002 -2.6972656l-1.21875 0l0 -1.0625l1.21875 0l0 1.0625zm7.375002 0l-6.218752 0l0 -1.0625l6.218752 0l0 1.0625zm-0.9375 -4.9628906l0.921875 -0.15625q0.09375 0.453125 0.09375 0.796875q0 0.578125 -0.171875 0.890625q-0.1875 0.3125 -0.484375 0.453125q-0.296875 0.125 -1.25 0.125l-3.578127 0l0 0.765625l-0.8125 0l0 -0.765625l-1.546875 0l-0.625 -1.046875l2.171875 0l0 -1.0625l0.8125 0l0 1.0625l3.640627 0q0.453125 0 0.578125 -0.046875q0.125 -0.0625 0.203125 -0.1875q0.078125 -0.125 0.078125 -0.359375q0 -0.1875 -0.03125 -0.46875zm3.328125 -0.9902344l-0.984375 0.125q0.09375 -0.34375 0.09375 -0.609375q0 -0.34375 -0.125 -0.546875q-0.109375 -0.21875 -0.3125 -0.359375q-0.171875 -0.09375 -0.796875 -0.328125q-0.078125 -0.015625 -0.25 -0.09375l-6.234377 2.375l0 -1.140625l3.593752 -1.296875q0.6875 -0.25 1.453125 -0.453125q-0.734375 -0.1875 -1.421875 -0.4375l-3.625002 -1.328125l0 -1.046875l6.328127 2.359375q1.015625 0.390625 1.40625 0.59375q0.53125 0.28125 0.765625 0.65625q0.25 0.359375 0.25 0.859375q0 0.296875 -0.140625 0.671875z" fill-rule="nonzero"/><path fill="#000000" fill-opacity="0.0" d="m109.826775 41.535435l419.81104 -1.6063004" fill-rule="evenodd"/><path stroke="#000000" stroke-width="1.0" stroke-linejoin="round" stroke-linecap="butt" d="m113.616745 41.52093l412.594 -1.5786858" fill-rule="evenodd"/><path fill="#000000" stroke="#000000" stroke-width="1.0" stroke-linecap="butt" d="m110.32677 41.53352c-0.0034713745 -0.9085007 0.7301941 -1.6478043 1.6386948 -1.6512833c0.9085007 -0.0034751892 1.6478043 0.7301941 1.6512833 1.6386948c0.0034713745 0.9085007 -0.7301941 1.6478081 -1.6386948 1.6512833c-0.9085007 0.0034751892 -1.6478043 -0.7301941 -1.6512833 -1.6386948z" fill-rule="nonzero"/><path fill="#000000" stroke="#000000" stroke-width="1.0" stroke-linecap="butt" d="m526.21075 39.942245l-1.1203003 1.1288795l3.0854492 -1.1363983l-3.0940552 -1.112751z" fill-rule="evenodd"/><path fill="#000000" fill-opacity="0.0" d="m170.34645 34.984253l0.31497192 11.496063" fill-rule="evenodd"/><path stroke="#000000" stroke-width="1.0" stroke-linejoin="round" stroke-linecap="butt" d="m170.34645 34.984253l0.31497192 11.496063" fill-rule="evenodd"/><path fill="#000000" fill-opacity="0.0" d="m229.81627 34.984253l0.31497192 11.496063" fill-rule="evenodd"/><path stroke="#000000" stroke-width="1.0" stroke-linejoin="round" stroke-linecap="butt" d="m229.81627 34.984253l0.31497192 11.496063" fill-rule="evenodd"/><path fill="#000000" fill-opacity="0.0" d="m289.2861 33.598427l0.3149414 11.496063" fill-rule="evenodd"/><path stroke="#000000" stroke-width="1.0" stroke-linejoin="round" stroke-linecap="butt" d="m289.2861 33.598427l0.3149414 11.496063" fill-rule="evenodd"/><path fill="#000000" fill-opacity="0.0" d="m348.75592 34.984253l0.3149414 11.496063" fill-rule="evenodd"/><path stroke="#000000" stroke-width="1.0" stroke-linejoin="round" stroke-linecap="butt" d="m348.75592 34.984253l0.3149414 11.496063" fill-rule="evenodd"/><path fill="#000000" fill-opacity="0.0" d="m129.95276 19.078741l31.937012 0l0 26.015749l-31.937012 0z" fill-rule="evenodd"/><path fill="#000000" d="m142.42151 37.03874l-0.8125 0l0 -5.218748q-0.296875 0.2812481 -0.78125 0.5624981q-0.484375 0.28125 -0.859375 0.421875l0 -0.796875q0.6875 -0.3281231 1.203125 -0.7812481q0.515625 -0.453125 0.734375 -0.890625l0.515625 0l0 6.703123z" fill-rule="nonzero"/><path fill="#000000" fill-opacity="0.0" d="m185.88715 19.078741l31.936996 0l0 26.015749l-31.936996 0z" fill-rule="evenodd"/><path fill="#000000" d="m199.59027 36.25749l0 0.78125l-4.421875 0q-0.015625 -0.296875 0.09375 -0.5625q0.171875 -0.453125 0.53125 -0.890625q0.375 -0.4375 1.078125 -1.015625q1.09375 -0.890625 1.46875 -1.40625q0.390625 -0.53125 0.390625 -1.0q0 -0.4843731 -0.359375 -0.8124981q-0.34375 -0.34375 -0.890625 -0.34375q-0.59375 0 -0.953125 0.359375q-0.359375 0.359375 -0.359375 0.9843731l-0.84375 -0.078125q0.09375 -0.9531231 0.65625 -1.4374981q0.5625 -0.5 1.515625 -0.5q0.953125 0 1.515625 0.53125q0.5625 0.53125 0.5625 1.3281231q0 0.390625 -0.171875 0.78125q-0.15625 0.390625 -0.546875 0.828125q-0.375 0.421875 -1.25 1.15625q-0.734375 0.625 -0.953125 0.84375q-0.203125 0.21875 -0.34375 0.453125l3.28125 0z" fill-rule="nonzero"/><path fill="#000000" fill-opacity="0.0" d="m226.69817 1.9527559l48.850388 0l0 26.015747l-48.850388 0z" fill-rule="evenodd"/><path fill="#000000" d="m238.79192 21.535255l0.15625 0.921875q-0.453125 0.09375 -0.796875 0.09375q-0.578125 0 -0.890625 -0.171875q-0.3125 -0.1875 -0.453125 -0.484375q-0.125 -0.296875 -0.125 -1.25l0 -3.578125l-0.765625 0l0 -0.8125l0.765625 0l0 -1.546874l1.046875 -0.625l0 2.171874l1.0625 0l0 0.8125l-1.0625 0l0 3.640625q0 0.453125 0.046875 0.578125q0.0625 0.125 0.1875 0.203125q0.125 0.078125 0.359375 0.078125q0.1875 0 0.46875 -0.03125zm1.0371094 -6.437499l0 -1.21875l1.0625 0l0 1.21875l-1.0625 0zm0 7.374999l0 -6.21875l1.0625 0l0 6.21875l-1.0625 0zm2.6660156 0l0 -6.21875l0.9375 0l0 0.875q0.296875 -0.46875 0.78125 -0.734375q0.484375 -0.28125 1.109375 -0.28125q0.6875 0 1.125 0.28125q0.453125 0.28125 0.625 0.796875q0.75 -1.078125 1.921875 -1.078125q0.9375 0 1.421875 0.515625q0.5 0.5 0.5 1.578125l0 4.265625l-1.046875 0l0 -3.921875q0 -0.625 -0.109375 -0.90625q-0.09375 -0.28125 -0.359375 -0.453125q-0.265625 -0.171875 -0.640625 -0.171875q-0.65625 0 -1.09375 0.4375q-0.421875 0.4375 -0.421875 1.40625l0 3.609375l-1.0625 0l0 -4.046875q0 -0.703125 -0.265625 -1.046875q-0.25 -0.359375 -0.828125 -0.359375q-0.453125 0 -0.828125 0.234375q-0.375 0.234375 -0.546875 0.6875q-0.171875 0.453125 -0.171875 1.296875l0 3.234375l-1.046875 0zm14.2460785 -2.0l1.09375 0.125q-0.25 0.953125 -0.953125 1.484375q-0.703125 0.53125 -1.7812347 0.53125q-1.359375 0 -2.171875 -0.84375q-0.796875 -0.84375 -0.796875 -2.359375q0 -1.5625 0.8125 -2.421875q0.8125 -0.875 2.09375 -0.875q1.2499847 0 2.0312347 0.84375q0.796875 0.84375 0.796875 2.390625q0 0.09375 0 0.28125l-4.6406097 0q0.0625 1.03125 0.578125 1.578125q0.515625 0.53125 1.296875 0.53125q0.578125 0 0.98435974 -0.296875q0.421875 -0.3125 0.65625 -0.96875zm-3.4531097 -1.703125l3.4687347 0q-0.0625 -0.796875 -0.390625 -1.1875q-0.51560974 -0.609375 -1.3124847 -0.609375q-0.734375 0 -1.234375 0.484375q-0.484375 0.484375 -0.53125 1.3125z" fill-rule="nonzero"/><path fill="#000000" fill-opacity="0.0" d="m248.84251 19.078741l31.937027 0l0 26.015749l-31.937027 0z" fill-rule="evenodd"/><path fill="#000000" d="m258.23315 35.273113l0.828125 -0.109375q0.140625 0.703125 0.46875 1.015625q0.34375 0.296875 0.828125 0.296875q0.578125 0 0.96875 -0.390625q0.40625 -0.40625 0.40625 -1.0q0 -0.5625 -0.375 -0.921875q-0.359375 -0.375 -0.921875 -0.375q-0.234375 0 -0.578125 0.09375l0.078125 -0.71875q0.09375 0 0.140625 0q0.515625 0 0.9375 -0.265625q0.421875 -0.28125 0.421875 -0.84375q0 -0.4531231 -0.3125 -0.7499981q-0.296875 -0.296875 -0.78125 -0.296875q-0.484375 0 -0.796875 0.3125q-0.3125 0.296875 -0.40625 0.8906231l-0.828125 -0.140625q0.15625 -0.8281231 0.6875 -1.2812481q0.53125 -0.453125 1.328125 -0.453125q0.546875 0 1.0 0.234375q0.46875 0.234375 0.703125 0.640625q0.25 0.40625 0.25 0.8593731q0 0.4375 -0.234375 0.796875q-0.234375 0.34375 -0.6875 0.5625q0.59375 0.125 0.921875 0.5625q0.328125 0.421875 0.328125 1.078125q0 0.875 -0.640625 1.484375q-0.640625 0.609375 -1.609375 0.609375q-0.875 0 -1.46875 -0.515625q-0.578125 -0.53125 -0.65625 -1.375z" fill-rule="nonzero"/><path fill="#000000" fill-opacity="0.0" d="m305.82153 19.078741l31.937012 0l0 26.015749l-31.937012 0z" fill-rule="evenodd"/><path fill="#000000" d="m317.83716 37.03874l0 -1.59375l-2.890625 0l0 -0.75l3.046875 -4.328123l0.65625 0l0 4.328123l0.90625 0l0 0.75l-0.90625 0l0 1.59375l-0.8125 0zm0 -2.34375l0 -3.015623l-2.09375 3.015623l2.09375 0z" fill-rule="nonzero"/></g></svg>