<svg version="1.1" viewBox="0.0 0.0 578.2624671916011 320.7716535433071" fill="none" stroke="none" stroke-linecap="square" stroke-miterlimit="10" xmlns:xlink="http://www.w3.org/1999/xlink" xmlns="http://www.w3.org/2000/svg"><clipPath id="p.0"><path d="m0 0l578.26245 0l0 320.77167l-578.26245 0l0 -320.77167z" clip-rule="nonzero"/></clipPath><g clip-path="url(#p.0)"><path fill="#000000" fill-opacity="0.0" d="m0 0l578.26245 0l0 320.77167l-578.26245 0z" fill-rule="evenodd"/><path fill="#f4cccc" d="m36.244095 34.56168l41.795273 0l0 52.031498l-41.795273 0z" fill-rule="evenodd"/><path stroke="#000000" stroke-width="1.0" stroke-linejoin="round" stroke-linecap="butt" d="m36.244095 34.56168l41.795273 0l0 52.031498l-41.795273 0z" fill-rule="evenodd"/><path fill="#000000" d="m57.835503 61.87618q0 1.765625 -0.8125 2.8437462q-0.8125 1.078125 -2.1875 1.078125q-1.40625 0 -2.21875 -0.890625l0 3.734375l-1.328125 0l0 -10.734371l1.21875 0l0.0625 0.859375q0.796875 -1.0 2.234375 -1.0q1.40625 0 2.21875 1.0625q0.8125 1.046875 0.8125 2.921875l0 0.125zm-1.328125 -0.15625q0 -1.3125 -0.5625 -2.0625q-0.546875 -0.765625 -1.53125 -0.765625q-1.203125 0 -1.796875 1.0625l0 3.703125q0.59375 1.0624962 1.8125 1.0624962q0.953125 0 1.515625 -0.7499962q0.5625 -0.765625 0.5625 -2.25z" fill-rule="nonzero"/><path fill="#000000" d="m61.98005 71.157425l-0.875 0l0 -5.875l-1.78125 0.65625l0 -0.8125l2.53125 -0.9375l0.125 0l0 6.96875z" fill-rule="nonzero"/><path fill="#d9d2e9" d="m120.79002 34.56168l59.46457 0l0 52.031498l-59.46457 0z" fill-rule="evenodd"/><path stroke="#000000" stroke-width="1.0" stroke-linejoin="round" stroke-linecap="butt" d="m120.79002 34.56168l59.46457 0l0 52.031498l-59.46457 0z" fill-rule="evenodd"/><path fill="#000000" d="m150.13309 63.829304l1.484375 -5.921875l1.328125 0l-2.25 7.749996l-1.078125 0l-1.890625 -5.874996l-1.828125 5.874996l-1.0625 0l-2.25 -7.749996l1.3125 0l1.53125 5.796875l1.796875 -5.796875l1.0625 0l1.84375 5.921875z" fill-rule="nonzero"/><path fill="#000000" d="m156.75612 71.157425l-0.875 0l0 -5.875l-1.78125 0.65625l0 -0.8125l2.53125 -0.9375l0.125 0l0 6.96875z" fill-rule="nonzero"/><path fill="#f4cccc" d="m36.244095 111.884514l41.795273 0l0 52.0315l-41.795273 0z" fill-rule="evenodd"/><path stroke="#000000" stroke-width="1.0" stroke-linejoin="round" stroke-linecap="butt" d="m36.244095 111.884514l41.795273 0l0 52.0315l-41.795273 0z" fill-rule="evenodd"/><path fill="#000000" d="m59.39235 139.19902q0 1.765625 -0.8125 2.84375q-0.8125 1.078125 -2.1875 1.078125q-1.40625 0 -2.21875 -0.890625l0 3.734375l-1.328125 0l0 -10.734375l1.21875 0l0.0625 0.859375q0.796875 -1.0 2.234375 -1.0q1.40625 0 2.21875 1.0625q0.8125 1.046875 0.8125 2.921875l0 0.125zm-1.328125 -0.15625q0 -1.3125 -0.5625 -2.0625q-0.546875 -0.765625 -1.53125 -0.765625q-1.203125 0 -1.796875 1.0625l0 3.703125q0.59375 1.0625 1.8125 1.0625q0.953125 0 1.515625 -0.75q0.5625 -0.765625 0.5625 -2.25z" fill-rule="nonzero"/><path fill="#000000" d="m61.693146 148.48027l-0.875 0l0 -5.15625l0.875 0l0 5.15625zm-0.953125 -6.53125q0 -0.21875 0.125 -0.359375q0.140625 -0.140625 0.390625 -0.140625q0.265625 0 0.390625 0.140625q0.140625 0.140625 0.140625 0.359375q0 0.21875 -0.140625 0.359375q-0.125 0.140625 -0.390625 0.140625q-0.25 0 -0.390625 -0.140625q-0.125 -0.140625 -0.125 -0.359375z" fill-rule="nonzero"/><path fill="#d9d2e9" d="m180.2546 34.56168l59.46457 0l0 52.031498l-59.46457 0z" fill-rule="evenodd"/><path stroke="#000000" stroke-width="1.0" stroke-linejoin="round" stroke-linecap="butt" d="m180.2546 34.56168l59.46457 0l0 52.031498l-59.46457 0z" fill-rule="evenodd"/><path fill="#000000" d="m205.25731 63.829304l1.484375 -5.921875l1.328125 0l-2.25 7.749996l-1.078125 0l-1.890625 -5.874996l-1.828125 5.874996l-1.0625 0l-2.25 -7.749996l1.3125 0l1.53125 5.796875l1.796875 -5.796875l1.0625 0l1.84375 5.921875z" fill-rule="nonzero"/><path fill="#000000" d="m211.88034 71.157425l-0.875 0l0 -5.875l-1.78125 0.65625l0 -0.8125l2.53125 -0.9375l0.125 0l0 6.96875z" fill-rule="nonzero"/><path fill="#000000" d="m218.22327 55.09493q1.375 0 2.21875 0.78125q0.84375 0.78125 0.84375 2.03125q0 0.65625 -0.359375 1.203125q-0.34375 0.53125 -0.96875 0.859375q0.875 0.328125 1.34375 1.03125q0.46875 0.6875 0.46875 1.625q0 1.4687462 -0.890625 2.3281212q-0.890625 0.84375 -2.359375 0.84375q-1.296875 0 -2.15625 -0.671875l0 3.28125l-1.328125 0l0 -10.421871q0 -0.78125 0.4375 -1.453125q0.4375 -0.671875 1.171875 -1.046875q0.75 -0.390625 1.578125 -0.390625zm1.734375 2.78125q0 -0.734375 -0.484375 -1.203125q-0.484375 -0.484375 -1.25 -0.484375q-0.765625 0 -1.3125 0.515625q-0.53125 0.5 -0.546875 1.265625l0 5.921875q0.328125 0.3749962 0.84375 0.6093712q0.515625 0.21875 1.1875 0.21875q0.953125 0 1.5 -0.5625q0.5625 -0.5781212 0.5625 -1.4999962q0 -0.84375 -0.515625 -1.4375q-0.5 -0.59375 -1.28125 -0.609375l-1.0625 0l0 -1.09375l0.609375 0q0.859375 0 1.296875 -0.421875q0.453125 -0.421875 0.453125 -1.21875z" fill-rule="nonzero"/><path fill="#d9d2e9" d="m239.71916 34.56168l59.464554 0l0 52.031498l-59.464554 0z" fill-rule="evenodd"/><path stroke="#000000" stroke-width="1.0" stroke-linejoin="round" stroke-linecap="butt" d="m239.71916 34.56168l59.464554 0l0 52.031498l-59.464554 0z" fill-rule="evenodd"/><path fill="#000000" d="m261.9801 63.829304l1.484375 -5.921875l1.328125 0l-2.25 7.749996l-1.078125 0l-1.890625 -5.874996l-1.828125 5.874996l-1.0625 0l-2.2499847 -7.749996l1.3125 0l1.5312347 5.796875l1.796875 -5.796875l1.0625 0l1.84375 5.921875z" fill-rule="nonzero"/><path fill="#000000" d="m268.60315 71.157425l-0.875 0l0 -5.875l-1.78125 0.65625l0 -0.8125l2.53125 -0.9375l0.125 0l0 6.96875z" fill-rule="nonzero"/><path fill="#000000" d="m274.94604 55.09493q1.375 0 2.21875 0.78125q0.84375 0.78125 0.84375 2.03125q0 0.65625 -0.359375 1.203125q-0.34375 0.53125 -0.96875 0.859375q0.875 0.328125 1.34375 1.03125q0.46875 0.6875 0.46875 1.625q0 1.4687462 -0.890625 2.3281212q-0.890625 0.84375 -2.359375 0.84375q-1.296875 0 -2.15625 -0.671875l0 3.28125l-1.328125 0l0 -10.421871q0 -0.78125 0.4375 -1.453125q0.4375 -0.671875 1.171875 -1.046875q0.75 -0.390625 1.578125 -0.390625zm1.734375 2.78125q0 -0.734375 -0.484375 -1.203125q-0.484375 -0.484375 -1.25 -0.484375q-0.765625 0 -1.3125 0.515625q-0.53125 0.5 -0.546875 1.265625l0 5.921875q0.328125 0.3749962 0.84375 0.6093712q0.515625 0.21875 1.1875 0.21875q0.953125 0 1.5 -0.5625q0.5625 -0.5781212 0.5625 -1.4999962q0 -0.84375 -0.515625 -1.4375q-0.5 -0.59375 -1.28125 -0.609375l-1.0625 0l0 -1.09375l0.609375 0q0.859375 0 1.296875 -0.421875q0.453125 -0.421875 0.453125 -1.21875z" fill-rule="nonzero"/><path fill="#000000" d="m284.4236 60.15743l-4.546875 0l0 -0.640625l2.40625 -2.65625q0.53125 -0.609375 0.734375 -0.984375q0.203125 -0.390625 0.203125 -0.796875q0 -0.53125 -0.328125 -0.875q-0.328125 -0.359375 -0.875 -0.359375q-0.65625 0 -1.03125 0.375q-0.359375 0.375 -0.359375 1.046875l-0.890625 0q0 -0.96875 0.609375 -1.546875q0.625 -0.59375 1.671875 -0.59375q0.96875 0 1.53125 0.515625q0.5625 0.5 0.5625 1.34375q0 1.015625 -1.3125 2.4375l-1.859375 2.015625l3.484375 0l0 0.71875z" fill-rule="nonzero"/><path fill="#d9d2e9" d="m120.79002 111.884514l59.46457 0l0 52.0315l-59.46457 0z" fill-rule="evenodd"/><path stroke="#000000" stroke-width="1.0" stroke-linejoin="round" stroke-linecap="butt" d="m120.79002 111.884514l59.46457 0l0 52.0315l-59.46457 0z" fill-rule="evenodd"/><path fill="#000000" d="m151.68994 141.15215l1.484375 -5.921875l1.328125 0l-2.25 7.75l-1.078125 0l-1.890625 -5.875l-1.828125 5.875l-1.0625 0l-2.25 -7.75l1.3125 0l1.53125 5.796875l1.796875 -5.796875l1.0625 0l1.84375 5.921875z" fill-rule="nonzero"/><path fill="#000000" d="m156.46922 148.48027l-0.875 0l0 -5.15625l0.875 0l0 5.15625zm-0.953125 -6.53125q0 -0.21875 0.125 -0.359375q0.140625 -0.140625 0.390625 -0.140625q0.265625 0 0.390625 0.140625q0.140625 0.140625 0.140625 0.359375q0 0.21875 -0.140625 0.359375q-0.125 0.140625 -0.390625 0.140625q-0.25 0 -0.390625 -0.140625q-0.125 -0.140625 -0.125 -0.359375z" fill-rule="nonzero"/><path fill="#d9d2e9" d="m180.2546 111.884514l59.46457 0l0 52.0315l-59.46457 0z" fill-rule="evenodd"/><path stroke="#000000" stroke-width="1.0" stroke-linejoin="round" stroke-linecap="butt" d="m180.2546 111.884514l59.46457 0l0 52.0315l-59.46457 0z" fill-rule="evenodd"/><path fill="#000000" d="m206.81416 141.15215l1.484375 -5.921875l1.328125 0l-2.25 7.75l-1.078125 0l-1.890625 -5.875l-1.828125 5.875l-1.0625 0l-2.25 -7.75l1.3125 0l1.53125 5.796875l1.796875 -5.796875l1.0625 0l1.84375 5.921875z" fill-rule="nonzero"/><path fill="#000000" d="m211.59344 148.48027l-0.875 0l0 -5.15625l0.875 0l0 5.15625zm-0.953125 -6.53125q0 -0.21875 0.125 -0.359375q0.140625 -0.140625 0.390625 -0.140625q0.265625 0 0.390625 0.140625q0.140625 0.140625 0.140625 0.359375q0 0.21875 -0.140625 0.359375q-0.125 0.140625 -0.390625 0.140625q-0.25 0 -0.390625 -0.140625q-0.125 -0.140625 -0.125 -0.359375z" fill-rule="nonzero"/><path fill="#000000" d="m216.66641 132.41777q1.375 0 2.21875 0.78125q0.84375 0.78125 0.84375 2.03125q0 0.65625 -0.359375 1.203125q-0.34375 0.53125 -0.96875 0.859375q0.875 0.328125 1.34375 1.03125q0.46875 0.6875 0.46875 1.625q0 1.46875 -0.890625 2.328125q-0.890625 0.84375 -2.359375 0.84375q-1.296875 0 -2.15625 -0.671875l0 3.28125l-1.328125 0l0 -10.421875q0 -0.78125 0.4375 -1.453125q0.4375 -0.671875 1.171875 -1.046875q0.75 -0.390625 1.578125 -0.390625zm1.734375 2.78125q0 -0.734375 -0.484375 -1.203125q-0.484375 -0.484375 -1.25 -0.484375q-0.765625 0 -1.3125 0.515625q-0.53125 0.5 -0.546875 1.265625l0 5.921875q0.328125 0.375 0.84375 0.609375q0.515625 0.21875 1.1875 0.21875q0.953125 0 1.5 -0.5625q0.5625 -0.578125 0.5625 -1.5q0 -0.84375 -0.515625 -1.4375q-0.5 -0.59375 -1.28125 -0.609375l-1.0625 0l0 -1.09375l0.609375 0q0.859375 0 1.296875 -0.421875q0.453125 -0.421875 0.453125 -1.21875z" fill-rule="nonzero"/><path fill="#f4cccc" d="m36.244095 86.59318l41.795273 0l0 25.291336l-41.795273 0z" fill-rule="evenodd"/><path stroke="#000000" stroke-width="1.0" stroke-linejoin="round" stroke-linecap="butt" d="m36.244095 86.59318l41.795273 0l0 25.291336l-41.795273 0z" fill-rule="evenodd"/><path fill="#000000" d="m52.387054 103.63135q0 -0.34375 0.203125 -0.578125q0.203125 -0.234375 0.609375 -0.234375q0.40625 0 0.609375 0.234375q0.21875 0.234375 0.21875 0.578125q0 0.328125 -0.21875 0.546875q-0.203125 0.21875 -0.609375 0.21875q-0.40625 0 -0.609375 -0.21875q-0.203125 -0.21875 -0.203125 -0.546875zm3.8572845 0q0 -0.34375 0.203125 -0.578125q0.203125 -0.234375 0.609375 -0.234375q0.40625 0 0.609375 0.234375q0.21875 0.234375 0.21875 0.578125q0 0.328125 -0.21875 0.546875q-0.203125 0.21875 -0.609375 0.21875q-0.40625 0 -0.609375 -0.21875q-0.203125 -0.21875 -0.203125 -0.546875zm3.8572845 0q0 -0.34375 0.203125 -0.578125q0.203125 -0.234375 0.609375 -0.234375q0.40625 0 0.609375 0.234375q0.21875 0.234375 0.21875 0.578125q0 0.328125 -0.21875 0.546875q-0.203125 0.21875 -0.609375 0.21875q-0.40625 0 -0.609375 -0.21875q-0.203125 -0.21875 -0.203125 -0.546875z" fill-rule="nonzero"/><path fill="#d9d2e9" d="m120.79002 86.59318l59.46457 0l0 25.291336l-59.46457 0z" fill-rule="evenodd"/><path stroke="#000000" stroke-width="1.0" stroke-linejoin="round" stroke-linecap="butt" d="m120.79002 86.59318l59.46457 0l0 25.291336l-59.46457 0z" fill-rule="evenodd"/><path fill="#000000" d="m145.76764 103.63135q0 -0.34375 0.203125 -0.578125q0.203125 -0.234375 0.609375 -0.234375q0.40625 0 0.609375 0.234375q0.21875 0.234375 0.21875 0.578125q0 0.328125 -0.21875 0.546875q-0.203125 0.21875 -0.609375 0.21875q-0.40625 0 -0.609375 -0.21875q-0.203125 -0.21875 -0.203125 -0.546875zm3.8572845 0q0 -0.34375 0.203125 -0.578125q0.203125 -0.234375 0.609375 -0.234375q0.40625 0 0.609375 0.234375q0.21875 0.234375 0.21875 0.578125q0 0.328125 -0.21875 0.546875q-0.203125 0.21875 -0.609375 0.21875q-0.40625 0 -0.609375 -0.21875q-0.203125 -0.21875 -0.203125 -0.546875zm3.8572845 0q0 -0.34375 0.203125 -0.578125q0.203125 -0.234375 0.609375 -0.234375q0.40625 0 0.609375 0.234375q0.21875 0.234375 0.21875 0.578125q0 0.328125 -0.21875 0.546875q-0.203125 0.21875 -0.609375 0.21875q-0.40625 0 -0.609375 -0.21875q-0.203125 -0.21875 -0.203125 -0.546875z" fill-rule="nonzero"/><path fill="#d9d2e9" d="m180.2546 86.59318l59.46457 0l0 25.291336l-59.46457 0z" fill-rule="evenodd"/><path stroke="#000000" stroke-width="1.0" stroke-linejoin="round" stroke-linecap="butt" d="m180.2546 86.59318l59.46457 0l0 25.291336l-59.46457 0z" fill-rule="evenodd"/><path fill="#000000" d="m205.2322 103.63135q0 -0.34375 0.203125 -0.578125q0.203125 -0.234375 0.609375 -0.234375q0.40625 0 0.609375 0.234375q0.21875 0.234375 0.21875 0.578125q0 0.328125 -0.21875 0.546875q-0.203125 0.21875 -0.609375 0.21875q-0.40625 0 -0.609375 -0.21875q-0.203125 -0.21875 -0.203125 -0.546875zm3.8572845 0q0 -0.34375 0.203125 -0.578125q0.203125 -0.234375 0.609375 -0.234375q0.40625 0 0.609375 0.234375q0.21875 0.234375 0.21875 0.578125q0 0.328125 -0.21875 0.546875q-0.203125 0.21875 -0.609375 0.21875q-0.40625 0 -0.609375 -0.21875q-0.203125 -0.21875 -0.203125 -0.546875zm3.8572998 0q0 -0.34375 0.203125 -0.578125q0.203125 -0.234375 0.609375 -0.234375q0.40625 0 0.609375 0.234375q0.21875 0.234375 0.21875 0.578125q0 0.328125 -0.21875 0.546875q-0.203125 0.21875 -0.609375 0.21875q-0.40625 0 -0.609375 -0.21875q-0.203125 -0.21875 -0.203125 -0.546875z" fill-rule="nonzero"/><path fill="#d9d2e9" d="m239.71654 86.59318l59.464554 0l0 25.291336l-59.464554 0z" fill-rule="evenodd"/><path stroke="#000000" stroke-width="1.0" stroke-linejoin="round" stroke-linecap="butt" d="m239.71654 86.59318l59.464554 0l0 25.291336l-59.464554 0z" fill-rule="evenodd"/><path fill="#000000" d="m264.69415 103.63135q0 -0.34375 0.203125 -0.578125q0.203125 -0.234375 0.609375 -0.234375q0.40625 0 0.609375 0.234375q0.21875 0.234375 0.21875 0.578125q0 0.328125 -0.21875 0.546875q-0.203125 0.21875 -0.609375 0.21875q-0.40625 0 -0.609375 -0.21875q-0.203125 -0.21875 -0.203125 -0.546875zm3.8572693 0q0 -0.34375 0.203125 -0.578125q0.203125 -0.234375 0.609375 -0.234375q0.40625 0 0.609375 0.234375q0.21875 0.234375 0.21875 0.578125q0 0.328125 -0.21875 0.546875q-0.203125 0.21875 -0.609375 0.21875q-0.40625 0 -0.609375 -0.21875q-0.203125 -0.21875 -0.203125 -0.546875zm3.8572998 0q0 -0.34375 0.203125 -0.578125q0.203125 -0.234375 0.609375 -0.234375q0.40625 0 0.609375 0.234375q0.21875 0.234375 0.21875 0.578125q0 0.328125 -0.21875 0.546875q-0.203125 0.21875 -0.609375 0.21875q-0.40625 0 -0.609375 -0.21875q-0.203125 -0.21875 -0.203125 -0.546875z" fill-rule="nonzero"/><path fill="#d9d2e9" d="m239.71654 111.884514l59.464554 0l0 52.0315l-59.464554 0z" fill-rule="evenodd"/><path stroke="#000000" stroke-width="1.0" stroke-linejoin="round" stroke-linecap="butt" d="m239.71654 111.884514l59.464554 0l0 52.0315l-59.464554 0z" fill-rule="evenodd"/><path fill="#000000" d="m263.53433 141.15215l1.484375 -5.921875l1.328125 0l-2.25 7.75l-1.078125 0l-1.890625 -5.875l-1.828125 5.875l-1.0625 0l-2.25 -7.75l1.3125 0l1.53125 5.796875l1.796875 -5.796875l1.0625 0l1.84375 5.921875z" fill-rule="nonzero"/><path fill="#000000" d="m268.31363 148.48027l-0.875 0l0 -5.15625l0.875 0l0 5.15625zm-0.953125 -6.53125q0 -0.21875 0.125 -0.359375q0.140625 -0.140625 0.390625 -0.140625q0.265625 0 0.390625 0.140625q0.140625 0.140625 0.140625 0.359375q0 0.21875 -0.140625 0.359375q-0.125 0.140625 -0.390625 0.140625q-0.25 0 -0.390625 -0.140625q-0.125 -0.140625 -0.125 -0.359375z" fill-rule="nonzero"/><path fill="#000000" d="m273.3866 132.41777q1.375 0 2.21875 0.78125q0.84375 0.78125 0.84375 2.03125q0 0.65625 -0.359375 1.203125q-0.34375 0.53125 -0.96875 0.859375q0.875 0.328125 1.34375 1.03125q0.46875 0.6875 0.46875 1.625q0 1.46875 -0.890625 2.328125q-0.890625 0.84375 -2.359375 0.84375q-1.296875 0 -2.15625 -0.671875l0 3.28125l-1.328125 0l0 -10.421875q0 -0.78125 0.4375 -1.453125q0.4375 -0.671875 1.171875 -1.046875q0.75 -0.390625 1.578125 -0.390625zm1.734375 2.78125q0 -0.734375 -0.484375 -1.203125q-0.484375 -0.484375 -1.25 -0.484375q-0.765625 0 -1.3125 0.515625q-0.53125 0.5 -0.546875 1.265625l0 5.921875q0.328125 0.375 0.84375 0.609375q0.515625 0.21875 1.1875 0.21875q0.953125 0 1.5 -0.5625q0.5625 -0.578125 0.5625 -1.5q0 -0.84375 -0.515625 -1.4375q-0.5 -0.59375 -1.28125 -0.609375l-1.0625 0l0 -1.09375l0.609375 0q0.859375 0 1.296875 -0.421875q0.453125 -0.421875 0.453125 -1.21875z" fill-rule="nonzero"/><path fill="#000000" d="m282.86414 137.48027l-4.546875 0l0 -0.640625l2.40625 -2.65625q0.53125 -0.609375 0.734375 -0.984375q0.203125 -0.390625 0.203125 -0.796875q0 -0.53125 -0.328125 -0.875q-0.328125 -0.359375 -0.875 -0.359375q-0.65625 0 -1.03125 0.375q-0.359375 0.375 -0.359375 1.046875l-0.890625 0q0 -0.96875 0.609375 -1.546875q0.625 -0.59375 1.671875 -0.59375q0.96875 0 1.53125 0.515625q0.5625 0.5 0.5625 1.34375q0 1.015625 -1.3125 2.4375l-1.859375 2.015625l3.484375 0l0 0.71875z" fill-rule="nonzero"/><path fill="#f4cccc" d="m36.244095 163.91602l41.795273 0l0 52.031494l-41.795273 0z" fill-rule="evenodd"/><path stroke="#000000" stroke-width="1.0" stroke-linejoin="round" stroke-linecap="butt" d="m36.244095 163.91602l41.795273 0l0 52.031494l-41.795273 0z" fill-rule="evenodd"/><path fill="#000000" d="m53.882584 191.23051q0 1.765625 -0.8125 2.84375q-0.8125 1.078125 -2.1875 1.078125q-1.40625 0 -2.21875 -0.890625l0 3.734375l-1.328125 0l0 -10.734375l1.21875 0l0.0625 0.859375q0.796875 -1.0 2.234375 -1.0q1.40625 0 2.21875 1.0625q0.8125 1.046875 0.8125 2.921875l0 0.125zm-1.328125 -0.15625q0 -1.3125 -0.5625 -2.0625q-0.546875 -0.765625 -1.53125 -0.765625q-1.203125 0 -1.796875 1.0625l0 3.703125q0.59375 1.0625 1.8125 1.0625q0.953125 0 1.515625 -0.75q0.5625 -0.765625 0.5625 -2.25z" fill-rule="nonzero"/><path fill="#000000" d="m56.18338 200.51176l-0.875 0l0 -5.15625l0.875 0l0 5.15625zm-0.953125 -6.53125q0 -0.21875 0.125 -0.359375q0.140625 -0.140625 0.390625 -0.140625q0.265625 0 0.390625 0.140625q0.140625 0.140625 0.140625 0.359375q0 0.21875 -0.140625 0.359375q-0.125 0.140625 -0.390625 0.140625q-0.25 0 -0.390625 -0.140625q-0.125 -0.140625 -0.125 -0.359375zm4.8854675 2.8125l1.9375 0l0 0.828125l-1.9375 0l0 2.1875l-0.875 0l0 -2.1875l-1.9375 0l0 -0.828125l1.9375 0l0 -2.03125l0.875 0l0 2.03125zm5.8172455 3.71875l-0.875 0l0 -5.875l-1.78125 0.65625l0 -0.8125l2.53125 -0.9375l0.125 0l0 6.96875z" fill-rule="nonzero"/><path fill="#f4cccc" d="m36.244095 215.94751l41.795273 0l0 25.291336l-41.795273 0z" fill-rule="evenodd"/><path stroke="#000000" stroke-width="1.0" stroke-linejoin="round" stroke-linecap="butt" d="m36.244095 215.94751l41.795273 0l0 25.291336l-41.795273 0z" fill-rule="evenodd"/><path fill="#000000" d="m52.387054 232.98567q0 -0.34375 0.203125 -0.578125q0.203125 -0.234375 0.609375 -0.234375q0.40625 0 0.609375 0.234375q0.21875 0.234375 0.21875 0.578125q0 0.328125 -0.21875 0.546875q-0.203125 0.21875 -0.609375 0.21875q-0.40625 0 -0.609375 -0.21875q-0.203125 -0.21875 -0.203125 -0.546875zm3.8572845 0q0 -0.34375 0.203125 -0.578125q0.203125 -0.234375 0.609375 -0.234375q0.40625 0 0.609375 0.234375q0.21875 0.234375 0.21875 0.578125q0 0.328125 -0.21875 0.546875q-0.203125 0.21875 -0.609375 0.21875q-0.40625 0 -0.609375 -0.21875q-0.203125 -0.21875 -0.203125 -0.546875zm3.8572845 0q0 -0.34375 0.203125 -0.578125q0.203125 -0.234375 0.609375 -0.234375q0.40625 0 0.609375 0.234375q0.21875 0.234375 0.21875 0.578125q0 0.328125 -0.21875 0.546875q-0.203125 0.21875 -0.609375 0.21875q-0.40625 0 -0.609375 -0.21875q-0.203125 -0.21875 -0.203125 -0.546875z" fill-rule="nonzero"/><path fill="#f4cccc" d="m36.244095 241.23885l41.795273 0l0 52.03151l-41.795273 0z" fill-rule="evenodd"/><path stroke="#000000" stroke-width="1.0" stroke-linejoin="round" stroke-linecap="butt" d="m36.244095 241.23885l41.795273 0l0 52.03151l-41.795273 0z" fill-rule="evenodd"/><path fill="#000000" d="m57.096413 268.55334q0 1.765625 -0.8125 2.84375q-0.8125 1.078125 -2.1875 1.078125q-1.40625 0 -2.21875 -0.890625l0 3.734375l-1.328125 0l0 -10.734375l1.21875 0l0.0625 0.859375q0.796875 -1.0 2.234375 -1.0q1.40625 0 2.21875 1.0625q0.8125 1.046875 0.8125 2.921875l0 0.125zm-1.328125 -0.15625q0 -1.3125 -0.5625 -2.0625q-0.546875 -0.765625 -1.53125 -0.765625q-1.203125 0 -1.796875 1.0625l0 3.703125q0.59375 1.0625 1.8125 1.0625q0.953125 0 1.515625 -0.75q0.5625 -0.765625 0.5625 -2.25z" fill-rule="nonzero"/><path fill="#000000" d="m63.912834 277.8346l-0.921875 0l-3.5 -5.34375l0 5.34375l-0.90625 0l0 -6.9375l0.90625 0l3.515625 5.375l0 -5.375l0.90625 0l0 6.9375z" fill-rule="nonzero"/><path fill="#fff2cc" d="m120.7874 163.91602l59.46457 0l0 129.35434l-59.46457 0z" fill-rule="evenodd"/><path stroke="#000000" stroke-width="1.0" stroke-linejoin="round" stroke-linecap="butt" d="m120.7874 163.91602l59.46457 0l0 129.35434l-59.46457 0z" fill-rule="evenodd"/><path fill="#000000" d="m150.79324 232.73567q0.703125 0 1.234375 -0.421875q0.53125 -0.4375 0.59375 -1.078125l1.25 0q-0.03125 0.65625 -0.453125 1.265625q-0.421875 0.59375 -1.140625 0.953125q-0.703125 0.359375 -1.484375 0.359375q-1.578125 0 -2.515625 -1.046875q-0.9375 -1.0625 -0.9375 -2.890625l0 -0.21875q0 -1.140625 0.40625 -2.015625q0.421875 -0.875 1.203125 -1.359375q0.78125 -0.5 1.828125 -0.5q1.3125 0 2.171875 0.78125q0.859375 0.78125 0.921875 2.03125l-1.25 0q-0.0625 -0.75 -0.578125 -1.234375q-0.5 -0.484375 -1.265625 -0.484375q-1.0 0 -1.5625 0.734375q-0.546875 0.71875 -0.546875 2.09375l0 0.25q0 1.328125 0.546875 2.0625q0.546875 0.71875 1.578125 0.71875z" fill-rule="nonzero"/><path fill="#d9d2e9" d="m180.25197 163.90814l59.46457 0l0 26.015747l-59.46457 0z" fill-rule="evenodd"/><path stroke="#000000" stroke-width="1.0" stroke-linejoin="round" stroke-linecap="butt" d="m180.25197 163.90814l59.46457 0l0 26.015747l-59.46457 0z" fill-rule="evenodd"/><path fill="#000000" d="m201.73718 172.77975q1.125 0 1.8125 0.65625q0.6875 0.640625 0.6875 1.65625q0 0.53125 -0.28125 0.984375q-0.28125 0.4375 -0.796875 0.703125q0.71875 0.265625 1.09375 0.84375q0.390625 0.5625 0.390625 1.328125q0 1.203125 -0.734375 1.90625q-0.71875 0.703125 -1.921875 0.703125q-1.0625 0 -1.765625 -0.5625l0 2.6875l-1.09375 0l0 -8.53125q0 -0.640625 0.359375 -1.1875q0.359375 -0.546875 0.953125 -0.859375q0.609375 -0.328125 1.296875 -0.328125zm1.421875 2.28125q0 -0.59375 -0.40625 -0.984375q-0.390625 -0.40625 -1.015625 -0.40625q-0.640625 0 -1.078125 0.421875q-0.4375 0.421875 -0.4375 1.046875l0 4.859375q0.25 0.296875 0.671875 0.484375q0.421875 0.1875 0.984375 0.1875q0.78125 0 1.234375 -0.46875q0.453125 -0.46875 0.453125 -1.234375q0 -0.6875 -0.421875 -1.171875q-0.40625 -0.484375 -1.046875 -0.5l-0.875 0l0 -0.890625l0.5 0q0.703125 0 1.0625 -0.34375q0.375 -0.34375 0.375 -1.0zm11.546875 4.875l1.21875 -4.84375l1.078125 0l-1.84375 6.34375l-0.875 0l-1.546875 -4.8125l-1.5 4.8125l-0.875 0l-1.84375 -6.34375l1.078125 0l1.25 4.75l1.484375 -4.75l0.859375 0l1.515625 4.84375z" fill-rule="nonzero"/><path fill="#000000" d="m220.12976 185.936l-0.71875 0l0 -4.8125l-1.453125 0.53125l0 -0.65625l2.0625 -0.78125l0.109375 0l0 5.71875z" fill-rule="nonzero"/><path fill="#d9d2e9" d="m239.70041 163.90814l59.46457 0l0 26.015747l-59.46457 0z" fill-rule="evenodd"/><path stroke="#000000" stroke-width="1.0" stroke-linejoin="round" stroke-linecap="butt" d="m239.70041 163.90814l59.46457 0l0 26.015747l-59.46457 0z" fill-rule="evenodd"/><path fill="#000000" d="m257.6319 172.77975q1.125 0 1.8125 0.65625q0.6875 0.640625 0.6875 1.65625q0 0.53125 -0.28125 0.984375q-0.28125 0.4375 -0.796875 0.703125q0.71875 0.265625 1.09375 0.84375q0.390625 0.5625 0.390625 1.328125q0 1.203125 -0.734375 1.90625q-0.71875 0.703125 -1.921875 0.703125q-1.0625 0 -1.765625 -0.5625l0 2.6875l-1.0937347 0l0 -8.53125q0 -0.640625 0.359375 -1.1875q0.359375 -0.546875 0.95310974 -0.859375q0.609375 -0.328125 1.296875 -0.328125zm1.421875 2.28125q0 -0.59375 -0.40625 -0.984375q-0.390625 -0.40625 -1.015625 -0.40625q-0.640625 0 -1.078125 0.421875q-0.4375 0.421875 -0.4375 1.046875l0 4.859375q0.25 0.296875 0.671875 0.484375q0.421875 0.1875 0.984375 0.1875q0.78125 0 1.234375 -0.46875q0.453125 -0.46875 0.453125 -1.234375q0 -0.6875 -0.421875 -1.171875q-0.40625 -0.484375 -1.046875 -0.5l-0.875 0l0 -0.890625l0.5 0q0.703125 0 1.0625 -0.34375q0.375 -0.34375 0.375 -1.0zm11.546875 4.875l1.21875 -4.84375l1.078125 0l-1.84375 6.34375l-0.875 0l-1.546875 -4.8125l-1.5 4.8125l-0.875 0l-1.84375 -6.34375l1.078125 0l1.25 4.75l1.484375 -4.75l0.859375 0l1.515625 4.84375z" fill-rule="nonzero"/><path fill="#000000" d="m276.02448 185.936l-0.71875 0l0 -4.8125l-1.453125 0.53125l0 -0.65625l2.0625 -0.78125l0.109375 0l0 5.71875z" fill-rule="nonzero"/><path fill="#000000" d="m281.2198 172.77975q1.125 0 1.8125 0.65625q0.6875 0.640625 0.6875 1.65625q0 0.53125 -0.28125 0.984375q-0.28125 0.4375 -0.796875 0.703125q0.71875 0.265625 1.09375 0.84375q0.390625 0.5625 0.390625 1.328125q0 1.203125 -0.734375 1.90625q-0.71875 0.703125 -1.921875 0.703125q-1.0625 0 -1.765625 -0.5625l0 2.6875l-1.09375 0l0 -8.53125q0 -0.640625 0.359375 -1.1875q0.359375 -0.546875 0.953125 -0.859375q0.609375 -0.328125 1.296875 -0.328125zm1.421875 2.28125q0 -0.59375 -0.40625 -0.984375q-0.390625 -0.40625 -1.015625 -0.40625q-0.640625 0 -1.078125 0.421875q-0.4375 0.421875 -0.4375 1.046875l0 4.859375q0.25 0.296875 0.671875 0.484375q0.421875 0.1875 0.984375 0.1875q0.78125 0 1.234375 -0.46875q0.453125 -0.46875 0.453125 -1.234375q0 -0.6875 -0.421875 -1.171875q-0.40625 -0.484375 -1.046875 -0.5l-0.875 0l0 -0.890625l0.5 0q0.703125 0 1.0625 -0.34375q0.375 -0.34375 0.375 -1.0z" fill-rule="nonzero"/><path fill="#d9d2e9" d="m299.14883 163.90814l59.46457 0l0 26.015747l-59.46457 0z" fill-rule="evenodd"/><path stroke="#000000" stroke-width="1.0" stroke-linejoin="round" stroke-linecap="butt" d="m299.14883 163.90814l59.46457 0l0 26.015747l-59.46457 0z" fill-rule="evenodd"/><path fill="#000000" d="m316.3196 172.77975q1.125 0 1.8125 0.65625q0.6875 0.640625 0.6875 1.65625q0 0.53125 -0.28125 0.984375q-0.28125 0.4375 -0.796875 0.703125q0.71875 0.265625 1.09375 0.84375q0.390625 0.5625 0.390625 1.328125q0 1.203125 -0.734375 1.90625q-0.71875 0.703125 -1.921875 0.703125q-1.0625 0 -1.765625 -0.5625l0 2.6875l-1.09375 0l0 -8.53125q0 -0.640625 0.359375 -1.1875q0.359375 -0.546875 0.953125 -0.859375q0.609375 -0.328125 1.296875 -0.328125zm1.421875 2.28125q0 -0.59375 -0.40625 -0.984375q-0.390625 -0.40625 -1.015625 -0.40625q-0.640625 0 -1.078125 0.421875q-0.4375 0.421875 -0.4375 1.046875l0 4.859375q0.25 0.296875 0.671875 0.484375q0.421875 0.1875 0.984375 0.1875q0.78125 0 1.234375 -0.46875q0.453125 -0.46875 0.453125 -1.234375q0 -0.6875 -0.421875 -1.171875q-0.40625 -0.484375 -1.046875 -0.5l-0.875 0l0 -0.890625l0.5 0q0.703125 0 1.0625 -0.34375q0.375 -0.34375 0.375 -1.0zm11.546875 4.875l1.21875 -4.84375l1.078125 0l-1.84375 6.34375l-0.875 0l-1.546875 -4.8125l-1.5 4.8125l-0.875 0l-1.84375 -6.34375l1.078125 0l1.25 4.75l1.484375 -4.75l0.859375 0l1.515625 4.84375z" fill-rule="nonzero"/><path fill="#000000" d="m334.7122 185.936l-0.71875 0l0 -4.8125l-1.453125 0.53125l0 -0.65625l2.0625 -0.78125l0.109375 0l0 5.71875z" fill-rule="nonzero"/><path fill="#000000" d="m339.9075 172.77975q1.125 0 1.8125 0.65625q0.6875 0.640625 0.6875 1.65625q0 0.53125 -0.28125 0.984375q-0.28125 0.4375 -0.796875 0.703125q0.71875 0.265625 1.09375 0.84375q0.390625 0.5625 0.390625 1.328125q0 1.203125 -0.734375 1.90625q-0.71875 0.703125 -1.921875 0.703125q-1.0625 0 -1.765625 -0.5625l0 2.6875l-1.09375 0l0 -8.53125q0 -0.640625 0.359375 -1.1875q0.359375 -0.546875 0.953125 -0.859375q0.609375 -0.328125 1.296875 -0.328125zm1.421875 2.28125q0 -0.59375 -0.40625 -0.984375q-0.390625 -0.40625 -1.015625 -0.40625q-0.640625 0 -1.078125 0.421875q-0.4375 0.421875 -0.4375 1.046875l0 4.859375q0.25 0.296875 0.671875 0.484375q0.421875 0.1875 0.984375 0.1875q0.78125 0 1.234375 -0.46875q0.453125 -0.46875 0.453125 -1.234375q0 -0.6875 -0.421875 -1.171875q-0.40625 -0.484375 -1.046875 -0.5l-0.875 0l0 -0.890625l0.5 0q0.703125 0 1.0625 -0.34375q0.375 -0.34375 0.375 -1.0z" fill-rule="nonzero"/><path fill="#000000" d="m347.67117 176.936l-3.734375 0l0 -0.515625l1.96875 -2.1875q0.4375 -0.5 0.609375 -0.8125q0.171875 -0.3125 0.171875 -0.640625q0 -0.453125 -0.28125 -0.734375q-0.265625 -0.28125 -0.71875 -0.28125q-0.53125 0 -0.828125 0.3125q-0.296875 0.296875 -0.296875 0.84375l-0.734375 0q0 -0.78125 0.5 -1.265625q0.515625 -0.484375 1.359375 -0.484375q0.796875 0 1.25 0.421875q0.46875 0.40625 0.46875 1.09375q0 0.84375 -1.0625 2.0l-1.53125 1.65625l2.859375 0l0 0.59375z" fill-rule="nonzero"/><path fill="#d9d2e9" d="m180.2546 202.56955l59.46457 0l0 26.015747l-59.46457 0z" fill-rule="evenodd"/><path stroke="#000000" stroke-width="1.0" stroke-linejoin="round" stroke-linecap="butt" d="m180.2546 202.56955l59.46457 0l0 26.015747l-59.46457 0z" fill-rule="evenodd"/><path fill="#000000" d="m203.0152 211.44118q1.125 0 1.8125 0.65625q0.6875 0.640625 0.6875 1.65625q0 0.53125 -0.28125 0.984375q-0.28125 0.4375 -0.796875 0.703125q0.71875 0.265625 1.09375 0.84375q0.390625 0.5625 0.390625 1.328125q0 1.203125 -0.734375 1.90625q-0.71875 0.703125 -1.921875 0.703125q-1.0625 0 -1.765625 -0.5625l0 2.6875l-1.09375 0l0 -8.53125q0 -0.640625 0.359375 -1.1875q0.359375 -0.546875 0.953125 -0.859375q0.609375 -0.328125 1.296875 -0.328125zm1.421875 2.28125q0 -0.59375 -0.40625 -0.984375q-0.390625 -0.40625 -1.015625 -0.40625q-0.640625 0 -1.078125 0.421875q-0.4375 0.421875 -0.4375 1.046875l0 4.859375q0.25 0.296875 0.671875 0.484375q0.421875 0.1875 0.984375 0.1875q0.78125 0 1.234375 -0.46875q0.453125 -0.46875 0.453125 -1.234375q0 -0.6875 -0.421875 -1.171875q-0.40625 -0.484375 -1.046875 -0.5l-0.875 0l0 -0.890625l0.5 0q0.703125 0 1.0625 -0.34375q0.375 -0.34375 0.375 -1.0zm11.546875 4.875l1.21875 -4.84375l1.078125 0l-1.84375 6.34375l-0.875 0l-1.546875 -4.8125l-1.5 4.8125l-0.875 0l-1.84375 -6.34375l1.078125 0l1.25 4.75l1.484375 -4.75l0.859375 0l1.515625 4.84375z" fill-rule="nonzero"/><path fill="#000000" d="m219.89215 224.59743l-0.71875 0l0 -4.234375l0.71875 0l0 4.234375zm-0.78125 -5.34375q0 -0.1875 0.109375 -0.296875q0.109375 -0.125 0.3125 -0.125q0.21875 0 0.328125 0.125q0.109375 0.109375 0.109375 0.296875q0 0.171875 -0.109375 0.296875q-0.109375 0.109375 -0.328125 0.109375q-0.203125 0 -0.3125 -0.109375q-0.109375 -0.125 -0.109375 -0.296875z" fill-rule="nonzero"/><path fill="#d9d2e9" d="m239.70303 202.56955l59.46457 0l0 26.015747l-59.46457 0z" fill-rule="evenodd"/><path stroke="#000000" stroke-width="1.0" stroke-linejoin="round" stroke-linecap="butt" d="m239.70303 202.56955l59.46457 0l0 26.015747l-59.46457 0z" fill-rule="evenodd"/><path fill="#000000" d="m258.9099 211.44118q1.125 0 1.8125 0.65625q0.6875 0.640625 0.6875 1.65625q0 0.53125 -0.28125 0.984375q-0.28125 0.4375 -0.796875 0.703125q0.71875 0.265625 1.09375 0.84375q0.390625 0.5625 0.390625 1.328125q0 1.203125 -0.734375 1.90625q-0.71875 0.703125 -1.921875 0.703125q-1.0625 0 -1.765625 -0.5625l0 2.6875l-1.09375 0l0 -8.53125q0 -0.640625 0.359375 -1.1875q0.359375 -0.546875 0.953125 -0.859375q0.609375 -0.328125 1.296875 -0.328125zm1.421875 2.28125q0 -0.59375 -0.40625 -0.984375q-0.390625 -0.40625 -1.015625 -0.40625q-0.640625 0 -1.078125 0.421875q-0.4375 0.421875 -0.4375 1.046875l0 4.859375q0.25 0.296875 0.671875 0.484375q0.421875 0.1875 0.984375 0.1875q0.78125 0 1.234375 -0.46875q0.453125 -0.46875 0.453125 -1.234375q0 -0.6875 -0.421875 -1.171875q-0.40625 -0.484375 -1.046875 -0.5l-0.875 0l0 -0.890625l0.5 0q0.703125 0 1.0625 -0.34375q0.375 -0.34375 0.375 -1.0zm11.546875 4.875l1.21875 -4.84375l1.078125 0l-1.84375 6.34375l-0.875 0l-1.546875 -4.8125l-1.5 4.8125l-0.875 0l-1.84375 -6.34375l1.078125 0l1.25 4.75l1.484375 -4.75l0.859375 0l1.515625 4.84375z" fill-rule="nonzero"/><path fill="#000000" d="m275.78687 224.59743l-0.71875 0l0 -4.234375l0.71875 0l0 4.234375zm-0.78125 -5.34375q0 -0.1875 0.109375 -0.296875q0.109375 -0.125 0.3125 -0.125q0.21875 0 0.328125 0.125q0.109375 0.109375 0.109375 0.296875q0 0.171875 -0.109375 0.296875q-0.109375 0.109375 -0.328125 0.109375q-0.203125 0 -0.3125 -0.109375q-0.109375 -0.125 -0.109375 -0.296875z" fill-rule="nonzero"/><path fill="#000000" d="m279.94702 211.44118q1.125 0 1.8125 0.65625q0.6875 0.640625 0.6875 1.65625q0 0.53125 -0.28125 0.984375q-0.28125 0.4375 -0.796875 0.703125q0.71875 0.265625 1.09375 0.84375q0.390625 0.5625 0.390625 1.328125q0 1.203125 -0.734375 1.90625q-0.71875 0.703125 -1.921875 0.703125q-1.0625 0 -1.765625 -0.5625l0 2.6875l-1.09375 0l0 -8.53125q0 -0.640625 0.359375 -1.1875q0.359375 -0.546875 0.953125 -0.859375q0.609375 -0.328125 1.296875 -0.328125zm1.421875 2.28125q0 -0.59375 -0.40625 -0.984375q-0.390625 -0.40625 -1.015625 -0.40625q-0.640625 0 -1.078125 0.421875q-0.4375 0.421875 -0.4375 1.046875l0 4.859375q0.25 0.296875 0.671875 0.484375q0.421875 0.1875 0.984375 0.1875q0.78125 0 1.234375 -0.46875q0.453125 -0.46875 0.453125 -1.234375q0 -0.6875 -0.421875 -1.171875q-0.40625 -0.484375 -1.046875 -0.5l-0.875 0l0 -0.890625l0.5 0q0.703125 0 1.0625 -0.34375q0.375 -0.34375 0.375 -1.0z" fill-rule="nonzero"/><path fill="#d9d2e9" d="m180.2546 189.92389l59.46457 0l0 12.629913l-59.46457 0z" fill-rule="evenodd"/><path stroke="#000000" stroke-width="1.0" stroke-linejoin="round" stroke-linecap="butt" d="m180.2546 189.92389l59.46457 0l0 12.629913l-59.46457 0z" fill-rule="evenodd"/><path fill="#000000" d="m206.09332 200.19635q0 -0.28125 0.15625 -0.46875q0.171875 -0.1875 0.5 -0.1875q0.34375 0 0.515625 0.1875q0.171875 0.1875 0.171875 0.46875q0 0.265625 -0.171875 0.453125q-0.171875 0.171875 -0.515625 0.171875q-0.328125 0 -0.5 -0.171875q-0.15625 -0.1875 -0.15625 -0.453125zm3.1582031 0q0 -0.28125 0.15625 -0.46875q0.171875 -0.1875 0.5 -0.1875q0.34375 0 0.515625 0.1875q0.171875 0.1875 0.171875 0.46875q0 0.265625 -0.171875 0.453125q-0.171875 0.171875 -0.515625 0.171875q-0.328125 0 -0.5 -0.171875q-0.15625 -0.1875 -0.15625 -0.453125zm3.1582031 0q0 -0.28125 0.15625 -0.46875q0.171875 -0.1875 0.5 -0.1875q0.34375 0 0.515625 0.1875q0.171875 0.1875 0.171875 0.46875q0 0.265625 -0.171875 0.453125q-0.171875 0.171875 -0.515625 0.171875q-0.328125 0 -0.5 -0.171875q-0.15625 -0.1875 -0.15625 -0.453125z" fill-rule="nonzero"/><path fill="#d9d2e9" d="m239.70303 189.92389l59.46457 0l0 12.629913l-59.46457 0z" fill-rule="evenodd"/><path stroke="#000000" stroke-width="1.0" stroke-linejoin="round" stroke-linecap="butt" d="m239.70303 189.92389l59.46457 0l0 12.629913l-59.46457 0z" fill-rule="evenodd"/><path fill="#000000" d="m265.54175 200.19635q0 -0.28125 0.15625 -0.46875q0.171875 -0.1875 0.5 -0.1875q0.34375 0 0.515625 0.1875q0.171875 0.1875 0.171875 0.46875q0 0.265625 -0.171875 0.453125q-0.171875 0.171875 -0.515625 0.171875q-0.328125 0 -0.5 -0.171875q-0.15625 -0.1875 -0.15625 -0.453125zm3.1582031 0q0 -0.28125 0.15625 -0.46875q0.171875 -0.1875 0.5 -0.1875q0.34375 0 0.515625 0.1875q0.171875 0.1875 0.171875 0.46875q0 0.265625 -0.171875 0.453125q-0.171875 0.171875 -0.515625 0.171875q-0.328125 0 -0.5 -0.171875q-0.15625 -0.1875 -0.15625 -0.453125zm3.1582031 0q0 -0.28125 0.15625 -0.46875q0.171875 -0.1875 0.5 -0.1875q0.34375 0 0.515625 0.1875q0.171875 0.1875 0.171875 0.46875q0 0.265625 -0.171875 0.453125q-0.171875 0.171875 -0.515625 0.171875q-0.328125 0 -0.5 -0.171875q-0.15625 -0.1875 -0.15625 -0.453125z" fill-rule="nonzero"/><path fill="#d9d2e9" d="m299.14883 189.92389l59.46457 0l0 12.629913l-59.46457 0z" fill-rule="evenodd"/><path stroke="#000000" stroke-width="1.0" stroke-linejoin="round" stroke-linecap="butt" d="m299.14883 189.92389l59.46457 0l0 12.629913l-59.46457 0z" fill-rule="evenodd"/><path fill="#000000" d="m324.98758 200.19635q0 -0.28125 0.15625 -0.46875q0.171875 -0.1875 0.5 -0.1875q0.34375 0 0.515625 0.1875q0.171875 0.1875 0.171875 0.46875q0 0.265625 -0.171875 0.453125q-0.171875 0.171875 -0.515625 0.171875q-0.328125 0 -0.5 -0.171875q-0.15625 -0.1875 -0.15625 -0.453125zm3.1582031 0q0 -0.28125 0.15625 -0.46875q0.171875 -0.1875 0.5 -0.1875q0.34375 0 0.515625 0.1875q0.171875 0.1875 0.171875 0.46875q0 0.265625 -0.171875 0.453125q-0.171875 0.171875 -0.515625 0.171875q-0.328125 0 -0.5 -0.171875q-0.15625 -0.1875 -0.15625 -0.453125zm3.1582031 0q0 -0.28125 0.15625 -0.46875q0.171875 -0.1875 0.5 -0.1875q0.34375 0 0.515625 0.1875q0.171875 0.1875 0.171875 0.46875q0 0.265625 -0.171875 0.453125q-0.171875 0.171875 -0.515625 0.171875q-0.328125 0 -0.5 -0.171875q-0.15625 -0.1875 -0.15625 -0.453125z" fill-rule="nonzero"/><path fill="#d9d2e9" d="m299.14883 202.56955l59.46457 0l0 26.015747l-59.46457 0z" fill-rule="evenodd"/><path stroke="#000000" stroke-width="1.0" stroke-linejoin="round" stroke-linecap="butt" d="m299.14883 202.56955l59.46457 0l0 26.015747l-59.46457 0z" fill-rule="evenodd"/><path fill="#000000" d="m316.10965 211.44118q1.125 0 1.8125 0.65625q0.6875 0.640625 0.6875 1.65625q0 0.53125 -0.28125 0.984375q-0.28125 0.4375 -0.796875 0.703125q0.71875 0.265625 1.09375 0.84375q0.390625 0.5625 0.390625 1.328125q0 1.203125 -0.734375 1.90625q-0.71875 0.703125 -1.921875 0.703125q-1.0625 0 -1.765625 -0.5625l0 2.6875l-1.09375 0l0 -8.53125q0 -0.640625 0.359375 -1.1875q0.359375 -0.546875 0.953125 -0.859375q0.609375 -0.328125 1.296875 -0.328125zm1.421875 2.28125q0 -0.59375 -0.40625 -0.984375q-0.390625 -0.40625 -1.015625 -0.40625q-0.640625 0 -1.078125 0.421875q-0.4375 0.421875 -0.4375 1.046875l0 4.859375q0.25 0.296875 0.671875 0.484375q0.421875 0.1875 0.984375 0.1875q0.78125 0 1.234375 -0.46875q0.453125 -0.46875 0.453125 -1.234375q0 -0.6875 -0.421875 -1.171875q-0.40625 -0.484375 -1.046875 -0.5l-0.875 0l0 -0.890625l0.5 0q0.703125 0 1.0625 -0.34375q0.375 -0.34375 0.375 -1.0zm11.546875 4.875l1.21875 -4.84375l1.078125 0l-1.84375 6.34375l-0.875 0l-1.546875 -4.8125l-1.5 4.8125l-0.875 0l-1.84375 -6.34375l1.078125 0l1.25 4.75l1.484375 -4.75l0.859375 0l1.515625 4.84375z" fill-rule="nonzero"/><path fill="#000000" d="m332.9866 224.59743l-0.71875 0l0 -4.234375l0.71875 0l0 4.234375zm-0.78125 -5.34375q0 -0.1875 0.109375 -0.296875q0.109375 -0.125 0.3125 -0.125q0.21875 0 0.328125 0.125q0.109375 0.109375 0.109375 0.296875q0 0.171875 -0.109375 0.296875q-0.109375 0.109375 -0.328125 0.109375q-0.203125 0 -0.3125 -0.109375q-0.109375 -0.125 -0.109375 -0.296875z" fill-rule="nonzero"/><path fill="#000000" d="m337.14676 211.44118q1.125 0 1.8125 0.65625q0.6875 0.640625 0.6875 1.65625q0 0.53125 -0.28125 0.984375q-0.28125 0.4375 -0.796875 0.703125q0.71875 0.265625 1.09375 0.84375q0.390625 0.5625 0.390625 1.328125q0 1.203125 -0.734375 1.90625q-0.71875 0.703125 -1.921875 0.703125q-1.0625 0 -1.765625 -0.5625l0 2.6875l-1.09375 0l0 -8.53125q0 -0.640625 0.359375 -1.1875q0.359375 -0.546875 0.953125 -0.859375q0.609375 -0.328125 1.296875 -0.328125zm1.421875 2.28125q0 -0.59375 -0.40625 -0.984375q-0.390625 -0.40625 -1.015625 -0.40625q-0.640625 0 -1.078125 0.421875q-0.4375 0.421875 -0.4375 1.046875l0 4.859375q0.25 0.296875 0.671875 0.484375q0.421875 0.1875 0.984375 0.1875q0.78125 0 1.234375 -0.46875q0.453125 -0.46875 0.453125 -1.234375q0 -0.6875 -0.421875 -1.171875q-0.40625 -0.484375 -1.046875 -0.5l-0.875 0l0 -0.890625l0.5 0q0.703125 0 1.0625 -0.34375q0.375 -0.34375 0.375 -1.0z" fill-rule="nonzero"/><path fill="#000000" d="m344.91043 215.59743l-3.734375 0l0 -0.515625l1.96875 -2.1875q0.4375 -0.5 0.609375 -0.8125q0.171875 -0.3125 0.171875 -0.640625q0 -0.453125 -0.28125 -0.734375q-0.265625 -0.28125 -0.71875 -0.28125q-0.53125 0 -0.828125 0.3125q-0.296875 0.296875 -0.296875 0.84375l-0.734375 0q0 -0.78125 0.5 -1.265625q0.515625 -0.484375 1.359375 -0.484375q0.796875 0 1.25 0.421875q0.46875 0.40625 0.46875 1.09375q0 0.84375 -1.0625 2.0l-1.53125 1.65625l2.859375 0l0 0.59375z" fill-rule="nonzero"/><path fill="#fff2cc" d="m180.25197 228.5853l59.46457 0l0 64.69293l-59.46457 0z" fill-rule="evenodd"/><path stroke="#000000" stroke-width="1.0" stroke-linejoin="round" stroke-linecap="butt" d="m180.25197 228.5853l59.46457 0l0 64.69293l-59.46457 0z" fill-rule="evenodd"/><path fill="#000000" d="m205.35144 256.7955q1.125 0 1.8125 0.65625q0.6875 0.640625 0.6875 1.65625q0 0.53125 -0.28125 0.984375q-0.28125 0.4375 -0.796875 0.703125q0.71875 0.265625 1.09375 0.84375q0.390625 0.5625 0.390625 1.328125q0 1.203125 -0.734375 1.90625q-0.71875 0.703125 -1.921875 0.703125q-1.0625 0 -1.765625 -0.5625l0 2.6875l-1.09375 0l0 -8.53125q0 -0.640625 0.359375 -1.1875q0.359375 -0.546875 0.953125 -0.859375q0.609375 -0.328125 1.296875 -0.328125zm1.421875 2.28125q0 -0.59375 -0.40625 -0.984375q-0.390625 -0.40625 -1.015625 -0.40625q-0.640625 0 -1.078125 0.421875q-0.4375 0.421875 -0.4375 1.046875l0 4.859375q0.25 0.296875 0.671875 0.484375q0.421875 0.1875 0.984375 0.1875q0.78125 0 1.234375 -0.46875q0.453125 -0.46875 0.453125 -1.234375q0 -0.6875 -0.421875 -1.171875q-0.40625 -0.484375 -1.046875 -0.5l-0.875 0l0 -0.890625l0.5 0q0.703125 0 1.0625 -0.34375q0.375 -0.34375 0.375 -1.0zm8.46875 5.609375q0.578125 0 1.015625 -0.34375q0.4375 -0.359375 0.484375 -0.890625l1.03125 0q-0.03125 0.546875 -0.390625 1.046875q-0.34375 0.484375 -0.921875 0.78125q-0.5625 0.296875 -1.21875 0.296875q-1.296875 0 -2.0625 -0.859375q-0.75 -0.875 -0.75 -2.375l0 -0.1875q0 -0.921875 0.328125 -1.640625q0.34375 -0.71875 0.96875 -1.109375q0.640625 -0.40625 1.515625 -0.40625q1.0625 0 1.765625 0.640625q0.71875 0.625 0.765625 1.65625l-1.03125 0q-0.046875 -0.625 -0.46875 -1.015625q-0.421875 -0.390625 -1.03125 -0.390625q-0.828125 0 -1.28125 0.59375q-0.453125 0.59375 -0.453125 1.71875l0 0.203125q0 1.09375 0.453125 1.6875q0.453125 0.59375 1.28125 0.59375z" fill-rule="nonzero"/><path fill="#d9d2e9" d="m299.1496 34.56168l59.46457 0l0 52.031498l-59.46457 0z" fill-rule="evenodd"/><path stroke="#000000" stroke-width="1.0" stroke-linejoin="round" stroke-linecap="butt" d="m299.1496 34.56168l59.46457 0l0 52.031498l-59.46457 0z" fill-rule="evenodd"/><path fill="#000000" d="m321.41055 63.829304l1.484375 -5.921875l1.328125 0l-2.25 7.749996l-1.078125 0l-1.890625 -5.874996l-1.828125 5.874996l-1.0625 0l-2.25 -7.749996l1.3125 0l1.53125 5.796875l1.796875 -5.796875l1.0625 0l1.84375 5.921875z" fill-rule="nonzero"/><path fill="#000000" d="m328.0336 71.157425l-0.875 0l0 -5.875l-1.78125 0.65625l0 -0.8125l2.53125 -0.9375l0.125 0l0 6.96875z" fill-rule="nonzero"/><path fill="#000000" d="m334.3765 55.09493q1.375 0 2.21875 0.78125q0.84375 0.78125 0.84375 2.03125q0 0.65625 -0.359375 1.203125q-0.34375 0.53125 -0.96875 0.859375q0.875 0.328125 1.34375 1.03125q0.46875 0.6875 0.46875 1.625q0 1.4687462 -0.890625 2.3281212q-0.890625 0.84375 -2.359375 0.84375q-1.296875 0 -2.15625 -0.671875l0 3.28125l-1.328125 0l0 -10.421871q0 -0.78125 0.4375 -1.453125q0.4375 -0.671875 1.171875 -1.046875q0.75 -0.390625 1.578125 -0.390625zm1.734375 2.78125q0 -0.734375 -0.484375 -1.203125q-0.484375 -0.484375 -1.25 -0.484375q-0.765625 0 -1.3125 0.515625q-0.53125 0.5 -0.546875 1.265625l0 5.921875q0.328125 0.3749962 0.84375 0.6093712q0.515625 0.21875 1.1875 0.21875q0.953125 0 1.5 -0.5625q0.5625 -0.5781212 0.5625 -1.4999962q0 -0.84375 -0.515625 -1.4375q-0.5 -0.59375 -1.28125 -0.609375l-1.0625 0l0 -1.09375l0.609375 0q0.859375 0 1.296875 -0.421875q0.453125 -0.421875 0.453125 -1.21875z" fill-rule="nonzero"/><path fill="#000000" d="m343.85406 60.15743l-4.546875 0l0 -0.640625l2.40625 -2.65625q0.53125 -0.609375 0.734375 -0.984375q0.203125 -0.390625 0.203125 -0.796875q0 -0.53125 -0.328125 -0.875q-0.328125 -0.359375 -0.875 -0.359375q-0.65625 0 -1.03125 0.375q-0.359375 0.375 -0.359375 1.046875l-0.890625 0q0 -0.96875 0.609375 -1.546875q0.625 -0.59375 1.671875 -0.59375q0.96875 0 1.53125 0.515625q0.5625 0.5 0.5625 1.34375q0 1.015625 -1.3125 2.4375l-1.859375 2.015625l3.484375 0l0 0.71875z" fill-rule="nonzero"/><path fill="#d9d2e9" d="m299.1496 86.59318l59.46457 0l0 25.291336l-59.46457 0z" fill-rule="evenodd"/><path stroke="#000000" stroke-width="1.0" stroke-linejoin="round" stroke-linecap="butt" d="m299.1496 86.59318l59.46457 0l0 25.291336l-59.46457 0z" fill-rule="evenodd"/><path fill="#000000" d="m324.1272 103.63135q0 -0.34375 0.203125 -0.578125q0.203125 -0.234375 0.609375 -0.234375q0.40625 0 0.609375 0.234375q0.21875 0.234375 0.21875 0.578125q0 0.328125 -0.21875 0.546875q-0.203125 0.21875 -0.609375 0.21875q-0.40625 0 -0.609375 -0.21875q-0.203125 -0.21875 -0.203125 -0.546875zm3.8572998 0q0 -0.34375 0.203125 -0.578125q0.203125 -0.234375 0.609375 -0.234375q0.40625 0 0.609375 0.234375q0.21875 0.234375 0.21875 0.578125q0 0.328125 -0.21875 0.546875q-0.203125 0.21875 -0.609375 0.21875q-0.40625 0 -0.609375 -0.21875q-0.203125 -0.21875 -0.203125 -0.546875zm3.8572998 0q0 -0.34375 0.203125 -0.578125q0.203125 -0.234375 0.609375 -0.234375q0.40625 0 0.609375 0.234375q0.21875 0.234375 0.21875 0.578125q0 0.328125 -0.21875 0.546875q-0.203125 0.21875 -0.609375 0.21875q-0.40625 0 -0.609375 -0.21875q-0.203125 -0.21875 -0.203125 -0.546875z" fill-rule="nonzero"/><path fill="#d9d2e9" d="m299.1496 111.884514l59.46457 0l0 52.0315l-59.46457 0z" fill-rule="evenodd"/><path stroke="#000000" stroke-width="1.0" stroke-linejoin="round" stroke-linecap="butt" d="m299.1496 111.884514l59.46457 0l0 52.0315l-59.46457 0z" fill-rule="evenodd"/><path fill="#000000" d="m322.9674 141.15215l1.484375 -5.921875l1.328125 0l-2.25 7.75l-1.078125 0l-1.890625 -5.875l-1.828125 5.875l-1.0625 0l-2.25 -7.75l1.3125 0l1.53125 5.796875l1.796875 -5.796875l1.0625 0l1.84375 5.921875z" fill-rule="nonzero"/><path fill="#000000" d="m327.74667 148.48027l-0.875 0l0 -5.15625l0.875 0l0 5.15625zm-0.953125 -6.53125q0 -0.21875 0.125 -0.359375q0.140625 -0.140625 0.390625 -0.140625q0.265625 0 0.390625 0.140625q0.140625 0.140625 0.140625 0.359375q0 0.21875 -0.140625 0.359375q-0.125 0.140625 -0.390625 0.140625q-0.25 0 -0.390625 -0.140625q-0.125 -0.140625 -0.125 -0.359375z" fill-rule="nonzero"/><path fill="#000000" d="m332.81967 132.41777q1.375 0 2.21875 0.78125q0.84375 0.78125 0.84375 2.03125q0 0.65625 -0.359375 1.203125q-0.34375 0.53125 -0.96875 0.859375q0.875 0.328125 1.34375 1.03125q0.46875 0.6875 0.46875 1.625q0 1.46875 -0.890625 2.328125q-0.890625 0.84375 -2.359375 0.84375q-1.296875 0 -2.1562805 -0.671875l0 3.28125l-1.328125 0l0 -10.421875q0 -0.78125 0.4375 -1.453125q0.4375 -0.671875 1.1719055 -1.046875q0.75 -0.390625 1.578125 -0.390625zm1.734375 2.78125q0 -0.734375 -0.484375 -1.203125q-0.484375 -0.484375 -1.25 -0.484375q-0.765625 0 -1.3125 0.515625q-0.5312805 0.5 -0.5469055 1.265625l0 5.921875q0.32815552 0.375 0.8437805 0.609375q0.515625 0.21875 1.1875 0.21875q0.953125 0 1.5 -0.5625q0.5625 -0.578125 0.5625 -1.5q0 -0.84375 -0.515625 -1.4375q-0.5 -0.59375 -1.28125 -0.609375l-1.0625 0l0 -1.09375l0.609375 0q0.859375 0 1.296875 -0.421875q0.453125 -0.421875 0.453125 -1.21875z" fill-rule="nonzero"/><path fill="#000000" d="m342.2972 137.48027l-4.546875 0l0 -0.640625l2.40625 -2.65625q0.53125 -0.609375 0.734375 -0.984375q0.203125 -0.390625 0.203125 -0.796875q0 -0.53125 -0.328125 -0.875q-0.328125 -0.359375 -0.875 -0.359375q-0.65625 0 -1.03125 0.375q-0.359375 0.375 -0.359375 1.046875l-0.890625 0q0 -0.96875 0.609375 -1.546875q0.625 -0.59375 1.671875 -0.59375q0.96875 0 1.53125 0.515625q0.5625 0.5 0.5625 1.34375q0 1.015625 -1.3125 2.4375l-1.859375 2.015625l3.484375 0l0 0.71875z" fill-rule="nonzero"/><path fill="#d9d2e9" d="m358.64304 34.56168l182.07877 0l0 52.031498l-182.07877 0z" fill-rule="evenodd"/><path stroke="#000000" stroke-width="1.0" stroke-linejoin="round" stroke-linecap="butt" d="m358.64304 34.56168l182.07877 0l0 52.031498l-182.07877 0z" fill-rule="evenodd"/><path fill="#000000" d="m444.92773 64.969925q0 -0.34375 0.203125 -0.578125q0.203125 -0.234375 0.609375 -0.234375q0.40625 0 0.609375 0.234375q0.21875 0.234375 0.21875 0.578125q0 0.328125 -0.21875 0.546875q-0.203125 0.21875 -0.609375 0.21875q-0.40625 0 -0.609375 -0.21875q-0.203125 -0.21875 -0.203125 -0.546875zm3.8572998 0q0 -0.34375 0.203125 -0.578125q0.203125 -0.234375 0.609375 -0.234375q0.40625 0 0.609375 0.234375q0.21875 0.234375 0.21875 0.578125q0 0.328125 -0.21875 0.546875q-0.203125 0.21875 -0.609375 0.21875q-0.40625 0 -0.609375 -0.21875q-0.203125 -0.21875 -0.203125 -0.546875zm3.8572693 0q0 -0.34375 0.203125 -0.578125q0.203125 -0.234375 0.609375 -0.234375q0.40625 0 0.609375 0.234375q0.21875 0.234375 0.21875 0.578125q0 0.328125 -0.21875 0.546875q-0.203125 0.21875 -0.609375 0.21875q-0.40625 0 -0.609375 -0.21875q-0.203125 -0.21875 -0.203125 -0.546875z" fill-rule="nonzero"/><path fill="#d9d2e9" d="m358.64304 86.59318l182.07877 0l0 25.291336l-182.07877 0z" fill-rule="evenodd"/><path stroke="#000000" stroke-width="1.0" stroke-linejoin="round" stroke-linecap="butt" d="m358.64304 86.59318l182.07877 0l0 25.291336l-182.07877 0z" fill-rule="evenodd"/><path fill="#000000" d="m444.92773 103.63135q0 -0.34375 0.203125 -0.578125q0.203125 -0.234375 0.609375 -0.234375q0.40625 0 0.609375 0.234375q0.21875 0.234375 0.21875 0.578125q0 0.328125 -0.21875 0.546875q-0.203125 0.21875 -0.609375 0.21875q-0.40625 0 -0.609375 -0.21875q-0.203125 -0.21875 -0.203125 -0.546875zm3.8572998 0q0 -0.34375 0.203125 -0.578125q0.203125 -0.234375 0.609375 -0.234375q0.40625 0 0.609375 0.234375q0.21875 0.234375 0.21875 0.578125q0 0.328125 -0.21875 0.546875q-0.203125 0.21875 -0.609375 0.21875q-0.40625 0 -0.609375 -0.21875q-0.203125 -0.21875 -0.203125 -0.546875zm3.8572693 0q0 -0.34375 0.203125 -0.578125q0.203125 -0.234375 0.609375 -0.234375q0.40625 0 0.609375 0.234375q0.21875 0.234375 0.21875 0.578125q0 0.328125 -0.21875 0.546875q-0.203125 0.21875 -0.609375 0.21875q-0.40625 0 -0.609375 -0.21875q-0.203125 -0.21875 -0.203125 -0.546875z" fill-rule="nonzero"/><path fill="#d9d2e9" d="m358.64304 111.884514l182.07877 0l0 52.0315l-182.07877 0z" fill-rule="evenodd"/><path stroke="#000000" stroke-width="1.0" stroke-linejoin="round" stroke-linecap="butt" d="m358.64304 111.884514l182.07877 0l0 52.0315l-182.07877 0z" fill-rule="evenodd"/><path fill="#000000" d="m444.92773 142.29277q0 -0.34375 0.203125 -0.578125q0.203125 -0.234375 0.609375 -0.234375q0.40625 0 0.609375 0.234375q0.21875 0.234375 0.21875 0.578125q0 0.328125 -0.21875 0.546875q-0.203125 0.21875 -0.609375 0.21875q-0.40625 0 -0.609375 -0.21875q-0.203125 -0.21875 -0.203125 -0.546875zm3.8572998 0q0 -0.34375 0.203125 -0.578125q0.203125 -0.234375 0.609375 -0.234375q0.40625 0 0.609375 0.234375q0.21875 0.234375 0.21875 0.578125q0 0.328125 -0.21875 0.546875q-0.203125 0.21875 -0.609375 0.21875q-0.40625 0 -0.609375 -0.21875q-0.203125 -0.21875 -0.203125 -0.546875zm3.8572693 0q0 -0.34375 0.203125 -0.578125q0.203125 -0.234375 0.609375 -0.234375q0.40625 0 0.609375 0.234375q0.21875 0.234375 0.21875 0.578125q0 0.328125 -0.21875 0.546875q-0.203125 0.21875 -0.609375 0.21875q-0.40625 0 -0.609375 -0.21875q-0.203125 -0.21875 -0.203125 -0.546875z" fill-rule="nonzero"/><path fill="#d9d2e9" d="m358.64227 163.90027l59.46457 0l0 26.015747l-59.46457 0z" fill-rule="evenodd"/><path stroke="#000000" stroke-width="1.0" stroke-linejoin="round" stroke-linecap="butt" d="m358.64227 163.90027l59.46457 0l0 26.015747l-59.46457 0z" fill-rule="evenodd"/><path fill="#000000" d="m374.3277 172.77188q1.125 0 1.8125 0.65625q0.6875 0.640625 0.6875 1.65625q0 0.53125 -0.28125 0.984375q-0.28125 0.4375 -0.796875 0.703125q0.71875 0.265625 1.09375 0.84375q0.390625 0.5625 0.390625 1.328125q0 1.203125 -0.734375 1.90625q-0.71875 0.703125 -1.921875 0.703125q-1.0625 0 -1.765625 -0.5625l0 2.6875l-1.09375 0l0 -8.53125q0 -0.640625 0.359375 -1.1875q0.359375 -0.546875 0.953125 -0.859375q0.609375 -0.328125 1.296875 -0.328125zm1.421875 2.28125q0 -0.59375 -0.40625 -0.984375q-0.390625 -0.40625 -1.015625 -0.40625q-0.640625 0 -1.078125 0.421875q-0.4375 0.421875 -0.4375 1.046875l0 4.859375q0.25 0.296875 0.671875 0.484375q0.421875 0.1875 0.984375 0.1875q0.78125 0 1.234375 -0.46875q0.453125 -0.46875 0.453125 -1.234375q0 -0.6875 -0.421875 -1.171875q-0.40625 -0.484375 -1.046875 -0.5l-0.875 0l0 -0.890625l0.5 0q0.703125 0 1.0625 -0.34375q0.375 -0.34375 0.375 -1.0zm11.546875 4.875l1.21875 -4.84375l1.078125 0l-1.84375 6.34375l-0.875 0l-1.546875 -4.8125l-1.5 4.8125l-0.875 0l-1.84375 -6.34375l1.078125 0l1.25 4.75l1.484375 -4.75l0.859375 0l1.515625 4.84375z" fill-rule="nonzero"/><path fill="#000000" d="m392.72028 185.92813l-0.71875 0l0 -4.8125l-1.453125 0.53125l0 -0.65625l2.0625 -0.78125l0.109375 0l0 5.71875z" fill-rule="nonzero"/><path fill="#000000" d="m397.9156 172.77188q1.125 0 1.8125 0.65625q0.6875 0.640625 0.6875 1.65625q0 0.53125 -0.28125 0.984375q-0.28125 0.4375 -0.796875 0.703125q0.71875 0.265625 1.09375 0.84375q0.390625 0.5625 0.390625 1.328125q0 1.203125 -0.734375 1.90625q-0.71875 0.703125 -1.921875 0.703125q-1.0625 0 -1.765625 -0.5625l0 2.6875l-1.09375 0l0 -8.53125q0 -0.640625 0.359375 -1.1875q0.359375 -0.546875 0.953125 -0.859375q0.609375 -0.328125 1.296875 -0.328125zm1.421875 2.28125q0 -0.59375 -0.40625 -0.984375q-0.390625 -0.40625 -1.015625 -0.40625q-0.640625 0 -1.078125 0.421875q-0.4375 0.421875 -0.4375 1.046875l0 4.859375q0.25 0.296875 0.671875 0.484375q0.421875 0.1875 0.984375 0.1875q0.78125 0 1.234375 -0.46875q0.453125 -0.46875 0.453125 -1.234375q0 -0.6875 -0.421875 -1.171875q-0.40625 -0.484375 -1.046875 -0.5l-0.875 0l0 -0.890625l0.5 0q0.703125 0 1.0625 -0.34375q0.375 -0.34375 0.375 -1.0z" fill-rule="nonzero"/><path fill="#000000" d="m405.67926 176.92813l-3.734375 0l0 -0.515625l1.96875 -2.1875q0.4375 -0.5 0.609375 -0.8125q0.171875 -0.3125 0.171875 -0.640625q0 -0.453125 -0.28125 -0.734375q-0.265625 -0.28125 -0.71875 -0.28125q-0.53125 0 -0.828125 0.3125q-0.296875 0.296875 -0.296875 0.84375l-0.734375 0q0 -0.78125 0.5 -1.265625q0.515625 -0.484375 1.359375 -0.484375q0.796875 0 1.25 0.421875q0.46875 0.40625 0.46875 1.09375q0 0.84375 -1.0625 2.0l-1.53125 1.65625l2.859375 0l0 0.59375z" fill-rule="nonzero"/><path fill="#d9d2e9" d="m358.64227 189.91602l59.46457 0l0 12.629913l-59.46457 0z" fill-rule="evenodd"/><path stroke="#000000" stroke-width="1.0" stroke-linejoin="round" stroke-linecap="butt" d="m358.64227 189.91602l59.46457 0l0 12.629913l-59.46457 0z" fill-rule="evenodd"/><path fill="#000000" d="m384.48102 200.18848q0 -0.28125 0.15625 -0.46875q0.171875 -0.1875 0.5 -0.1875q0.34375 0 0.515625 0.1875q0.171875 0.1875 0.171875 0.46875q0 0.265625 -0.171875 0.453125q-0.171875 0.171875 -0.515625 0.171875q-0.328125 0 -0.5 -0.171875q-0.15625 -0.1875 -0.15625 -0.453125zm3.1582031 0q0 -0.28125 0.15625 -0.46875q0.171875 -0.1875 0.5 -0.1875q0.34375 0 0.515625 0.1875q0.171875 0.1875 0.171875 0.46875q0 0.265625 -0.171875 0.453125q-0.171875 0.171875 -0.515625 0.171875q-0.328125 0 -0.5 -0.171875q-0.15625 -0.1875 -0.15625 -0.453125zm3.1582031 0q0 -0.28125 0.15625 -0.46875q0.171875 -0.1875 0.5 -0.1875q0.34375 0 0.515625 0.1875q0.171875 0.1875 0.171875 0.46875q0 0.265625 -0.171875 0.453125q-0.171875 0.171875 -0.515625 0.171875q-0.328125 0 -0.5 -0.171875q-0.15625 -0.1875 -0.15625 -0.453125z" fill-rule="nonzero"/><path fill="#d9d2e9" d="m358.64227 202.56168l59.46457 0l0 26.015747l-59.46457 0z" fill-rule="evenodd"/><path stroke="#000000" stroke-width="1.0" stroke-linejoin="round" stroke-linecap="butt" d="m358.64227 202.56168l59.46457 0l0 26.015747l-59.46457 0z" fill-rule="evenodd"/><path fill="#000000" d="m375.6031 211.4333q1.125 0 1.8125 0.65625q0.6875 0.640625 0.6875 1.65625q0 0.53125 -0.28125 0.984375q-0.28125 0.4375 -0.796875 0.703125q0.71875 0.265625 1.09375 0.84375q0.390625 0.5625 0.390625 1.328125q0 1.203125 -0.734375 1.90625q-0.71875 0.703125 -1.921875 0.703125q-1.0625 0 -1.765625 -0.5625l0 2.6875l-1.09375 0l0 -8.53125q0 -0.640625 0.359375 -1.1875q0.359375 -0.546875 0.953125 -0.859375q0.609375 -0.328125 1.296875 -0.328125zm1.421875 2.28125q0 -0.59375 -0.40625 -0.984375q-0.390625 -0.40625 -1.015625 -0.40625q-0.640625 0 -1.078125 0.421875q-0.4375 0.421875 -0.4375 1.046875l0 4.859375q0.25 0.296875 0.671875 0.484375q0.421875 0.1875 0.984375 0.1875q0.78125 0 1.234375 -0.46875q0.453125 -0.46875 0.453125 -1.234375q0 -0.6875 -0.421875 -1.171875q-0.40625 -0.484375 -1.046875 -0.5l-0.875 0l0 -0.890625l0.5 0q0.703125 0 1.0625 -0.34375q0.375 -0.34375 0.375 -1.0zm11.546875 4.875l1.21875 -4.84375l1.078125 0l-1.84375 6.34375l-0.875 0l-1.546875 -4.8125l-1.5 4.8125l-0.875 0l-1.84375 -6.34375l1.078125 0l1.25 4.75l1.484375 -4.75l0.859375 0l1.515625 4.84375z" fill-rule="nonzero"/><path fill="#000000" d="m392.48004 224.58955l-0.71875 0l0 -4.234375l0.71875 0l0 4.234375zm-0.78125 -5.34375q0 -0.1875 0.109375 -0.296875q0.109375 -0.125 0.3125 -0.125q0.21875 0 0.328125 0.125q0.109375 0.109375 0.109375 0.296875q0 0.171875 -0.109375 0.296875q-0.109375 0.109375 -0.328125 0.109375q-0.203125 0 -0.3125 -0.109375q-0.109375 -0.125 -0.109375 -0.296875z" fill-rule="nonzero"/><path fill="#000000" d="m396.6402 211.4333q1.125 0 1.8125 0.65625q0.6875 0.640625 0.6875 1.65625q0 0.53125 -0.28125 0.984375q-0.28125 0.4375 -0.796875 0.703125q0.71875 0.265625 1.09375 0.84375q0.390625 0.5625 0.390625 1.328125q0 1.203125 -0.734375 1.90625q-0.71875 0.703125 -1.921875 0.703125q-1.0625 0 -1.765625 -0.5625l0 2.6875l-1.09375 0l0 -8.53125q0 -0.640625 0.359375 -1.1875q0.359375 -0.546875 0.953125 -0.859375q0.609375 -0.328125 1.296875 -0.328125zm1.421875 2.28125q0 -0.59375 -0.40625 -0.984375q-0.390625 -0.40625 -1.015625 -0.40625q-0.640625 0 -1.078125 0.421875q-0.4375 0.421875 -0.4375 1.046875l0 4.859375q0.25 0.296875 0.671875 0.484375q0.421875 0.1875 0.984375 0.1875q0.78125 0 1.234375 -0.46875q0.453125 -0.46875 0.453125 -1.234375q0 -0.6875 -0.421875 -1.171875q-0.40625 -0.484375 -1.046875 -0.5l-0.875 0l0 -0.890625l0.5 0q0.703125 0 1.0625 -0.34375q0.375 -0.34375 0.375 -1.0z" fill-rule="nonzero"/><path fill="#000000" d="m404.40387 215.58955l-3.734375 0l0 -0.515625l1.96875 -2.1875q0.4375 -0.5 0.609375 -0.8125q0.171875 -0.3125 0.171875 -0.640625q0 -0.453125 -0.28125 -0.734375q-0.265625 -0.28125 -0.71875 -0.28125q-0.53125 0 -0.828125 0.3125q-0.296875 0.296875 -0.296875 0.84375l-0.734375 0q0 -0.78125 0.5 -1.265625q0.515625 -0.484375 1.359375 -0.484375q0.796875 0 1.25 0.421875q0.46875 0.40625 0.46875 1.09375q0 0.84375 -1.0625 2.0l-1.53125 1.65625l2.859375 0l0 0.59375z" fill-rule="nonzero"/><path fill="#f3f3f3" d="m239.72191 228.5853l301.00787 0l0 64.69293l-301.00787 0z" fill-rule="evenodd"/><path stroke="#000000" stroke-width="1.0" stroke-linejoin="round" stroke-linecap="butt" d="m239.72191 228.5853l301.00787 0l0 64.69293l-301.00787 0z" fill-rule="evenodd"/><path fill="#000000" d="m342.53345 260.70175q-0.34375 -0.0625 -0.5625 -0.0625q-0.875 -0.015625 -1.390625 0.65625l-0.734375 4.15625l-1.65625 0l1.109375 -6.34375l1.546875 0l-0.15625 0.765625q0.609375 -0.890625 1.484375 -0.890625q0.25 0 0.578125 0.078125l-0.21875 1.640625zm2.8671875 4.875q-0.828125 -0.015625 -1.46875 -0.40625q-0.640625 -0.40625 -0.96875 -1.109375q-0.3125 -0.703125 -0.234375 -1.546875l0.015625 -0.234375q0.078125 -0.921875 0.53125 -1.6875q0.453125 -0.78125 1.15625 -1.203125q0.71875 -0.421875 1.578125 -0.390625q1.21875 0.015625 1.84375 0.890625q0.640625 0.875 0.484375 2.21875l-0.09375 0.71875l-3.875 0q-0.03125 0.625 0.28125 1.0q0.328125 0.359375 0.890625 0.375q0.90625 0.015625 1.578125 -0.703125l0.765625 0.9375q-0.359375 0.546875 -1.046875 0.84375q-0.671875 0.296875 -1.4375 0.296875zm0.53125 -5.21875q-0.46875 -0.015625 -0.828125 0.296875q-0.34375 0.296875 -0.625 1.03125l2.28125 0l0.03125 -0.15625q0.03125 -0.234375 0 -0.4375q-0.0625 -0.34375 -0.296875 -0.53125q-0.21875 -0.203125 -0.5625 -0.203125zm8.8984375 1.9375q-0.125 1.0 -0.53125 1.78125q-0.390625 0.765625 -0.984375 1.140625q-0.59375 0.375 -1.3125 0.359375q-0.921875 -0.03125 -1.453125 -0.6875l-0.578125 3.0l-1.65625 0l1.515625 -8.78125l1.53125 0l-0.109375 0.640625q0.6875 -0.78125 1.609375 -0.75q0.9375 0.015625 1.453125 0.671875q0.515625 0.65625 0.546875 1.765625q0.015625 0.375 -0.03125 0.859375zm-1.640625 -0.125l0.03125 -0.5625q0.015625 -0.5625 -0.203125 -0.890625q-0.21875 -0.34375 -0.640625 -0.359375q-0.71875 -0.015625 -1.1875 0.609375l-0.484375 2.625q0.21875 0.59375 0.9375 0.609375q0.59375 0.015625 0.984375 -0.453125q0.40625 -0.484375 0.5625 -1.578125zm5.171875 3.40625q-0.828125 -0.015625 -1.46875 -0.40625q-0.640625 -0.40625 -0.96875 -1.109375q-0.3125 -0.703125 -0.234375 -1.546875l0.015625 -0.234375q0.078125 -0.921875 0.53125 -1.6875q0.453125 -0.78125 1.15625 -1.203125q0.71875 -0.421875 1.578125 -0.390625q1.21875 0.015625 1.84375 0.890625q0.640625 0.875 0.484375 2.21875l-0.09375 0.71875l-3.875 0q-0.03125 0.625 0.28125 1.0q0.328125 0.359375 0.890625 0.375q0.90625 0.015625 1.578125 -0.703125l0.765625 0.9375q-0.359375 0.546875 -1.046875 0.84375q-0.671875 0.296875 -1.4375 0.296875zm0.53125 -5.21875q-0.46875 -0.015625 -0.828125 0.296875q-0.34375 0.296875 -0.625 1.03125l2.28125 0l0.03125 -0.15625q0.03125 -0.234375 0 -0.4375q-0.0625 -0.34375 -0.296875 -0.53125q-0.21875 -0.203125 -0.5625 -0.203125zm6.4765625 5.09375q-0.078125 -0.234375 -0.0625 -0.578125q-0.71875 0.71875 -1.625 0.703125q-0.828125 -0.015625 -1.375 -0.546875q-0.546875 -0.53125 -0.515625 -1.3125q0.046875 -1.03125 0.875 -1.578125q0.828125 -0.5625 2.21875 -0.5625l0.78125 0l0.078125 -0.375q0.03125 -0.1875 0.015625 -0.375q-0.03125 -0.265625 -0.21875 -0.421875q-0.171875 -0.15625 -0.453125 -0.15625q-0.390625 -0.015625 -0.671875 0.1875q-0.265625 0.203125 -0.34375 0.578125l-1.65625 0q0.046875 -0.90625 0.84375 -1.46875q0.796875 -0.5625 1.953125 -0.546875q1.078125 0.015625 1.6875 0.640625q0.609375 0.609375 0.515625 1.59375l-0.484375 3.03125l-0.03125 0.375q-0.015625 0.40625 0.09375 0.703125l0 0.109375l-1.625 0zm-1.265625 -1.171875q0.703125 0.03125 1.234375 -0.609375l0.21875 -1.109375l-0.578125 0q-0.921875 0.03125 -1.328125 0.5625q-0.140625 0.1875 -0.171875 0.46875q-0.046875 0.3125 0.125 0.5q0.1875 0.1875 0.5 0.1875zm7.251953 -6.734375l-0.28125 1.5625l1.0625 0l-0.21875 1.25l-1.0625 0l-0.53125 3.171875q-0.046875 0.296875 0.03125 0.453125q0.09375 0.15625 0.40625 0.171875q0.09375 0 0.5 -0.03125l-0.109375 1.296875q-0.4375 0.15625 -0.953125 0.140625q-0.8125 -0.015625 -1.21875 -0.515625q-0.390625 -0.5 -0.3125 -1.34375l0.53125 -3.34375l-0.890625 0l0.21875 -1.25l0.890625 0l0.28125 -1.5625l1.65625 0zm7.9335938 3.15625q-0.34375 -0.0625 -0.5625 -0.0625q-0.875 -0.015625 -1.390625 0.65625l-0.734375 4.15625l-1.65625 0l1.109375 -6.34375l1.546875 0l-0.15625 0.765625q0.609375 -0.890625 1.484375 -0.890625q0.25 0 0.578125 0.078125l-0.21875 1.640625zm2.8671875 4.875q-0.828125 -0.015625 -1.46875 -0.40625q-0.640625 -0.40625 -0.96875 -1.109375q-0.3125 -0.703125 -0.234375 -1.546875l0.015625 -0.234375q0.078125 -0.921875 0.53125 -1.6875q0.453125 -0.78125 1.15625 -1.203125q0.71875 -0.421875 1.578125 -0.390625q1.21875 0.015625 1.84375 0.890625q0.640625 0.875 0.484375 2.21875l-0.09375 0.71875l-3.875 0q-0.03125 0.625 0.28125 1.0q0.328125 0.359375 0.890625 0.375q0.90625 0.015625 1.578125 -0.703125l0.765625 0.9375q-0.359375 0.546875 -1.046875 0.84375q-0.671875 0.296875 -1.4375 0.296875zm0.53125 -5.21875q-0.46875 -0.015625 -0.828125 0.296875q-0.34375 0.296875 -0.625 1.03125l2.28125 0l0.03125 -0.15625q0.03125 -0.234375 0 -0.4375q-0.0625 -0.34375 -0.296875 -0.53125q-0.21875 -0.203125 -0.5625 -0.203125zm5.5859375 3.84375q0.453125 0.015625 0.75 -0.234375q0.3125 -0.265625 0.40625 -0.703125l1.5625 0q-0.046875 0.65625 -0.421875 1.203125q-0.375 0.53125 -1.015625 0.828125q-0.625 0.296875 -1.328125 0.28125q-1.15625 -0.015625 -1.828125 -0.796875q-0.671875 -0.78125 -0.640625 -2.078125l0.015625 -0.328125l0 -0.0625q0.15625 -1.546875 1.046875 -2.453125q0.890625 -0.90625 2.1875 -0.859375q1.0625 0.015625 1.6875 0.703125q0.640625 0.671875 0.625 1.78125l-1.53125 0q0 -0.515625 -0.234375 -0.796875q-0.21875 -0.296875 -0.65625 -0.328125q-1.1875 -0.03125 -1.4375 1.734375q-0.09375 0.640625 -0.0625 1.078125q0.046875 1.015625 0.875 1.03125zm7.2695312 0.59375q-0.703125 0.796875 -1.734375 0.78125q-0.921875 -0.015625 -1.390625 -0.65625q-0.46875 -0.65625 -0.359375 -1.703125l0.6875 -4.109375l1.65625 0l-0.703125 4.125q-0.03125 0.1875 0 0.359375q0.046875 0.59375 0.640625 0.609375q0.765625 0.015625 1.28125 -0.59375l0.78125 -4.5l1.671875 0l-1.109375 6.34375l-1.53125 0l0.109375 -0.65625zm6.9960938 -4.09375q-0.34375 -0.0625 -0.5625 -0.0625q-0.875 -0.015625 -1.390625 0.65625l-0.734375 4.15625l-1.65625 0l1.109375 -6.34375l1.546875 0l-0.15625 0.765625q0.609375 -0.890625 1.484375 -0.890625q0.25 0 0.578125 0.078125l-0.21875 1.640625zm3.6347656 2.96875q0.09375 -0.46875 -0.640625 -0.6875l-0.53125 -0.140625q-1.90625 -0.515625 -1.84375 -1.828125q0.03125 -0.90625 0.796875 -1.46875q0.765625 -0.5625 1.84375 -0.546875q1.0625 0 1.71875 0.5625q0.671875 0.5625 0.6875 1.484375l-1.640625 0q0 -0.828125 -0.8125 -0.828125q-0.390625 0 -0.671875 0.1875q-0.28125 0.1875 -0.34375 0.515625q-0.09375 0.46875 0.703125 0.671875l0.234375 0.046875q0.8125 0.203125 1.234375 0.453125q0.4375 0.234375 0.65625 0.609375q0.234375 0.375 0.21875 0.890625q-0.015625 0.59375 -0.390625 1.046875q-0.375 0.453125 -1.03125 0.703125q-0.640625 0.25 -1.34375 0.234375q-1.0625 -0.015625 -1.765625 -0.609375q-0.703125 -0.59375 -0.71875 -1.546875l1.5625 0.015625q0.03125 0.90625 0.96875 0.921875q0.46875 0 0.765625 -0.1875q0.296875 -0.1875 0.34375 -0.5zm4.1191406 1.78125l-1.671875 0l1.109375 -6.34375l1.65625 0l-1.09375 6.34375zm-0.375 -7.953125q0 -0.390625 0.265625 -0.640625q0.265625 -0.265625 0.640625 -0.265625q0.375 -0.015625 0.65625 0.234375q0.28125 0.234375 0.28125 0.609375q0.015625 0.375 -0.234375 0.640625q-0.25 0.265625 -0.671875 0.28125q-0.359375 0.015625 -0.640625 -0.21875q-0.28125 -0.234375 -0.296875 -0.640625zm4.4433594 5.859375l1.796875 -4.25l1.78125 0l-3.0625 6.34375l-1.578125 0l-1.078125 -6.34375l1.671875 0l0.46875 4.25zm6.2089844 2.21875q-0.828125 -0.015625 -1.46875 -0.40625q-0.640625 -0.40625 -0.96875 -1.109375q-0.3125 -0.703125 -0.234375 -1.546875l0.015625 -0.234375q0.078125 -0.921875 0.53125 -1.6875q0.453125 -0.78125 1.15625 -1.203125q0.71875 -0.421875 1.578125 -0.390625q1.21875 0.015625 1.84375 0.890625q0.640625 0.875 0.484375 2.21875l-0.09375 0.71875l-3.875 0q-0.03125 0.625 0.28125 1.0q0.328125 0.359375 0.890625 0.375q0.90625 0.015625 1.578125 -0.703125l0.765625 0.9375q-0.359375 0.546875 -1.046875 0.84375q-0.671875 0.296875 -1.4375 0.296875zm0.53125 -5.21875q-0.46875 -0.015625 -0.828125 0.296875q-0.34375 0.296875 -0.625 1.03125l2.28125 0l0.03125 -0.15625q0.03125 -0.234375 0 -0.4375q-0.0625 -0.34375 -0.296875 -0.53125q-0.21875 -0.203125 -0.5625 -0.203125zm4.5546875 5.09375l-1.671875 0l1.578125 -9.0l1.65625 0l-1.5625 9.0zm4.0839844 -2.421875l1.8125 -3.921875l1.84375 0l-3.703125 7.296875q-0.40625 0.84375 -0.953125 1.234375q-0.53125 0.390625 -1.234375 0.390625q-0.265625 0 -0.796875 -0.125l0.125 -1.28125l0.234375 0q0.8125 0.03125 1.1875 -0.578125l0.359375 -0.6875l-1.03125 -6.25l1.703125 0l0.453125 3.921875zm3.390625 0.671875q0.390625 -0.015625 0.671875 0.25q0.28125 0.25 0.28125 0.640625q0.015625 0.390625 -0.265625 0.671875q-0.265625 0.265625 -0.65625 0.265625q-0.390625 0 -0.671875 -0.234375q-0.265625 -0.25 -0.28125 -0.640625q0 -0.40625 0.265625 -0.671875q0.265625 -0.265625 0.65625 -0.28125zm3.4394531 0q0.390625 -0.015625 0.671875 0.25q0.28125 0.25 0.28125 0.640625q0.015625 0.390625 -0.265625 0.671875q-0.265625 0.265625 -0.65625 0.265625q-0.390625 0 -0.671875 -0.234375q-0.265625 -0.25 -0.28125 -0.640625q0 -0.40625 0.265625 -0.671875q0.265625 -0.265625 0.65625 -0.28125zm3.4394531 0q0.390625 -0.015625 0.671875 0.25q0.28125 0.25 0.28125 0.640625q0.015625 0.390625 -0.265625 0.671875q-0.265625 0.265625 -0.65625 0.265625q-0.390625 0 -0.671875 -0.234375q-0.265625 -0.25 -0.28125 -0.640625q0 -0.40625 0.265625 -0.671875q0.265625 -0.265625 0.65625 -0.28125z" fill-rule="nonzero"/><path fill="#d9d2e9" d="m418.04544 163.90027l122.677155 0l0 26.015747l-122.677155 0z" fill-rule="evenodd"/><path stroke="#000000" stroke-width="1.0" stroke-linejoin="round" stroke-linecap="butt" d="m418.04544 163.90027l122.677155 0l0 26.015747l-122.677155 0z" fill-rule="evenodd"/><path fill="#000000" d="m475.49045 180.86563q0 -0.28125 0.15625 -0.46875q0.171875 -0.1875 0.5 -0.1875q0.34375 0 0.515625 0.1875q0.171875 0.1875 0.171875 0.46875q0 0.265625 -0.171875 0.453125q-0.171875 0.171875 -0.515625 0.171875q-0.328125 0 -0.5 -0.171875q-0.15625 -0.1875 -0.15625 -0.453125zm3.1582031 0q0 -0.28125 0.15625 -0.46875q0.171875 -0.1875 0.5 -0.1875q0.34375 0 0.515625 0.1875q0.171875 0.1875 0.171875 0.46875q0 0.265625 -0.171875 0.453125q-0.171875 0.171875 -0.515625 0.171875q-0.328125 0 -0.5 -0.171875q-0.15625 -0.1875 -0.15625 -0.453125zm3.1582031 0q0 -0.28125 0.15625 -0.46875q0.171875 -0.1875 0.5 -0.1875q0.34375 0 0.515625 0.1875q0.171875 0.1875 0.171875 0.46875q0 0.265625 -0.171875 0.453125q-0.171875 0.171875 -0.515625 0.171875q-0.328125 0 -0.5 -0.171875q-0.15625 -0.1875 -0.15625 -0.453125z" fill-rule="nonzero"/><path fill="#d9d2e9" d="m418.04544 189.91602l122.677155 0l0 12.629913l-122.677155 0z" fill-rule="evenodd"/><path stroke="#000000" stroke-width="1.0" stroke-linejoin="round" stroke-linecap="butt" d="m418.04544 189.91602l122.677155 0l0 12.629913l-122.677155 0z" fill-rule="evenodd"/><path fill="#000000" d="m475.49045 200.18848q0 -0.28125 0.15625 -0.46875q0.171875 -0.1875 0.5 -0.1875q0.34375 0 0.515625 0.1875q0.171875 0.1875 0.171875 0.46875q0 0.265625 -0.171875 0.453125q-0.171875 0.171875 -0.515625 0.171875q-0.328125 0 -0.5 -0.171875q-0.15625 -0.1875 -0.15625 -0.453125zm3.1582031 0q0 -0.28125 0.15625 -0.46875q0.171875 -0.1875 0.5 -0.1875q0.34375 0 0.515625 0.1875q0.171875 0.1875 0.171875 0.46875q0 0.265625 -0.171875 0.453125q-0.171875 0.171875 -0.515625 0.171875q-0.328125 0 -0.5 -0.171875q-0.15625 -0.1875 -0.15625 -0.453125zm3.1582031 0q0 -0.28125 0.15625 -0.46875q0.171875 -0.1875 0.5 -0.1875q0.34375 0 0.515625 0.1875q0.171875 0.1875 0.171875 0.46875q0 0.265625 -0.171875 0.453125q-0.171875 0.171875 -0.515625 0.171875q-0.328125 0 -0.5 -0.171875q-0.15625 -0.1875 -0.15625 -0.453125z" fill-rule="nonzero"/><path fill="#d9d2e9" d="m418.04544 202.56168l122.677155 0l0 26.015747l-122.677155 0z" fill-rule="evenodd"/><path stroke="#000000" stroke-width="1.0" stroke-linejoin="round" stroke-linecap="butt" d="m418.04544 202.56168l122.677155 0l0 26.015747l-122.677155 0z" fill-rule="evenodd"/><path fill="#000000" d="m475.49045 219.52705q0 -0.28125 0.15625 -0.46875q0.171875 -0.1875 0.5 -0.1875q0.34375 0 0.515625 0.1875q0.171875 0.1875 0.171875 0.46875q0 0.265625 -0.171875 0.453125q-0.171875 0.171875 -0.515625 0.171875q-0.328125 0 -0.5 -0.171875q-0.15625 -0.1875 -0.15625 -0.453125zm3.1582031 0q0 -0.28125 0.15625 -0.46875q0.171875 -0.1875 0.5 -0.1875q0.34375 0 0.515625 0.1875q0.171875 0.1875 0.171875 0.46875q0 0.265625 -0.171875 0.453125q-0.171875 0.171875 -0.515625 0.171875q-0.328125 0 -0.5 -0.171875q-0.15625 -0.1875 -0.15625 -0.453125zm3.1582031 0q0 -0.28125 0.15625 -0.46875q0.171875 -0.1875 0.5 -0.1875q0.34375 0 0.515625 0.1875q0.171875 0.1875 0.171875 0.46875q0 0.265625 -0.171875 0.453125q-0.171875 0.171875 -0.515625 0.171875q-0.328125 0 -0.5 -0.171875q-0.15625 -0.1875 -0.15625 -0.453125z" fill-rule="nonzero"/><path fill="#000000" fill-opacity="0.0" d="m180.2546 166.41733l360.47247 0l0 129.35434l-360.47247 0z" fill-rule="evenodd"/><path stroke="#ff0000" stroke-width="4.0" stroke-linejoin="round" stroke-linecap="butt" d="m180.2546 166.41733l360.47247 0l0 129.35434l-360.47247 0z" fill-rule="evenodd"/><path fill="#000000" fill-opacity="0.0" d="m239.72179 228.60104l301.00787 0l0 64.69293l-301.00787 0z" fill-rule="evenodd"/><path stroke="#ff0000" stroke-width="4.0" stroke-linejoin="round" stroke-linecap="butt" d="m239.72179 228.60104l301.00787 0l0 64.69293l-301.00787 0z" fill-rule="evenodd"/><path fill="#000000" fill-opacity="0.0" d="m118.91338 34.56168l419.937 0l0 260.34647l-419.937 0z" fill-rule="evenodd"/><path stroke="#ff0000" stroke-width="4.0" stroke-linejoin="round" stroke-linecap="butt" d="m118.91338 34.56168l419.937 0l0 260.34647l-419.937 0z" fill-rule="evenodd"/></g></svg>